<svg width="260" height="151" viewBox="0 0 260 151" fill="none" xmlns="http://www.w3.org/2000/svg">
<g opacity="0.4">
<path d="M9.05942 0.773262C2.76195 -4.2064 -0.252351 -8.90016 0.0165133 -13.308C0.380048 -18.9428 6.17957 -23.9982 17.2503 -28.3436C29.2697 -33.0468 47.8553 -37.0911 72.5302 -40.38C105.197 -44.714 135.348 -46.5544 162.147 -45.8557C185.436 -45.2479 206.907 -42.7032 225.999 -38.2783C259.421 -30.5361 281.159 -18.2952 299.671 -6.21909C319.529 6.7659 333.832 21.614 342.25 38.0071C349.555 52.2531 352.298 67.3512 350.407 82.8809C346.465 115.258 322.915 141.984 302.432 149.135C292.821 152.486 284.442 151.294 278.853 145.778C255.161 122.427 232.758 103.455 210.361 87.7886C179.5 66.2038 148.935 51.2704 119.511 43.4204C98.4945 37.8083 68.1508 28.9699 43.0953 18.7569C27.577 12.4329 16.2316 6.43834 9.05942 0.773262ZM299.319 -5.65675L298.961 -5.08873C280.551 -17.1024 258.932 -29.2751 225.686 -36.9718C206.68 -41.374 185.288 -43.9131 162.096 -44.5152C135.365 -45.2138 105.294 -43.3791 72.6836 -39.0508C48.1166 -35.7903 29.6218 -31.7687 17.7161 -27.1223C7.15654 -22.9871 1.63539 -18.3123 1.30594 -13.2285C0.766314 -4.59455 15.3758 6.04451 43.5781 17.5583C68.5711 27.7486 98.8354 36.5643 119.835 42.1707C149.406 50.0606 180.114 65.0564 211.099 86.7321C233.553 102.444 256.013 121.455 279.756 144.858C284.976 150.01 292.866 151.106 301.983 147.914C322.091 140.893 345.209 114.599 349.089 82.7389C350.946 67.4704 348.248 52.6337 341.069 38.6149C332.77 22.432 318.603 7.73154 298.955 -5.08873L299.319 -5.65675Z" fill="url(#paint0_linear_56_129)"/>
<path d="M24.3903 -0.118343C18.5927 -4.70418 15.8264 -9.01736 16.0915 -13.0579C16.8413 -23.9071 38.7442 -31.9958 83.0443 -37.7839C140.517 -44.5547 189.265 -42.8961 227.89 -32.8705C259.262 -24.7307 278.972 -12.7682 295.598 -1.06126C313.116 10.5946 325.772 23.8636 333.218 38.3822C339.722 51.0662 342.17 64.4488 340.5 78.1438C339.364 87.5957 335.593 101.898 324.255 116.326C316.195 126.585 305.936 134.503 296.11 138.013C286.186 141.569 277.495 140.462 271.639 134.889C227.333 93.8382 178.671 53.7302 122.687 38.3254C103.681 33.1621 76.4155 25.0223 54.4273 15.9226C40.8023 10.2878 30.79 4.94084 24.3903 -0.118343ZM304.846 7.15234C301.741 4.6947 298.435 2.29954 294.928 -0.0331383C278.382 -11.689 258.785 -23.589 227.606 -31.6777C189.1 -41.6692 140.511 -43.3164 83.192 -36.5627C60.5108 -33.6033 43.4702 -29.9338 32.4733 -25.668C22.743 -21.8906 17.6422 -17.6191 17.3411 -12.9727C16.7731 -5.09422 29.4344 4.24407 54.9158 14.7866C76.8415 23.8749 104.073 31.9806 123.079 37.1951C179.313 52.6453 228.163 92.8613 272.542 134.02C278.058 139.269 286.294 140.268 295.752 136.889C305.374 133.435 315.428 125.676 323.346 115.599C329.509 107.76 337.285 94.872 339.342 78.0302C340.983 64.5624 338.575 51.4126 332.185 38.9559C326.283 27.5216 317.121 16.8598 304.846 7.15234Z" fill="url(#paint1_linear_56_129)"/>
<path d="M39.7153 -0.998734C34.41 -5.16234 31.8766 -9.1385 32.1549 -12.8022C32.8934 -22.6745 52.9786 -30.002 93.5582 -35.205C147.617 -40.6694 193.462 -38.0452 229.827 -27.4743C259.415 -18.8517 277.649 -6.6676 291.576 4.10778C306.788 14.4742 317.813 26.1698 324.3 38.8537C329.98 49.9983 332.15 61.6996 330.685 73.6281C329.219 85.5565 324.147 97.2578 316.024 107.346C308.64 116.554 299.392 123.517 290.06 126.96C279.762 130.765 270.679 129.732 264.499 124.063L261 121.007C242.204 104.591 220.897 85.9825 198.353 70.0836C172.547 51.9069 148.861 39.8705 125.935 33.3496C101.192 26.3118 80.9594 19.4955 65.7648 13.0939C54.0181 8.14074 45.335 3.4432 39.7153 -0.998734ZM298.631 10.7082C296.189 8.7845 293.612 6.89109 290.9 5.02798C277.029 -5.70197 258.909 -17.8122 229.503 -26.378C193.28 -36.9318 147.583 -39.522 93.6888 -34.069C54.3078 -29.0193 33.9896 -21.8281 33.3023 -12.717C32.7797 -5.73036 43.8505 2.6082 66.1908 12.0317C81.34 18.4163 101.539 25.2155 126.225 32.2419C149.275 38.7969 173.076 50.8674 198.989 69.1634C221.585 85.0964 242.914 103.728 261.733 120.16L265.237 123.228C271.111 128.596 279.767 129.544 289.662 125.903C298.671 122.58 307.953 115.559 315.127 106.647C323.113 96.7238 328.095 85.2668 329.543 73.5088C330.992 61.7507 328.873 50.3391 323.295 39.4274C318.024 29.1235 309.753 19.5069 298.631 10.7082Z" fill="url(#paint2_linear_56_129)"/>
<path d="M54.9611 -1.8451C50.1613 -5.64517 47.9177 -9.22939 48.196 -12.5523C48.9288 -21.4419 67.202 -28.0025 104.067 -32.6206C154.751 -36.7955 197.699 -33.2454 231.741 -22.0724C259.835 -12.8591 276.302 -0.487526 287.51 9.25406C318.58 31.0661 322.812 53.929 320.892 69.2599C319.591 79.6207 315.087 89.7088 307.867 98.4393C301.261 106.426 292.877 112.64 284.266 115.889C273.655 119.911 263.817 118.928 257.313 113.202C252.406 109.175 247.384 104.983 242.545 100.939C206.856 71.1912 169.969 40.4385 129.139 28.3112C90.5534 16.8428 65.9978 6.87972 54.9611 -1.8451ZM280.37 4.70988C269.52 -3.86726 254.377 -13.518 231.406 -21.0556C197.501 -32.1775 154.723 -35.7106 104.169 -31.5527C68.3835 -27.0767 49.9285 -20.6523 49.2525 -12.4671C48.7583 -6.34384 58.2386 0.97229 77.5116 9.27678C90.3887 14.8377 107.378 20.7281 129.446 27.2831C170.486 39.4729 207.458 70.2994 243.215 100.109C248.072 104.159 253.093 108.346 257.984 112.39C264.306 117.934 273.485 118.82 283.863 114.884C292.304 111.686 300.529 105.602 307.015 97.7576C314.11 89.1805 318.529 79.2855 319.802 69.1293C321.687 54.0824 317.529 31.6398 286.856 10.1175C284.88 8.36226 282.71 6.56163 280.37 4.70988Z" fill="url(#paint3_linear_56_129)"/>
<path d="M70.2695 -2.66328C66.1911 -5.89533 63.919 -9.13874 64.203 -12.3026C64.9301 -20.2095 81.4084 -26.009 114.581 -30.042C161.931 -32.9218 201.982 -28.4288 233.655 -16.6764C253.917 -9.16146 270.208 1.00614 283.46 14.4058C309.333 33.2812 312.804 52.4008 311.151 65.1075C310.015 73.838 306.101 82.3413 299.79 89.6915C294.119 96.3759 286.906 101.579 278.773 104.852C267.879 109.095 257.649 108.323 250.594 102.745C250.429 102.614 250.264 102.483 250.105 102.347C241.5 95.6784 233.065 88.8849 224.919 82.3129C193.598 57.0643 164.016 33.2187 132.332 23.2783C108.418 15.7634 81.9423 6.56708 70.2695 -2.66328ZM271.952 5.44239C260.989 -3.22563 248.237 -10.2066 233.326 -15.7448C201.767 -27.4461 161.852 -31.9221 114.672 -29.0195C82.516 -25.1172 65.8616 -19.4483 65.1914 -12.1833C63.9985 0.773251 113.905 16.4223 132.65 22.3297C164.527 32.3269 194.184 56.2293 225.578 81.5404C233.724 88.1067 242.147 94.9003 250.764 101.575C257.581 107.283 267.646 108.135 278.45 103.926C286.426 100.71 293.5 95.6028 299.063 89.0439C305.215 81.8414 309.055 73.5199 310.168 64.9825C311.787 52.5315 308.362 33.7867 282.841 15.1897H282.812V15.1613C279.394 11.7023 275.767 8.45659 271.952 5.44239Z" fill="url(#paint4_linear_56_129)"/>
<path d="M85.4527 -3.54947C81.8287 -6.41798 79.8691 -9.22969 80.1588 -12.0698C80.8915 -18.9997 95.5862 -24.0437 125.095 -27.4803C169.151 -29.0821 206.322 -23.6347 235.57 -11.2973C259.341 -1.27738 272.531 10.9976 279.415 19.5463C300.199 35.5078 302.903 51.0034 301.494 61.188C299.574 75.1046 288.697 87.9305 273.792 93.8777C262.221 98.4901 250.742 97.6153 243.062 91.5375L242.965 91.4636C230.429 82.3071 219.108 73.3664 208.117 64.7155C181.892 44.0451 159.267 26.1922 135.569 18.2172C114.501 11.1339 94.6376 3.70986 85.4527 -3.54947ZM265.101 6.87943C244.419 -9.46826 202.988 -29.3718 125.163 -26.5487C96.5859 -23.2144 81.7378 -18.3067 81.0676 -11.9505C79.9713 -1.47618 117.716 11.2532 135.859 17.3765C159.682 25.397 182.391 43.2953 208.679 64.0225C219.642 72.6621 230.98 81.6312 243.522 90.7593L243.613 90.8331C251.048 96.7122 262.187 97.5415 273.451 93.0484C288.061 87.2262 298.711 74.6786 300.591 61.0858C301.966 51.1341 299.307 35.9679 278.813 20.2564L278.768 20.228L278.734 20.1825C274.7 15.2532 270.128 10.791 265.101 6.87943Z" fill="url(#paint5_linear_56_129)"/>
<path d="M100.715 -4.32736C97.5572 -6.82098 95.7338 -9.33732 96.0348 -11.7855C96.779 -17.7497 109.724 -22.0099 135.609 -24.85C176.427 -25.1681 210.685 -18.7779 237.478 -5.85534C247.39 -1.09532 256.007 4.49402 263.079 10.6684C270.151 16.8428 273.826 22.1311 275.371 24.7327C284.982 32.6566 290.554 41.0576 291.929 49.6972C293.122 57.1611 291.065 64.5056 285.987 70.9356C280.398 78.0075 271.724 83.2617 262.187 85.3463C252.093 87.5502 242.715 85.8746 235.791 80.6261C218.807 68.9248 204.55 57.7972 191.997 47.9818C171.548 31.992 155.37 19.3648 138.779 13.2018L137.756 12.8212C125.51 8.27137 108.793 2.04017 100.715 -4.32736ZM258.927 8.29977C252.17 3.03939 244.855 -1.46181 237.115 -5.1226C210.469 -17.994 176.302 -24.3558 135.66 -24.0434C110.605 -21.2885 97.5401 -17.1306 96.8642 -11.6833C95.8701 -3.64574 122.272 6.19809 138.046 12.0374L139.068 12.4179C155.779 18.6264 172.014 31.2876 192.513 47.3229C205.067 57.1327 219.301 68.2545 236.28 79.9501C243.022 85.0623 252.184 86.6812 262.005 84.5284C271.361 82.4835 279.858 77.3429 285.328 70.4187C290.259 64.1704 292.258 57.0588 291.105 49.8336C289.759 41.3814 284.289 33.1394 274.78 25.3291L274.723 25.2836L274.689 25.2212C273.173 22.6707 268.646 15.9851 258.927 8.29977Z" fill="url(#paint6_linear_56_129)"/>
<path d="M115.802 -4.96943C113.036 -7.15064 111.434 -9.36025 111.764 -11.5187C112.53 -16.5287 123.772 -20.0391 146.123 -22.3112H146.174C172.008 -21.6466 209.151 -17.3182 239.393 -0.493418C248.288 4.45406 256.081 10.2649 261.937 16.303C266.55 21.0517 269.964 25.9991 271.327 29.8844C289.077 46.1867 282.119 58.9047 278.308 63.6193C273.423 69.6517 264.908 74.0879 255.524 75.4796C245.448 76.9735 235.888 74.9115 228.611 69.7482C206.26 55.2182 189.923 42.2957 176.796 31.9066C162.596 20.6938 152.372 12.5938 141.982 8.1462L139.409 7.06128C130.98 3.4657 121.187 -0.709267 115.802 -4.96943ZM146.174 -21.5386C124.533 -19.3631 113.206 -15.955 112.513 -11.4108C111.633 -5.60562 128.526 1.5969 139.705 6.36829L142.306 7.47025C152.798 11.9633 163.067 20.086 177.285 31.3272C190.401 41.7106 206.72 54.6161 229.06 69.1348C236.087 74.1447 245.698 76.1896 255.439 74.7411C264.635 73.3779 272.974 69.0609 277.745 63.1535C285.539 53.4971 283 41.5686 270.77 30.39L270.702 30.3275L270.668 30.2366C268.027 22.5626 257.223 10.2933 239.046 0.176849C222.397 -9.0592 192.815 -20.3288 146.174 -21.5386Z" fill="url(#paint7_linear_56_129)"/>
<path d="M130.809 -5.32721C128.304 -7.30392 126.77 -9.30336 127.168 -11.229C127.566 -13.1546 129.94 -14.8416 134.393 -16.2048C139.239 -17.6874 146.719 -18.8632 156.643 -19.7095H156.694C199.591 -16.8694 226.379 -4.74782 241.301 4.93128C258.552 16.127 266.862 28.3792 267.288 35.0933C277.433 46.2663 273.786 53.9459 270.696 57.5358C262.227 67.3967 238.358 70.2027 221.431 58.9048C192.059 40.8928 175.353 26.8797 163.152 16.6439C155.74 10.4241 150.377 5.931 145.174 3.12497C144.322 2.65919 143.425 2.18205 142.51 1.69355C138.33 -0.533096 133.854 -2.89039 130.809 -5.32721ZM156.671 -19.0393C138.29 -17.4658 128.588 -14.7961 127.833 -11.087C127.054 -7.29824 135.785 -2.64046 142.834 1.09713C143.754 1.58563 144.652 2.06277 145.504 2.52855C150.769 5.36866 156.149 9.91284 163.595 16.127C175.774 26.3514 192.462 40.3418 221.801 58.3367C229.321 63.3581 239.228 65.9539 248.981 65.4597C258.154 64.9996 266.084 61.8755 270.185 57.0985C275.297 51.174 274.042 43.4943 266.708 35.4625L266.629 35.3716V35.2523C266.345 29.805 259.245 17.388 240.937 5.4993C226.084 -4.14004 199.415 -16.2162 156.671 -19.0393Z" fill="url(#paint8_linear_56_129)"/>
<path d="M172.303 20.2224C165.447 14.839 159.001 8.95317 153.019 2.61375C151.178 0.705196 149.718 -0.794382 148.361 -1.97019L147.282 -2.89038C144.106 -5.59417 140.829 -8.38884 141.675 -10.9279C142.368 -12.9955 145.765 -15.8924 167.157 -17.1761H167.208C190.86 -14.4724 211.582 -8.36044 228.787 1.00057C246.856 10.8103 255.45 21.1994 258.966 26.5218C262.579 31.9919 264.13 36.9848 263.238 40.2566C267.316 46.857 265.555 50.8786 263.346 53.0996C259.756 56.7065 252.031 58.3538 242.692 57.5018C232.622 56.5073 222.904 53.2615 214.257 48.0044C194.944 36.8712 181.692 27.6408 172.303 20.2224ZM148.747 -2.40188C150.127 -1.21472 151.587 0.301901 153.45 2.2275C161.051 10.0776 175.12 24.6985 214.564 47.5216C232.911 58.882 256.03 59.6489 262.925 52.7076C265.885 49.7312 265.8 45.5108 262.664 40.4952L262.59 40.3816L262.63 40.2509C263.55 37.1552 262.062 32.2986 258.466 26.8853C254.53 20.9268 231.633 -9.13863 167.168 -16.5229C151.394 -15.5914 143.243 -13.6828 142.243 -10.7007C141.522 -8.54789 144.646 -5.88954 147.668 -3.3164C148.031 -3.00967 148.395 -2.70294 148.747 -2.3962V-2.40188Z" fill="url(#paint9_linear_56_129)"/>
<path d="M166.532 11.5999C164.328 9.86178 162.367 8.1899 160.647 6.58429C152.161 -1.32826 151.667 -5.70203 151.508 -7.14481C151.41 -7.76911 151.451 -8.40735 151.627 -9.01408C151.804 -9.62082 152.112 -10.1811 152.53 -10.6552C155.024 -13.4158 162.317 -14.5461 177.699 -14.5461H177.745C199.46 -10.7631 218.955 -3.2993 234.121 7.03871C251.264 18.7116 257.115 29.8164 258.836 34.0539C260.818 38.9218 260.926 42.9945 259.154 45.5336C259.364 48.1181 258.523 50.038 256.666 51.2138C252.252 54.0539 243.209 52.1965 236.399 50.1346C227.481 47.4365 217.086 42.8298 207.095 37.1609C189.452 27.5443 175.848 18.9672 166.532 11.5999ZM152.019 -7.20161C153.11 2.50021 171.718 17.2802 207.327 36.7179C225.584 47.0957 248.975 55.5535 256.365 50.7935C258.069 49.6915 258.836 47.9022 258.637 45.4711V45.3745L258.694 45.295C260.398 42.915 260.307 38.9843 258.376 34.2356C251.173 16.5076 222.851 -6.15645 177.716 -14.0463C162.709 -14.0463 155.302 -12.9102 152.956 -10.3257C152.588 -9.90597 152.317 -9.40921 152.165 -8.87169C152.013 -8.33417 151.982 -7.76943 152.076 -7.21865L152.019 -7.20161Z" fill="url(#paint10_linear_56_129)"/>
<path d="M160.625 2.88631C154.905 -1.65787 152.042 -5.28185 151.962 -8.09356C151.923 -9.79763 152.866 -11.1893 154.859 -12.3594C158.267 -14.3475 165.362 -14.4895 170.719 -14.2623C176.617 -14.0309 182.482 -13.2666 188.242 -11.9788C212.667 -5.86123 228.628 4.49381 237.717 12.0826C248.282 20.9153 255.689 31.2533 257.529 39.7453C258.597 44.653 257.683 48.544 254.962 50.7138C248.146 56.1611 235.609 48.1747 221.113 38.9217C214.297 34.5763 207.276 30.0889 199.898 26.2888C181.431 16.7915 168.395 9.03799 160.625 2.88631ZM188.191 -11.7459L188.14 -11.5358C179.79 -13.6261 160.875 -15.3813 155.081 -11.9788C153.24 -10.8996 152.36 -9.6329 152.4 -8.10492C152.57 -1.74307 168.617 9.70258 200.114 25.9139C207.498 29.7254 214.553 34.2184 221.369 38.5695C235.717 47.7317 248.112 55.6442 254.706 50.39C257.291 48.3281 258.148 44.5905 257.12 39.8532C255.28 31.4578 247.958 21.205 237.438 12.4461C228.35 4.86871 212.445 -5.42954 188.14 -11.5244L188.191 -11.7459Z" fill="url(#paint11_linear_56_129)"/>
</g>
<defs>
<linearGradient id="paint0_linear_56_129" x1="175.479" y1="-45.992" x2="175.479" y2="150.998" gradientUnits="userSpaceOnUse">
<stop stop-color="#E9CBA3"/>
<stop offset="0.15" stop-color="#EEDEBC"/>
<stop offset="0.39" stop-color="#C9A885"/>
<stop offset="0.63" stop-color="#9A7A5F"/>
<stop offset="0.86" stop-color="#C9A885"/>
<stop offset="1" stop-color="#C9A885"/>
</linearGradient>
<linearGradient id="paint1_linear_56_129" x1="178.552" y1="-41.868" x2="178.552" y2="140.092" gradientUnits="userSpaceOnUse">
<stop stop-color="#E9CBA3"/>
<stop offset="0.15" stop-color="#EEDEBC"/>
<stop offset="0.39" stop-color="#C9A885"/>
<stop offset="0.63" stop-color="#9A7A5F"/>
<stop offset="0.86" stop-color="#C9A885"/>
<stop offset="1" stop-color="#C9A885"/>
</linearGradient>
<linearGradient id="paint2_linear_56_129" x1="181.63" y1="-37.9827" x2="181.63" y2="129.215" gradientUnits="userSpaceOnUse">
<stop stop-color="#E9CBA3"/>
<stop offset="0.15" stop-color="#EEDEBC"/>
<stop offset="0.39" stop-color="#C9A885"/>
<stop offset="0.63" stop-color="#9A7A5F"/>
<stop offset="0.86" stop-color="#C9A885"/>
<stop offset="1" stop-color="#C9A885"/>
</linearGradient>
<linearGradient id="paint3_linear_56_129" x1="184.726" y1="-34.3133" x2="184.726" y2="118.331" gradientUnits="userSpaceOnUse">
<stop stop-color="#E9CBA3"/>
<stop offset="0.15" stop-color="#EEDEBC"/>
<stop offset="0.39" stop-color="#C9A885"/>
<stop offset="0.63" stop-color="#9A7A5F"/>
<stop offset="0.86" stop-color="#C9A885"/>
<stop offset="1" stop-color="#C9A885"/>
</linearGradient>
<linearGradient id="paint4_linear_56_129" x1="187.839" y1="-30.8826" x2="187.839" y2="107.561" gradientUnits="userSpaceOnUse">
<stop stop-color="#E9CBA3"/>
<stop offset="0.15" stop-color="#EEDEBC"/>
<stop offset="0.39" stop-color="#C9A885"/>
<stop offset="0.63" stop-color="#9A7A5F"/>
<stop offset="0.86" stop-color="#C9A885"/>
<stop offset="1" stop-color="#C9A885"/>
</linearGradient>
<linearGradient id="paint5_linear_56_129" x1="190.969" y1="-27.7302" x2="190.969" y2="96.8258" gradientUnits="userSpaceOnUse">
<stop stop-color="#E9CBA3"/>
<stop offset="0.15" stop-color="#EEDEBC"/>
<stop offset="0.39" stop-color="#C9A885"/>
<stop offset="0.63" stop-color="#9A7A5F"/>
<stop offset="0.86" stop-color="#C9A885"/>
<stop offset="1" stop-color="#C9A885"/>
</linearGradient>
<linearGradient id="paint6_linear_56_129" x1="194.132" y1="-24.8841" x2="194.132" y2="86.2892" gradientUnits="userSpaceOnUse">
<stop stop-color="#E9CBA3"/>
<stop offset="0.15" stop-color="#EEDEBC"/>
<stop offset="0.39" stop-color="#C9A885"/>
<stop offset="0.63" stop-color="#9A7A5F"/>
<stop offset="0.86" stop-color="#C9A885"/>
<stop offset="1" stop-color="#C9A885"/>
</linearGradient>
<linearGradient id="paint7_linear_56_129" x1="197.313" y1="-22.2941" x2="197.313" y2="75.9738" gradientUnits="userSpaceOnUse">
<stop stop-color="#E9CBA3"/>
<stop offset="0.15" stop-color="#EEDEBC"/>
<stop offset="0.39" stop-color="#C9A885"/>
<stop offset="0.63" stop-color="#9A7A5F"/>
<stop offset="0.86" stop-color="#C9A885"/>
<stop offset="1" stop-color="#C9A885"/>
</linearGradient>
<linearGradient id="paint8_linear_56_129" x1="200.528" y1="-19.7152" x2="200.528" y2="66.2266" gradientUnits="userSpaceOnUse">
<stop stop-color="#E9CBA3"/>
<stop offset="0.15" stop-color="#EEDEBC"/>
<stop offset="0.39" stop-color="#C9A885"/>
<stop offset="0.63" stop-color="#9A7A5F"/>
<stop offset="0.86" stop-color="#C9A885"/>
<stop offset="1" stop-color="#C9A885"/>
</linearGradient>
<linearGradient id="paint9_linear_56_129" x1="203.612" y1="-17.1307" x2="203.612" y2="57.7574" gradientUnits="userSpaceOnUse">
<stop stop-color="#E9CBA3"/>
<stop offset="0.15" stop-color="#EEDEBC"/>
<stop offset="0.39" stop-color="#C9A885"/>
<stop offset="0.63" stop-color="#9A7A5F"/>
<stop offset="0.86" stop-color="#C9A885"/>
<stop offset="1" stop-color="#C9A885"/>
</linearGradient>
<linearGradient id="paint10_linear_56_129" x1="205.93" y1="-14.5461" x2="205.93" y2="52.6793" gradientUnits="userSpaceOnUse">
<stop stop-color="#E9CBA3"/>
<stop offset="0.15" stop-color="#EEDEBC"/>
<stop offset="0.39" stop-color="#C9A885"/>
<stop offset="0.63" stop-color="#9A7A5F"/>
<stop offset="0.86" stop-color="#C9A885"/>
<stop offset="1" stop-color="#C9A885"/>
</linearGradient>
<linearGradient id="paint11_linear_56_129" x1="204.965" y1="-14.3418" x2="204.965" y2="52.5087" gradientUnits="userSpaceOnUse">
<stop stop-color="#E9CBA3"/>
<stop offset="0.15" stop-color="#EEDEBC"/>
<stop offset="0.39" stop-color="#C9A885"/>
<stop offset="0.63" stop-color="#9A7A5F"/>
<stop offset="0.86" stop-color="#C9A885"/>
<stop offset="1" stop-color="#C9A885"/>
</linearGradient>
</defs>
</svg>
