<svg width="228" height="448" viewBox="0 0 228 448" fill="none" xmlns="http://www.w3.org/2000/svg">
<g opacity="0.2">
<path d="M79.241 367.939C71.318 361.676 63.5132 355.084 55.8266 348.163C12.6137 309.266 -5.21514 271.783 1.30806 233.545C6.9609 200.422 29.9312 171.813 50.2096 146.572C63.7405 129.721 76.5133 113.822 81.87 99.1467C99.6989 50.3394 92.4309 30.5858 88.0881 18.7822C85.5758 11.9449 83.9113 7.43161 89.0168 1.59034C94.0236 -4.12979 121.803 5.49349 176.443 31.8734C200.073 43.2823 212.608 59.4961 222.68 72.5245C227.727 79.0522 232.101 84.6961 236.87 88.4512C250.015 98.7923 254.735 100.192 265.071 103.256C273.69 105.818 286.714 109.685 312.125 121.125C334.453 131.179 364.319 153.203 390.066 178.609C404.719 193.06 417.608 208.076 428.376 223.231C440.431 240.199 449.533 256.964 455.424 273.07C466.344 302.9 466.191 329.962 454.913 353.502C443.822 376.692 427.344 396.352 405.93 411.942C384.665 427.429 359.622 438.111 331.497 443.692C290.554 451.817 244.95 448.407 199.597 433.822C175.429 426.051 151.274 415.114 127.815 401.313C110.878 391.315 94.6487 380.164 79.241 367.939ZM195.636 45.0903C189.553 40.285 182.958 36.1655 175.972 32.8066C151.126 20.81 132.18 12.4429 118.062 7.22075C97.6935 -0.302909 91.4395 0.37902 89.7974 2.28573C85.0957 7.66939 86.5044 11.4873 89.0617 18.4367C93.4538 30.375 100.803 50.3528 82.8436 99.5146C77.4285 114.32 64.6019 130.314 51.0216 147.232C30.8329 172.355 7.95239 200.875 2.34441 233.734C-4.11149 271.585 13.6142 308.768 56.5354 347.41C79.4967 368.078 103.642 385.921 128.349 400.443C151.75 414.207 175.833 425.118 199.929 432.862C245.103 447.384 290.527 450.807 331.295 442.691C359.272 437.142 384.176 426.518 405.32 411.125C426.59 395.607 442.943 376.091 453.957 353.058C465.088 329.778 465.245 302.99 454.406 273.429C448.546 257.413 439.488 240.728 427.487 223.837C416.751 208.731 403.902 193.778 389.295 179.35C363.628 154.029 333.879 132.081 311.654 122.077C286.31 110.663 273.322 106.823 264.73 104.252C254.264 101.148 249.477 99.7255 236.184 89.2632L236.116 89.2094C231.258 85.369 226.879 79.7072 221.814 73.1616C215.093 64.4266 207.228 54.256 195.636 45.0903Z" fill="url(#paint0_linear_56_142)"/>
<path d="M94.9792 356.328C88.5726 351.262 82.2498 345.96 76.0108 340.424C36.6832 305.673 19.8099 272.061 24.4174 237.686C28.4551 207.807 48.0472 181.642 65.3511 158.56C77.406 142.481 88.788 127.294 93.1667 113.122C107.774 68.1727 100.955 49.0248 96.8769 37.5845C94.4184 30.671 92.7898 26.1039 97.6665 20.3703C100.358 17.0863 109.529 17.8086 124.89 22.5193C138.708 26.7544 157.003 34.0627 177.793 43.6546C199.557 53.5919 211.369 67.8811 220.863 79.3797C225.452 84.9338 229.414 89.7298 233.721 93.1439C247.359 103.992 251.603 105.589 264.174 110.345C272.626 113.543 284.197 117.918 304.507 127.258C325.319 136.823 353.157 157.407 377.155 180.974C390.883 194.433 402.947 208.413 413.014 222.468C424.311 238.242 432.826 253.797 438.326 268.709C448.246 295.605 448.282 320.034 438.434 341.313C428.479 362.69 413.571 380.869 394.131 395.347C374.808 409.734 352.008 419.73 326.387 425.051C289.329 432.741 247.992 429.986 206.838 417.119C184.895 410.255 162.939 400.519 141.588 388.159C125.306 378.684 109.73 368.046 94.9792 356.328ZM197.785 56.9298C191.531 51.9835 184.699 47.8164 177.439 44.5205C133.472 24.2376 103.207 15.2154 98.4786 20.976C93.9563 26.2878 95.4278 30.3974 97.8595 37.2391C101.951 48.8095 108.842 68.1413 94.1492 113.413C89.7032 127.738 78.2719 142.992 66.1676 159.139C48.9355 182.127 29.3793 208.184 25.4178 237.812C20.8238 271.85 37.5894 305.179 76.6523 339.697C97.6082 358.294 119.623 374.305 142.082 387.298C163.374 399.613 185.263 409.326 207.134 416.172C248.131 429.003 289.302 431.736 326.198 424.082C351.703 418.788 374.373 408.828 393.579 394.548C412.871 380.192 427.676 362.111 437.582 340.886C447.317 319.85 447.268 295.673 437.443 269.028C430.179 249.351 413.719 218.184 376.509 181.651C352.565 158.156 324.852 137.64 304.139 128.129C283.856 118.797 272.285 114.427 263.869 111.237C251.531 106.572 246.91 104.817 233.151 93.8886C228.763 90.4117 224.77 85.5799 220.14 79.9809C214.223 72.8071 207.385 64.5118 197.785 56.9298Z" fill="url(#paint1_linear_56_142)"/>
<path d="M110.915 344.911C105.968 341.001 101.061 336.926 96.195 332.685C60.7257 302.057 44.8394 272.299 47.6344 241.724C50.075 215.075 66.3696 191.369 80.7484 170.458C91.251 155.177 101.17 140.744 104.562 127.065C115.993 86.0195 109.605 67.5087 105.787 56.4542C103.36 49.4151 101.749 44.7627 106.415 39.1188C112.525 31.2138 148.452 42.017 179.242 55.4044C199.265 63.8971 210.391 76.3424 219.333 86.3604C223.37 90.8962 226.892 94.8128 230.661 97.8276C246.09 110.232 249.504 111.762 268.459 120.282C275.592 123.49 284.475 127.483 296.983 133.378C309.774 139.398 325.696 149.977 341.784 163.145C359.9 177.95 376.652 194.787 390.237 211.786C406.303 231.899 417.447 251.536 423.36 270.145C430.242 291.823 429.807 311.662 422.054 329.105C413.234 348.675 399.901 365.373 382.426 378.747C365.041 392.018 344.489 401.322 321.317 406.374C288.14 413.629 251.069 411.547 214.093 400.362C178.529 389.617 143.89 370.985 110.915 344.911ZM200.293 68.9084C193.76 63.7352 186.557 59.4717 178.879 56.2344C142.212 40.2943 112.032 33.3314 107.128 39.6841C102.786 44.9467 104.239 49.1638 106.648 56.1491C110.502 67.3113 116.945 85.9881 105.441 127.294C102.014 141.121 92.0496 155.617 81.4976 170.969C67.1816 191.79 50.9588 215.384 48.5451 241.8C45.7726 272.07 61.5557 301.572 96.7917 331.999C134.029 364.458 173.581 387.181 214.362 399.505C251.182 410.645 288.1 412.718 321.138 405.499C344.171 400.465 364.606 391.21 381.879 378.002C399.232 364.722 412.471 348.141 421.229 328.71C428.883 311.478 429.304 291.859 422.494 270.387C416.617 251.885 405.527 232.347 389.528 212.32C375.993 195.375 359.29 178.6 341.223 163.818C325.18 150.695 309.334 140.161 296.606 134.167C284.107 128.277 275.229 124.297 268.095 121.081C249.055 112.521 245.627 110.977 230.105 98.5051C226.278 95.4454 222.751 91.5018 218.669 86.9347C213.631 81.3267 207.91 74.9247 200.293 68.9084Z" fill="url(#paint2_linear_56_142)"/>
<path d="M126.559 333.309C123.146 330.617 119.753 327.831 116.379 324.951C84.7368 298.396 69.8645 272.46 70.9143 245.676C71.8116 222.248 84.3017 201.93 96.3566 182.275C105.217 167.838 113.584 154.199 115.917 141.022C124.235 103.938 118.492 86.8001 114.692 75.4585C112.185 67.9797 110.655 63.4619 115.141 57.8764C120.525 50.4918 149.296 54.5654 180.642 67.1632C199.153 74.2561 209.687 84.9651 218.153 93.5655C221.392 96.8585 224.434 99.9676 227.574 102.484L229.145 103.763C247.211 118.492 248.687 119.694 289.424 139.466C300.877 145.015 315.732 154.939 330.173 166.685C346.773 180.202 362.184 195.451 374.696 210.786C389.564 229.005 399.986 246.766 405.652 263.568C412.279 283.169 412.265 301.106 405.612 316.875C397.931 334.637 386.172 349.864 370.663 362.129C355.23 374.337 336.912 382.96 316.221 387.769C286.925 394.579 254.111 393.153 221.329 383.664C188.736 374.22 156.9 357.302 126.559 333.309ZM203.5 81.1383C196.504 75.5765 188.691 71.1289 180.337 67.9528C149.83 55.696 120.87 51.407 115.796 58.3878C111.619 63.6279 113.077 67.9797 115.495 75.1893C119.085 85.9252 125.114 103.902 116.752 141.188C114.392 154.509 105.984 168.21 97.0834 182.719C85.0778 202.28 72.6685 222.504 71.7578 245.708C70.7214 272.231 85.4951 297.925 116.927 324.305C150.229 352.681 185.42 372.376 221.563 382.847C254.205 392.305 286.871 393.722 316.023 386.943C336.593 382.165 354.799 373.592 370.129 361.465C385.531 349.285 397.204 334.17 404.827 316.539C411.399 300.971 411.404 283.241 404.827 263.842C399.178 247.134 388.81 229.463 374.005 211.32C361.529 196.03 346.19 180.812 329.59 167.353C315.198 155.644 300.402 145.76 289.006 140.237C248.18 120.421 246.695 119.214 228.561 104.432L226.991 103.153C223.851 100.605 220.764 97.4777 217.507 94.1802C213.545 90.0841 209.072 85.5439 203.5 81.1383Z" fill="url(#paint3_linear_56_142)"/>
<path d="M142.153 321.73C140.287 320.252 138.428 318.746 136.577 317.212C74.1442 266.718 94.4048 228.072 112.274 193.975C119.371 180.435 126.074 167.649 127.285 154.984C132.575 121.96 127.205 105.54 123.651 94.6738C121.108 86.8944 119.573 82.1971 123.84 76.634C126.343 72.9686 133.862 71.0036 144.446 71.2503C155.662 71.524 169.04 74.2428 182.06 78.9086C199.588 84.7005 209.305 93.5432 217.879 101.341C220.154 103.409 222.303 105.378 224.483 107.146C227.749 109.838 230.544 112.26 233.007 114.396C244.398 124.243 251.276 130.183 281.864 145.563C301.388 155.348 333.906 179.623 359.164 209.79C372.834 226.12 382.529 242.002 387.976 256.996C394.346 274.519 394.759 290.549 389.2 304.645C382.677 320.587 372.272 334.644 358.931 345.539C345.445 356.665 329.361 364.615 311.137 369.173C285.718 375.53 257.166 374.759 228.588 366.93C198.924 358.863 169.884 343.659 142.153 321.73ZM207.856 93.7092C200.094 87.4901 191.266 82.7322 181.804 79.6668C153.818 69.6397 129.143 70.2678 124.464 77.0961C120.426 82.3497 121.929 86.8944 124.392 94.4315C127.981 105.369 133.364 121.897 128.057 155.083C126.832 167.874 120.094 180.727 112.96 194.339C103.907 211.607 94.5662 229.467 95.0642 249.49C95.6519 272.272 109.389 294.224 137.066 316.606C166.38 340.904 197.246 357.594 228.776 366.208C257.242 373.987 285.655 374.732 310.94 368.428C329.051 363.902 345.036 356.001 358.428 344.951C371.675 334.141 382.008 320.19 388.487 304.367C395.616 286.283 396.222 255.277 358.572 210.315C333.385 180.229 300.98 156.03 281.527 146.281C250.849 130.861 243.945 124.894 232.509 115.006C230.046 112.875 227.251 110.466 223.985 107.77C221.791 105.975 219.633 104.01 217.354 101.937C214.406 99.2588 211.329 96.4638 207.847 93.7092H207.856Z" fill="url(#paint4_linear_56_142)"/>
<path d="M154.715 307.884C131.897 289.845 119.793 271.926 117.747 253.151C115.885 236.102 122.319 220.517 128.541 205.451C133.728 192.889 138.627 181.045 138.64 168.923C141.041 140.116 136.016 124.508 132.687 114.189C130.035 105.952 128.434 100.977 132.539 95.378C137.617 87.4775 160.48 83.7717 183.455 90.6673C201.665 95.3825 211.158 103.296 220.337 110.95L221.378 111.821C225.788 115.535 229.279 118.891 232.657 122.139C241.715 130.843 250.271 139.066 274.3 151.678C291.823 160.839 320.994 182.634 343.623 208.816C362.695 230.885 383.233 263.308 372.785 292.429C362.017 320.778 337.679 341.994 306.041 350.649C284.506 356.544 260.203 356.414 235.793 350.272C209.108 343.542 182.827 330.083 157.658 310.168C157.362 309.93 157.066 309.692 156.761 309.459L154.715 307.884ZM214.312 106.971C206.649 100.91 197.713 95.1268 183.257 91.3806C158.699 84.005 137.496 88.9894 133.131 95.8042C129.232 101.125 130.794 105.966 133.373 113.987C136.72 124.364 141.772 140.053 139.363 168.973C139.363 181.207 134.428 193.127 129.21 205.761C123.023 220.741 116.621 236.228 118.465 253.106C120.551 272.204 133.216 290.45 157.201 308.921L158.098 309.63C183.19 329.468 209.377 342.91 235.968 349.603C260.253 355.714 284.421 355.848 305.848 349.985C321.505 345.7 335.261 338.468 346.723 328.486C358.066 318.692 366.788 306.225 372.103 292.213C382.421 263.424 362.031 231.244 343.085 209.319C320.518 183.199 291.442 161.476 273.994 152.342C249.876 139.685 241.284 131.426 232.19 122.687C228.821 119.447 225.335 116.096 220.948 112.399L219.907 111.533C218.054 110.008 216.223 108.478 214.312 106.971Z" fill="url(#paint5_linear_56_142)"/>
<path d="M170.745 297.072C154.051 283.878 144.401 270.603 141.306 256.569C138.21 242.536 141.804 229.404 145.258 216.618C148.215 205.698 151.265 194.401 150.005 182.903C149.749 158.569 145.029 143.97 141.929 134.311C139.027 125.338 137.272 119.896 141.27 114.158C145.877 106.531 165.164 98.1596 184.873 102.449C199.355 104.719 209.36 108.927 218.305 116.518C223.025 120.583 226.722 124.593 230.634 128.846C238.902 137.819 247.453 147.115 266.758 157.806C282.366 166.411 308.221 185.738 328.105 207.856C345.337 227.022 364.229 255.134 356.369 280.235C347.877 305.098 327.656 324.049 300.94 332.237C283.255 337.652 263.219 338.141 242.994 333.654C220.629 328.688 198.413 317.952 176.963 301.738C174.786 300.186 172.713 298.631 170.745 297.072ZM216.246 115.697C207.798 109.021 198.233 105.212 184.729 103.095C165.285 98.864 146.321 107.034 141.799 114.517C137.977 120.004 139.596 125.015 142.535 134.104C145.675 143.804 150.408 158.466 150.664 182.862C151.934 194.455 148.87 205.81 145.895 216.793C142.459 229.498 138.91 242.644 141.952 256.43C145.37 271.922 156.945 286.565 177.331 301.209C198.709 317.36 220.849 328.064 243.115 333.008C263.228 337.472 283.147 336.988 300.725 331.604C327.253 323.479 347.298 304.686 355.719 280.011C363.489 255.214 344.714 227.314 327.598 208.278C307.764 186.223 281.981 166.945 266.422 158.367C247.023 147.622 238.436 138.295 230.132 129.277C226.233 125.042 222.55 121.04 217.857 116.998C217.323 116.554 216.789 116.128 216.246 115.697Z" fill="url(#paint6_linear_56_142)"/>
<path d="M186.336 286.323C159.444 265.062 160.898 246.551 162.423 227.071C163.177 217.466 163.953 207.533 161.378 196.86C158.901 177.506 154.648 164.818 151.539 155.558C147.95 144.872 145.976 138.986 149.956 132.92C152.369 128.667 157.721 123.741 163.913 120.089C171.4 115.67 179.328 113.584 186.237 114.212C198.072 114.212 207.731 114.719 215.192 121.193C219.862 125.32 223.761 130.121 227.884 135.199C235.331 144.369 243.77 154.764 259.181 163.912C269.872 170.224 293.143 186.375 312.569 206.869C322.668 217.533 330.187 227.785 334.925 237.341C340.519 248.628 342.21 258.947 339.94 268.01C333.772 289.45 317.692 306.193 295.826 313.955C281.985 318.89 266.216 319.948 250.154 317.095C232.415 313.923 214.582 306.157 197.148 294.008C193.106 291.402 189.521 288.831 186.336 286.323ZM213.963 120.951C206.785 115.266 197.502 114.804 186.21 114.804C170.413 113.369 154.545 126.02 150.462 133.23C146.636 139.062 148.578 144.858 152.104 155.366C155.218 164.652 159.489 177.371 161.975 196.752C164.572 207.484 163.769 217.466 163.033 227.121C162.167 238.126 161.355 248.521 165.451 259.333C170.072 271.518 180.257 282.379 197.475 293.506C214.847 305.619 232.604 313.349 250.253 316.503C266.193 319.352 281.882 318.297 295.624 313.403C317.306 305.704 333.247 289.109 339.362 267.862C341.605 258.952 339.918 248.772 334.386 237.614C329.675 228.112 322.188 217.91 312.129 207.286C292.77 186.842 269.553 170.731 258.889 164.437C243.389 155.226 234.914 144.791 227.435 135.581C223.326 130.52 219.445 125.737 214.811 121.641C214.523 121.404 214.245 121.17 213.963 120.951Z" fill="url(#paint7_linear_56_142)"/>
<path d="M201.028 275.82C184.783 262.98 182.378 250.598 179.494 235.752C177.986 228 176.429 219.987 172.764 210.84C169.085 197.614 165.384 187.703 162.41 179.735C157.309 166.07 154.5 158.542 158.677 151.7C162.921 143.741 176.174 127.474 187.605 126.007C188.377 125.796 189.148 125.558 189.92 125.361C197.995 123.086 206.354 120.735 212.11 125.894C216.551 129.955 220.602 135.612 224.891 141.597C231.832 151.287 239.696 162.27 251.63 170.054C264.573 178.443 328.877 221.993 323.507 255.815C319.742 273.954 307.804 288.602 290.756 296.013C280.581 300.437 269.315 302.012 257.279 300.697C244.156 299.262 230.719 294.416 217.35 286.287C211.616 283.278 206.155 279.776 201.028 275.82ZM211.208 125.841C205.681 121.471 197.749 123.71 190.05 125.872L187.713 126.527H187.677C176.461 127.967 163.338 144.064 159.125 151.96C155.088 158.596 157.856 166.034 162.899 179.547C165.873 187.519 169.579 197.443 173.253 210.665C176.941 219.83 178.502 227.87 180.014 235.645C183.648 254.326 186.519 269.082 217.592 285.825C230.917 293.9 244.277 298.737 257.323 300.181C269.266 301.491 280.442 299.93 290.523 295.542C307.414 288.198 319.235 273.689 322.968 255.735C325.108 242.276 316.239 225.631 296.633 206.317C279.369 189.318 259.199 175.621 251.321 170.52C239.306 162.678 231.41 151.678 224.443 141.924C220.167 135.962 216.134 130.327 211.728 126.303C211.567 126.11 211.387 125.975 211.208 125.818V125.841Z" fill="url(#paint8_linear_56_142)"/>
<path d="M212.931 265.726C203.33 258.135 198.072 248.943 190.804 236.233C188.736 232.644 186.6 228.888 184.128 224.761C182.576 221.522 181.113 218.48 179.736 215.64C167.757 190.839 162.288 179.516 167.376 170.44C170.857 163.477 181.459 142.279 188.911 137.792C195.64 131.96 203.967 125.868 208.983 130.551C213.128 134.499 217.363 141.207 221.85 148.304C228.18 158.318 235.354 169.664 244.044 176.156C245.699 177.38 247.709 178.825 250.033 180.489C259.553 187.327 273.945 197.654 285.825 208.938C300.074 222.433 307.203 234.097 307.073 243.568C305.938 258.404 298.019 271.536 285.893 278.71C272.434 286.66 255.269 286.601 237.529 278.535C226.61 274.578 218.924 270.464 212.931 265.726ZM208.301 130.565C203.505 126.774 195.618 132.597 189.229 138.16L189.193 138.187C181.836 142.579 171.248 163.715 167.789 170.66C162.818 179.534 168.237 190.786 180.162 215.438C181.538 218.286 182.998 221.318 184.541 224.537C187.008 228.651 189.144 232.388 191.212 235.999C202.957 256.538 209.431 267.853 237.704 278.1C255.318 286.103 272.344 286.175 285.655 278.306C297.647 271.213 305.48 258.216 306.602 243.545C306.732 234.218 299.639 222.684 285.516 209.278C273.654 198.018 259.284 187.699 249.768 180.875C247.444 179.206 245.435 177.762 243.775 176.532C235.013 169.987 227.817 158.587 221.468 148.555C216.982 141.48 212.774 134.8 208.673 130.892C208.552 130.776 208.431 130.668 208.301 130.565Z" fill="url(#paint9_linear_56_142)"/>
<path d="M212.226 255.156C206.64 250.742 201.1 245.286 195.505 238.696C176.824 214.061 171.019 199.26 176.084 189.197C178.296 184.487 181.584 174.706 184.487 166.079C186.784 159.246 188.973 152.795 190.319 149.641C191.216 146.756 193.15 143.248 195.465 140.273C198 137.016 200.552 134.939 202.643 134.419C203.209 134.243 203.812 134.225 204.388 134.369C204.963 134.512 205.487 134.81 205.905 135.231C209.759 139.107 214.339 147.344 219.189 156.052C224.949 166.407 230.907 177.116 236.506 182.275C239.557 185.07 244.905 188.843 251.096 193.208C266.466 204.043 287.512 218.884 290.63 231.342C292.77 243.326 289.567 255.488 282.272 263.097C276.148 269.49 267.669 272.16 257.754 270.827C245.43 270.603 235.38 268.431 226.152 263.999C221.198 261.574 216.527 258.609 212.226 255.156ZM205.357 135.285C204.991 135.003 204.563 134.814 204.109 134.732C203.655 134.65 203.188 134.678 202.746 134.813C198.457 135.872 192.54 143.93 190.696 149.785C189.35 152.925 187.165 159.385 184.864 166.209C181.956 174.85 178.663 184.639 176.443 189.377C171.454 199.287 177.25 213.958 195.815 238.44C205.968 250.387 215.945 258.629 226.322 263.613C235.501 268.019 245.497 270.177 257.781 270.401C267.583 271.72 275.942 269.091 281.976 262.796C289.154 255.277 292.339 243.249 290.226 231.392C287.149 219.113 266.175 204.321 250.858 193.522C244.654 189.148 239.297 185.371 236.224 182.558C230.58 177.353 224.604 166.617 218.826 156.231C213.989 147.541 209.404 139.336 205.613 135.5C205.533 135.423 205.447 135.351 205.357 135.285Z" fill="url(#paint10_linear_56_142)"/>
</g>
<defs>
<linearGradient id="paint0_linear_56_142" x1="231.733" y1="0.00216396" x2="231.733" y2="448.003" gradientUnits="userSpaceOnUse">
<stop stop-color="#E9CBA3"/>
<stop offset="0.15" stop-color="#EEDEBC"/>
<stop offset="0.39" stop-color="#C9A885"/>
<stop offset="0.63" stop-color="#9A7A5F"/>
<stop offset="0.86" stop-color="#C9A885"/>
<stop offset="1" stop-color="#C9A885"/>
</linearGradient>
<linearGradient id="paint1_linear_56_142" x1="234.757" y1="18.3335" x2="234.757" y2="429.3" gradientUnits="userSpaceOnUse">
<stop stop-color="#E9CBA3"/>
<stop offset="0.15" stop-color="#EEDEBC"/>
<stop offset="0.39" stop-color="#C9A885"/>
<stop offset="0.63" stop-color="#9A7A5F"/>
<stop offset="0.86" stop-color="#C9A885"/>
<stop offset="1" stop-color="#C9A885"/>
</linearGradient>
<linearGradient id="paint2_linear_56_142" x1="237.763" y1="36.4315" x2="237.763" y2="410.632" gradientUnits="userSpaceOnUse">
<stop stop-color="#E9CBA3"/>
<stop offset="0.15" stop-color="#EEDEBC"/>
<stop offset="0.39" stop-color="#C9A885"/>
<stop offset="0.63" stop-color="#9A7A5F"/>
<stop offset="0.86" stop-color="#C9A885"/>
<stop offset="1" stop-color="#C9A885"/>
</linearGradient>
<linearGradient id="paint3_linear_56_142" x1="240.742" y1="54.202" x2="240.742" y2="392.009" gradientUnits="userSpaceOnUse">
<stop stop-color="#E9CBA3"/>
<stop offset="0.15" stop-color="#EEDEBC"/>
<stop offset="0.39" stop-color="#C9A885"/>
<stop offset="0.63" stop-color="#9A7A5F"/>
<stop offset="0.86" stop-color="#C9A885"/>
<stop offset="1" stop-color="#C9A885"/>
</linearGradient>
<linearGradient id="paint4_linear_56_142" x1="243.68" y1="71.2414" x2="243.68" y2="373.453" gradientUnits="userSpaceOnUse">
<stop stop-color="#E9CBA3"/>
<stop offset="0.15" stop-color="#EEDEBC"/>
<stop offset="0.39" stop-color="#C9A885"/>
<stop offset="0.63" stop-color="#9A7A5F"/>
<stop offset="0.86" stop-color="#C9A885"/>
<stop offset="1" stop-color="#C9A885"/>
</linearGradient>
<linearGradient id="paint5_linear_56_142" x1="246.511" y1="87.0602" x2="246.511" y2="354.996" gradientUnits="userSpaceOnUse">
<stop stop-color="#E9CBA3"/>
<stop offset="0.15" stop-color="#EEDEBC"/>
<stop offset="0.39" stop-color="#C9A885"/>
<stop offset="0.63" stop-color="#9A7A5F"/>
<stop offset="0.86" stop-color="#C9A885"/>
<stop offset="1" stop-color="#C9A885"/>
</linearGradient>
<linearGradient id="paint6_linear_56_142" x1="248.548" y1="101.282" x2="248.548" y2="336.692" gradientUnits="userSpaceOnUse">
<stop stop-color="#E9CBA3"/>
<stop offset="0.15" stop-color="#EEDEBC"/>
<stop offset="0.39" stop-color="#C9A885"/>
<stop offset="0.63" stop-color="#9A7A5F"/>
<stop offset="0.86" stop-color="#C9A885"/>
<stop offset="1" stop-color="#C9A885"/>
</linearGradient>
<linearGradient id="paint7_linear_56_142" x1="244.327" y1="114.1" x2="244.327" y2="318.656" gradientUnits="userSpaceOnUse">
<stop stop-color="#E9CBA3"/>
<stop offset="0.15" stop-color="#EEDEBC"/>
<stop offset="0.39" stop-color="#C9A885"/>
<stop offset="0.63" stop-color="#9A7A5F"/>
<stop offset="0.86" stop-color="#C9A885"/>
<stop offset="1" stop-color="#C9A885"/>
</linearGradient>
<linearGradient id="paint8_linear_56_142" x1="240.226" y1="122.776" x2="240.226" y2="301.128" gradientUnits="userSpaceOnUse">
<stop stop-color="#E9CBA3"/>
<stop offset="0.15" stop-color="#EEDEBC"/>
<stop offset="0.39" stop-color="#C9A885"/>
<stop offset="0.63" stop-color="#9A7A5F"/>
<stop offset="0.86" stop-color="#C9A885"/>
<stop offset="1" stop-color="#C9A885"/>
</linearGradient>
<linearGradient id="paint9_linear_56_142" x1="236.273" y1="128.887" x2="236.273" y2="284.628" gradientUnits="userSpaceOnUse">
<stop stop-color="#E9CBA3"/>
<stop offset="0.15" stop-color="#EEDEBC"/>
<stop offset="0.39" stop-color="#C9A885"/>
<stop offset="0.63" stop-color="#9A7A5F"/>
<stop offset="0.86" stop-color="#C9A885"/>
<stop offset="1" stop-color="#C9A885"/>
</linearGradient>
<linearGradient id="paint10_linear_56_142" x1="232.81" y1="134.289" x2="232.81" y2="271.141" gradientUnits="userSpaceOnUse">
<stop stop-color="#E9CBA3"/>
<stop offset="0.15" stop-color="#EEDEBC"/>
<stop offset="0.39" stop-color="#C9A885"/>
<stop offset="0.63" stop-color="#9A7A5F"/>
<stop offset="0.86" stop-color="#C9A885"/>
<stop offset="1" stop-color="#C9A885"/>
</linearGradient>
</defs>
</svg>
