<svg width="295" height="129" viewBox="0 0 295 129" fill="none" xmlns="http://www.w3.org/2000/svg">
<g opacity="0.4">
<path d="M32.0054 56.512C28.3903 53.6612 26.8367 51.4338 26.3892 49.7294C23.8753 40.0959 7.42907 29.9145 -8.4691 20.0648C-26.7807 8.73197 -44.0766 -1.97743 -44.0967 -12.9181C-44.0967 -17.5739 -40.9995 -21.7722 -34.6091 -25.7543C-15.5031 -37.6704 20.2452 -40.5966 46.8427 -40.9586C79.6899 -41.4011 110.088 -38.1983 122.502 -35.9307C159.975 -29.1029 192.893 -22.9136 216.021 -16.3471C240.472 -9.40865 253.489 -2.32938 258.255 6.6102C261.026 11.8191 260.93 17.6364 257.969 24.3788C253.846 33.7658 253.539 42.6048 256.993 52.1981C260.131 60.9063 266.109 69.499 272.439 78.5945C280.096 89.5955 288.775 102.065 294.18 117.309C295.09 119.863 294.773 122.015 293.249 123.705C289.383 127.983 277.547 129.09 258.054 126.983C240.959 125.133 218.158 120.804 192.189 114.458C155.43 105.479 114.684 93.0094 83.2144 81.1134C53.7912 69.9817 39.0143 62.0577 32.0054 56.512ZM15.2977 34.5552C21.5876 39.5278 26.2233 44.5104 27.5155 49.4377C29.2401 56.0494 49.6935 67.2013 83.6267 80.0324C115.051 91.9133 155.752 104.362 192.49 113.337C248.189 126.943 285.542 130.527 292.405 122.93C293.637 121.563 293.868 119.853 293.104 117.701C287.744 102.618 279.116 90.2038 271.484 79.2581C258.693 60.8812 247.646 45.0082 256.903 23.9212C259.713 17.5207 259.824 12.0353 257.23 7.16327C247.516 -11.1232 199.63 -20.6912 122.301 -34.7794C109.928 -37.0369 79.6295 -40.2296 46.8829 -39.8072C20.406 -39.4352 -15.0908 -36.5341 -33.9957 -24.7739C-40.0291 -21.0231 -42.9403 -17.1466 -42.9353 -12.9231C-42.9353 -2.63105 -25.0963 8.40516 -7.86073 19.0743C0.364891 24.1776 8.7313 29.3564 15.2977 34.5552Z" fill="url(#paint0_linear_56_119)"/>
<path d="M36.4953 55.1696C33.7199 52.9774 32.0003 50.9663 31.5026 49.1864C29.0992 40.4278 14.1161 31.1313 -0.369202 22.1414C-17.2076 11.6934 -33.1108 1.82874 -33.146 -8.2572C-33.146 -12.5209 -30.3555 -16.3672 -24.5634 -20.0174C-14.5629 -26.5285 2.03916 -31.4358 23.4429 -34.2011C42.8258 -36.5946 62.3869 -37.2106 81.882 -36.0413C101.591 -34.6234 116.75 -32.4816 120.929 -31.8581C158.497 -25.1258 185.788 -19.7912 205.814 -13.9739C227.635 -7.679 239.823 -0.89135 244.212 7.30913C246.842 12.2415 246.767 17.7269 243.981 24.0872C240.205 32.71 239.893 40.8351 243.016 49.659C245.856 57.6835 251.266 65.5622 256.998 73.9236C263.902 83.9794 271.73 95.3927 276.607 109.295C277.411 111.753 277.054 113.82 275.556 115.434C265.5 126.314 205.93 113.312 180.791 107.218C121.949 92.9541 55.2392 69.9667 36.4953 55.1696ZM21.3714 35.3446C27.0931 39.8697 31.3266 44.3948 32.5584 48.8696C36.1835 61.9421 113.935 89.8871 181.032 106.157C233 118.757 268.014 121.945 274.742 114.705C275.968 113.382 276.25 111.728 275.561 109.677C270.745 95.8955 262.951 84.5475 256.098 74.542C244.504 57.6332 234.478 43.0323 242.986 23.6498C245.625 17.6163 245.716 12.4376 243.247 7.82198C234.091 -9.33317 188.8 -18.6146 120.753 -30.8073C116.6 -31.4257 101.471 -33.5626 81.8116 -34.9804C62.3869 -36.1439 42.8965 -35.5296 23.5836 -33.1452C2.34083 -30.4 -14.1255 -25.5531 -23.9751 -19.1225C-29.4254 -15.6884 -32.07 -12.1438 -32.0549 -8.28737C-32.0198 1.19522 -15.6389 11.3616 0.203976 21.1911C7.71564 25.852 15.3631 30.5933 21.3714 35.3446Z" fill="url(#paint1_linear_56_119)"/>
<path d="M41.1209 53.9679C38.6623 52.0221 37.0986 50.2121 36.5958 48.5881C34.3031 40.7044 20.7831 32.2927 7.70556 24.1626C-7.62949 14.6046 -22.1299 5.57954 -22.1953 -3.65669C-22.2204 -7.53319 -19.7065 -11.0276 -14.5177 -14.341C-5.4675 -20.5504 10.1189 -25.7643 29.3908 -29.0123C47.2801 -32.0291 66.8335 -33.0899 83.0233 -31.9184C93.8383 -30.9129 103.587 -29.7313 111.421 -28.7861C114.463 -28.419 117.092 -28.0972 119.335 -27.8459C147.129 -22.9688 175.572 -17.6342 195.573 -11.6611C215.101 -5.83377 226.087 0.405846 230.149 7.98287C232.663 12.6387 232.593 17.8124 229.983 23.7905C222.467 40.9557 231.311 54.0685 241.548 69.2527C247.697 78.3733 254.665 88.7156 258.989 101.275C260.498 106.424 256.475 108.787 252.85 109.858C233.744 115.509 176.763 102.985 133.76 90.5458C94.7986 79.3034 54.5454 64.5768 41.1209 53.9679ZM27.5758 36.2044C32.6992 40.2569 36.4248 44.249 37.5963 48.3015C40.1606 56.9143 79.8306 73.8884 134.041 89.5704C159.422 96.901 184.662 102.935 205.131 106.454C228.088 110.436 244.499 111.281 252.584 108.888C257.29 107.495 259.075 105.107 258.039 101.587C253.77 89.1782 246.842 78.8962 240.728 69.8259C230.295 54.3953 221.31 41.0915 229.048 23.3833C231.527 17.7118 231.592 12.8247 229.249 8.47058C221.25 -6.43711 185.909 -15.1152 119.189 -26.8302C116.977 -27.0816 114.347 -27.3984 111.3 -27.7654C103.472 -28.7157 93.7277 -29.8922 82.9429 -30.8978C66.8536 -32.0642 47.3756 -31.0084 29.5618 -28.0017C10.4558 -24.7788 -5.00493 -19.6202 -13.9546 -13.4862C-18.8417 -10.3639 -21.1998 -7.15107 -21.1746 -3.65669C-21.1294 5.01139 -6.18146 14.308 8.26869 23.2978C15.348 27.6972 22.2261 31.9759 27.5758 36.2044Z" fill="url(#paint2_linear_56_119)"/>
<path d="M45.641 52.6557C43.5996 51.0468 42.1969 49.4831 41.7343 48.0451C39.5572 41.0312 27.5004 33.5095 15.8407 26.2341C2.557 17.9281 -11.1742 9.36055 -11.2496 0.979065C-11.2797 -2.50526 -9.06244 -5.64769 -4.47198 -8.6242C12.6228 -21.1135 54.8923 -30.2441 84.1697 -27.7553C88.9361 -27.1922 93.4562 -26.619 97.8254 -26.0609C105.87 -25.0553 112.788 -24.1604 117.746 -23.7984H117.791C150.286 -18.2375 170.483 -13.9085 185.326 -9.33313C202.561 -4.01865 212.331 1.688 216.081 8.63151C218.454 13.0309 218.424 17.8878 215.981 23.4939C209.208 38.9999 217.032 50.8557 226.092 64.5869C231.487 72.7672 237.606 82.0437 241.382 93.2458C242.417 97.2681 240.296 100.038 235.092 101.542C227.349 103.784 212.305 103.146 191.595 99.6966C173.299 96.6497 150.759 91.4207 128.123 84.9749C106.031 78.7001 85.321 71.6862 69.815 65.2254C61.1671 61.6506 51.1163 56.9595 45.641 52.6557ZM33.6444 36.9988C38.2047 40.5888 41.5282 44.1586 42.6393 47.7334C43.8812 51.5948 53.6655 57.5026 70.177 64.3656C85.6529 70.7963 106.323 77.7951 128.385 84.08C166.446 94.9201 217.162 105.76 234.83 100.672C239.511 99.3145 241.367 96.9866 240.472 93.5525C236.746 82.4912 230.662 73.27 225.297 65.1349C216.086 51.1473 208.147 39.0804 215.111 23.1219C217.429 17.8024 217.474 13.2119 215.247 9.08904C207.644 -4.95385 173.721 -13.2549 117.645 -22.8531C112.668 -23.2202 105.729 -24.1 97.6997 -25.1207C93.3305 -25.6738 88.8154 -26.2469 84.0691 -26.8101C54.9928 -29.2737 13.0401 -20.2336 -3.91891 -7.84488C-8.23787 -5.04435 -10.3144 -2.16337 -10.2842 0.974035C-10.2138 8.82759 3.29107 17.2543 16.3636 25.4045C22.6836 29.3615 28.8428 33.2028 33.6444 36.9988Z" fill="url(#paint3_linear_56_119)"/>
<path d="M50.2162 51.3785C48.4866 50.0109 47.285 48.6836 46.8526 47.4517C44.7861 41.3076 34.1823 34.6759 23.9506 28.2653C12.0747 20.8291 -0.183299 13.1414 -0.303968 5.60965C-0.339164 2.5175 1.58149 -0.272974 5.57363 -2.93775C12.7685 -8.60921 26.1276 -14.4667 41.2716 -18.5896C57.3609 -22.9739 73.4501 -24.8091 85.3008 -23.6175L88.6796 -23.1147C99.4091 -21.5007 109.545 -19.9722 116.142 -19.7711H116.202C171.569 -10.6103 195.643 -2.48022 201.998 9.2247C204.256 13.3677 204.251 17.933 201.998 23.1821C195.965 37.0239 202.772 47.6227 210.646 59.8857C215.292 67.1258 220.561 75.3364 223.794 85.2112V85.2564C224.619 89.1078 222.431 91.7927 217.293 93.2457C200.701 97.9267 157.461 89.1681 122.497 79.4039C103.25 74.0342 85.155 67.9906 71.5445 62.3896C63.9223 59.2924 55.033 55.1695 50.2162 51.3785ZM39.713 37.7982C43.6951 40.9456 46.6314 44.0529 47.6772 47.1651C50.0503 53.8975 81.6154 67.1208 122.728 78.5995C142.543 84.1302 162.308 88.5798 178.387 91.1189C196.563 93.9949 209.932 94.4524 217.047 92.4413C221.717 91.124 223.643 88.8513 222.929 85.5028C219.731 75.7436 214.502 67.5934 209.887 60.4036C201.872 47.9143 194.954 37.1295 201.168 22.8553C203.33 17.8777 203.351 13.5638 201.234 9.67219C194.054 -3.51093 162.016 -11.274 116.092 -18.8711C109.44 -19.0823 99.2934 -20.6057 88.5539 -22.2247L85.1952 -22.7275C73.4551 -23.904 57.5419 -22.0789 41.5079 -17.6996C26.4595 -13.6069 13.216 -7.80978 6.08647 -2.18357C2.33064 0.300205 0.5558 2.84431 0.5558 5.61971C0.646302 12.6587 12.7233 20.2257 24.398 27.5413C30.0192 31.0357 35.4644 34.4345 39.713 37.7982Z" fill="url(#paint4_linear_56_119)"/>
<path d="M54.7968 50.1417C53.3236 48.9752 52.3431 47.8792 51.9459 46.8685C50.0002 41.5993 40.8846 35.8575 32.0506 30.3067C21.6127 23.7352 10.7625 16.9224 10.6469 10.2454C10.5966 7.54041 12.2206 5.10691 15.5993 2.80414C27.8624 -7.82984 63.7866 -22.1643 86.4724 -19.4443C96.8148 -17.4884 107.479 -15.5879 114.578 -15.7035H114.629C160.121 -8.51363 182.043 -0.8813 187.925 9.80296C190.077 13.7147 190.097 17.9984 187.975 22.9107C182.691 35.0882 188.478 44.435 195.165 55.2601C199.062 61.56 203.476 68.6996 206.171 77.2319V77.2873C206.79 81.028 204.517 83.6375 199.419 85.0453C184.174 89.2436 146.782 82.0285 116.871 73.9135C91.6964 67.0656 63.8922 57.3316 54.7968 50.1417ZM45.7818 38.5776C49.1907 41.2725 51.7247 43.9272 52.7052 46.5719C55.0029 52.4294 82.0781 63.5913 117.062 73.1091C146.908 81.2442 184.134 88.4291 199.218 84.271C203.904 82.9788 205.925 80.7515 205.397 77.4532C202.732 69.0264 198.358 61.9421 194.482 55.6875C187.669 44.6714 181.781 35.1586 187.241 22.5939C189.253 17.928 189.253 13.8755 187.241 10.1951C181.494 -0.242756 159.759 -7.74437 114.563 -14.894C107.388 -14.7834 96.6941 -16.689 86.3518 -18.6448C63.9023 -21.3398 28.2696 -7.11085 16.1323 3.43263L16.0971 3.45777C12.9446 5.60468 11.4312 7.81695 11.4765 10.2303C11.5569 16.4549 22.211 23.1621 32.5031 29.638C37.3701 32.7 42.1013 35.6765 45.8019 38.6027L45.7818 38.5776Z" fill="url(#paint5_linear_56_119)"/>
<path d="M59.4124 48.9299C58.4469 48.2498 57.6504 47.357 57.0845 46.3204C55.2644 41.921 47.6069 37.0691 40.2159 32.3932C31.1406 26.6463 21.7535 20.7084 21.6127 14.876C21.5524 12.5984 22.915 10.4615 25.6351 8.51575C35.6054 -1.29868 68.5782 -18.0818 87.5937 -15.2863C95.0551 -13.4913 105.764 -11.1684 112.969 -11.6561H113.05C149.15 -6.30646 168.467 0.657162 173.832 10.2705C175.873 13.9258 175.924 18.0838 173.978 22.619C169.428 33.1373 174.184 41.2222 179.695 50.6042C182.842 55.9589 186.412 62.0326 188.569 69.2074V69.2727C188.956 72.933 186.558 75.4771 181.489 76.8498C175.28 78.524 165.219 78.4486 151.584 76.6285C139.678 75.0397 125.74 72.1939 111.29 68.4029C90.3238 62.9125 67.0196 54.9483 59.4124 48.9299ZM51.9007 39.4171C54.7264 41.6545 56.8633 43.8517 57.7632 46.0288C59.9906 51.0014 82.5859 60.1069 111.491 67.704C149.291 77.619 172.329 78.5693 181.314 76.1509C185.979 74.8939 188.177 72.6314 187.85 69.4035C185.718 62.3091 182.319 56.5471 179.056 50.9763C173.45 41.4233 168.603 33.1926 173.299 22.3173C175.174 17.943 175.139 14.1168 173.188 10.6224C167.944 1.23034 148.813 -5.61764 112.979 -10.9271C105.674 -10.4243 94.9143 -12.7723 87.4529 -14.5723C68.6687 -17.3326 35.9824 -0.670197 26.1127 9.05876L26.0675 9.09899C23.4831 10.9191 22.2563 12.7995 22.3066 14.8509C22.4423 20.2911 31.6585 26.1234 40.5729 31.7647C44.741 34.3842 48.7633 36.9283 51.9007 39.4171Z" fill="url(#paint6_linear_56_119)"/>
<path d="M38.6421 27.848C35.1225 25.0726 32.6086 22.2771 32.5382 19.5067C32.4678 17.6212 33.5438 15.8464 35.6756 14.2325C43.4186 5.137 73.0077 -14.0494 88.7449 -11.1282H88.7852C98.4236 -8.11148 106.031 -6.95004 111.411 -7.60869H111.496C138.712 -3.9685 154.942 2.15044 159.764 10.5822C161.775 14.1017 161.845 18.0335 160.015 22.3273C156.209 31.1865 159.94 38.0244 164.254 45.9584C166.657 50.3729 169.382 55.3756 171.001 61.2281V61.3035C171.127 64.9085 168.603 67.4225 163.505 68.78C153.097 71.5453 131.527 69.3783 105.8 62.9778C95.0198 60.2829 84.7025 57.1153 76.7786 54.0433C70.9261 51.7757 63.6457 48.5126 62.1977 45.7573C60.5033 42.2378 54.324 38.2909 48.3509 34.4797C44.937 32.2976 41.4577 30.0804 38.6421 27.848ZM88.6042 -10.4746C79.4735 -12.1589 66.4111 -6.08524 59.4424 -2.31433C49.814 2.87948 40.2409 9.88333 36.1633 14.695L36.108 14.7453C34.0969 16.2537 33.1416 17.7972 33.2019 19.4866C33.3728 24.1273 41.1711 29.1049 48.7179 33.9166C55.0531 37.9389 61.0312 41.7702 62.796 45.4808C67.2658 53.9326 139.768 74.3811 163.309 68.1163C168.05 66.8593 170.408 64.5968 170.312 61.3488C168.713 55.5918 166.129 50.8505 163.63 46.2651C159.231 38.2205 155.435 31.2217 159.367 22.0659C161.106 17.9732 161.031 14.2174 159.15 10.909C154.454 2.67334 138.4 -3.32996 111.431 -6.93998C105.981 -6.27127 98.303 -7.46288 88.6042 -10.4746Z" fill="url(#paint7_linear_56_119)"/>
<path d="M48.7029 31.1966C45.7365 28.8536 43.6047 26.4905 43.479 24.1576C43.3985 22.6492 44.1477 21.2464 45.7113 19.9693C48.5873 15.5649 56.8934 7.99793 65.0687 2.34156C71.1977 -1.90198 82.5808 -8.74996 89.8964 -6.955H89.9366C94.3813 -5.12485 102.868 -2.25393 109.807 -3.56118H109.892C129.054 -1.43438 141.397 3.47786 145.59 10.6024C147.601 14.0213 147.732 17.8677 145.982 22.0308C142.915 29.2357 145.605 34.8217 148.718 41.2876C150.467 44.9278 152.277 48.6836 153.363 53.1986V53.2841C153.177 56.8891 150.477 59.4181 145.344 60.7958C136.465 63.179 119.651 61.9773 100.359 57.588C83.3702 53.7215 69.4731 48.5026 67.3212 45.1892C65.7726 42.5445 61.2877 39.6585 56.5565 36.6016C53.7912 34.8217 51.0007 33.0167 48.7029 31.1966ZM89.7305 -6.39691C77.5178 -9.35833 51.1565 12.6538 46.189 20.3163V20.3565L46.1488 20.3866C44.7007 21.5632 44.027 22.785 44.1024 24.1123C44.3086 27.9737 50.7191 32.1067 56.9135 36.1038C61.7151 39.201 66.2553 42.1373 67.8642 44.8825C69.9005 48.0149 83.9534 53.2338 100.545 57.0098C119.742 61.379 136.45 62.5807 145.238 60.2226C150.07 58.9254 152.619 56.5975 152.815 53.2992C151.739 48.8696 149.949 45.149 148.22 41.5541C145.042 34.9524 142.297 29.2558 145.47 21.7995C147.144 17.8174 147.023 14.1521 145.113 10.9041C141.025 3.94043 128.852 -0.851149 109.917 -2.96286C102.798 -1.64556 94.2305 -4.54162 89.7305 -6.39691Z" fill="url(#paint8_linear_56_119)"/>
</g>
<defs>
<linearGradient id="paint0_linear_56_119" x1="125.303" y1="-40.9938" x2="125.303" y2="128.019" gradientUnits="userSpaceOnUse">
<stop stop-color="#E9CBA3"/>
<stop offset="0.15" stop-color="#EEDEBC"/>
<stop offset="0.39" stop-color="#C9A885"/>
<stop offset="0.63" stop-color="#9A7A5F"/>
<stop offset="0.86" stop-color="#C9A885"/>
<stop offset="1" stop-color="#C9A885"/>
</linearGradient>
<linearGradient id="paint1_linear_56_119" x1="121.929" y1="-36.6396" x2="121.929" y2="119.632" gradientUnits="userSpaceOnUse">
<stop stop-color="#E9CBA3"/>
<stop offset="0.15" stop-color="#EEDEBC"/>
<stop offset="0.39" stop-color="#C9A885"/>
<stop offset="0.63" stop-color="#9A7A5F"/>
<stop offset="0.86" stop-color="#C9A885"/>
<stop offset="1" stop-color="#C9A885"/>
</linearGradient>
<linearGradient id="paint2_linear_56_119" x1="118.56" y1="-32.381" x2="118.56" y2="111.261" gradientUnits="userSpaceOnUse">
<stop stop-color="#E9CBA3"/>
<stop offset="0.15" stop-color="#EEDEBC"/>
<stop offset="0.39" stop-color="#C9A885"/>
<stop offset="0.63" stop-color="#9A7A5F"/>
<stop offset="0.86" stop-color="#C9A885"/>
<stop offset="1" stop-color="#C9A885"/>
</linearGradient>
<linearGradient id="paint3_linear_56_119" x1="115.192" y1="-28.1626" x2="115.192" y2="102.874" gradientUnits="userSpaceOnUse">
<stop stop-color="#E9CBA3"/>
<stop offset="0.15" stop-color="#EEDEBC"/>
<stop offset="0.39" stop-color="#C9A885"/>
<stop offset="0.63" stop-color="#9A7A5F"/>
<stop offset="0.86" stop-color="#C9A885"/>
<stop offset="1" stop-color="#C9A885"/>
</linearGradient>
<linearGradient id="paint4_linear_56_119" x1="111.828" y1="-23.9543" x2="111.828" y2="94.5831" gradientUnits="userSpaceOnUse">
<stop stop-color="#E9CBA3"/>
<stop offset="0.15" stop-color="#EEDEBC"/>
<stop offset="0.39" stop-color="#C9A885"/>
<stop offset="0.63" stop-color="#9A7A5F"/>
<stop offset="0.86" stop-color="#C9A885"/>
<stop offset="1" stop-color="#C9A885"/>
</linearGradient>
<linearGradient id="paint5_linear_56_119" x1="108.464" y1="-19.7811" x2="108.464" y2="86.2872" gradientUnits="userSpaceOnUse">
<stop stop-color="#E9CBA3"/>
<stop offset="0.15" stop-color="#EEDEBC"/>
<stop offset="0.39" stop-color="#C9A885"/>
<stop offset="0.63" stop-color="#9A7A5F"/>
<stop offset="0.86" stop-color="#C9A885"/>
<stop offset="1" stop-color="#C9A885"/>
</linearGradient>
<linearGradient id="paint6_linear_56_119" x1="105.106" y1="-15.598" x2="105.106" y2="78.0665" gradientUnits="userSpaceOnUse">
<stop stop-color="#E9CBA3"/>
<stop offset="0.15" stop-color="#EEDEBC"/>
<stop offset="0.39" stop-color="#C9A885"/>
<stop offset="0.63" stop-color="#9A7A5F"/>
<stop offset="0.86" stop-color="#C9A885"/>
<stop offset="1" stop-color="#C9A885"/>
</linearGradient>
<linearGradient id="paint7_linear_56_119" x1="101.757" y1="-11.4299" x2="101.757" y2="69.9414" gradientUnits="userSpaceOnUse">
<stop stop-color="#E9CBA3"/>
<stop offset="0.15" stop-color="#EEDEBC"/>
<stop offset="0.39" stop-color="#C9A885"/>
<stop offset="0.63" stop-color="#9A7A5F"/>
<stop offset="0.86" stop-color="#C9A885"/>
<stop offset="1" stop-color="#C9A885"/>
</linearGradient>
<linearGradient id="paint8_linear_56_119" x1="98.4187" y1="-7.2617" x2="98.4187" y2="62.0025" gradientUnits="userSpaceOnUse">
<stop stop-color="#E9CBA3"/>
<stop offset="0.15" stop-color="#EEDEBC"/>
<stop offset="0.39" stop-color="#C9A885"/>
<stop offset="0.63" stop-color="#9A7A5F"/>
<stop offset="0.86" stop-color="#C9A885"/>
<stop offset="1" stop-color="#C9A885"/>
</linearGradient>
</defs>
</svg>
