<svg width="206" height="373" viewBox="0 0 206 373" fill="none" xmlns="http://www.w3.org/2000/svg">
<g opacity="0.6">
<path d="M131.285 75.9684C138.758 81.8904 146.118 88.1057 153.366 94.6143C194.105 131.288 210.923 166.626 204.764 202.682C199.434 233.916 177.781 260.891 158.657 284.689C145.904 300.577 133.857 315.568 128.806 329.404C111.996 375.418 118.849 394.047 122.943 405.176C125.316 411.623 126.882 415.878 122.068 421.381C117.347 426.775 91.1592 417.705 39.6421 392.829C17.3585 382.072 5.53992 366.785 -3.95642 354.501C-8.71516 348.35 -12.8394 343.025 -17.3316 339.489C-29.7298 329.738 -34.1797 328.419 -43.9214 325.53C-52.0514 323.114 -64.3311 319.468 -88.2898 308.682C-109.342 299.202 -137.502 278.433 -161.777 254.483C-175.593 240.854 -187.745 226.7 -197.897 212.407C-209.263 196.413 -217.842 180.602 -223.4 165.42C-233.692 137.295 -233.531 111.78 -222.918 89.5848C-212.461 67.72 -196.924 49.1799 -176.735 34.4807C-156.685 19.883 -133.073 9.81135 -106.555 4.54924C-67.952 -3.11128 -24.9541 0.103513 17.8069 13.8552C40.5939 21.1816 63.3682 31.4943 85.4868 44.51C101.454 53.937 116.756 64.4478 131.285 75.9684ZM21.542 380.371C27.2764 384.902 33.4942 388.785 40.082 391.949C63.512 403.264 81.371 411.153 94.687 416.06C113.887 423.158 119.784 422.515 121.336 420.713C125.769 415.637 124.441 412.037 122.03 405.485C117.893 394.229 110.96 375.393 127.892 329.04C132.998 315.082 145.092 299.997 157.9 284.05C176.935 260.341 198.508 233.472 203.791 202.488C209.882 166.803 193.17 131.745 152.697 95.3122C131.048 75.8204 108.282 58.9977 84.9919 45.3095C62.9283 32.3318 40.2216 22.0445 17.4981 14.7435C-25.0768 1.08064 -67.9097 -2.12569 -106.326 5.50098C-132.705 10.7377 -156.185 20.7501 -176.121 35.2674C-196.176 49.8694 -211.611 68.2868 -221.996 90.0036C-232.495 111.949 -232.643 137.21 -222.444 165.077C-216.92 180.179 -208.379 195.914 -197.064 211.84C-186.942 226.082 -174.827 240.181 -161.054 253.785C-136.854 277.659 -108.801 298.352 -87.8499 307.785C-63.9504 318.546 -51.7088 322.167 -43.6084 324.586C-33.7398 327.518 -29.2264 328.854 -16.6929 338.719L-16.6252 338.769C-12.0442 342.39 -7.91992 347.729 -3.14426 353.904C3.20073 362.136 10.6159 371.73 21.542 380.371Z" fill="url(#paint0_linear_56_106)"/>
<path d="M116.446 86.9199C122.486 91.6941 128.448 96.6912 134.33 101.911C171.415 134.672 187.32 166.368 182.975 198.778C179.19 226.954 160.696 251.623 144.381 273.386C133.019 288.547 122.283 302.865 118.155 316.228C104.382 358.604 110.812 376.657 114.657 387.444C116.979 393.967 118.51 398.273 113.912 403.674C111.374 406.771 102.732 406.094 88.2489 401.652C75.2163 397.655 57.9706 390.764 38.3689 381.721C17.8449 372.356 6.70734 358.879 -2.23911 348.037C-6.56216 342.801 -10.3015 338.279 -14.3623 335.06C-27.2215 324.836 -31.223 323.33 -43.0755 318.842C-51.0405 315.83 -61.9539 311.702 -81.1031 302.895C-100.726 293.876 -126.969 274.474 -149.599 252.253C-162.543 239.542 -173.918 226.383 -183.41 213.126C-194.061 198.258 -202.089 183.588 -207.275 169.532C-216.624 144.152 -216.662 121.136 -207.377 101.078C-197.991 80.9217 -183.934 63.7776 -165.601 50.1274C-147.387 36.5618 -125.89 27.1416 -101.729 22.1248C-66.7888 14.8746 -27.8136 17.4718 10.9923 29.6035C31.6812 36.0754 52.3786 45.2544 72.5133 56.9081C87.8607 65.8418 102.543 75.8718 116.446 86.9199ZM19.5284 369.208C25.4264 373.868 31.8678 377.796 38.7115 380.904C80.1654 400.032 108.705 408.539 113.159 403.103C117.419 398.095 116.036 394.22 113.739 387.77C109.86 376.873 103.363 358.638 117.233 315.966C121.421 302.459 132.199 288.077 143.615 272.853C159.863 251.179 178.276 226.611 182.032 198.672C186.351 166.571 170.548 135.142 133.713 102.6C113.95 85.0671 93.1938 69.966 72.0184 57.7202C51.9429 46.1089 31.309 36.9467 10.6835 30.496C-27.9702 18.3982 -66.7888 15.8179 -101.576 23.0385C-125.624 28.0299 -146.998 37.3951 -165.107 50.8803C-183.312 64.4417 -197.271 81.4632 -206.577 101.484C-215.756 121.314 -215.71 144.109 -206.446 169.236C-199.598 187.805 -184.074 217.17 -148.99 251.619C-126.432 273.767 -100.286 293.107 -80.7562 302.083C-61.6324 310.877 -50.7233 314.997 -42.7878 318.004C-31.1553 322.408 -26.7984 324.062 -13.8251 334.362C-9.68813 337.64 -5.92342 342.2 -1.55807 347.475C4.01706 354.234 10.4636 362.051 19.5284 369.208Z" fill="url(#paint1_linear_56_106)"/>
<path d="M101.425 97.6768C106.087 101.365 110.712 105.209 115.3 109.208C148.742 138.09 163.721 166.143 161.085 194.967C158.784 220.089 143.421 242.44 129.868 262.16C119.961 276.567 110.609 290.175 107.411 303.068C96.6328 341.773 102.656 359.221 106.256 369.648C108.544 376.285 110.063 380.646 105.664 385.993C99.9026 393.446 66.0288 383.261 37.0026 370.638C18.1241 362.631 7.62953 350.897 -0.800842 341.451C-4.60783 337.175 -7.92839 333.482 -11.4816 330.639C-26.0285 318.948 -29.2475 317.501 -47.115 309.489C-53.845 306.465 -62.2204 302.722 -74.0136 297.142C-86.0733 291.461 -101.086 281.491 -116.254 269.076C-133.335 255.096 -149.13 239.238 -161.938 223.215C-177.086 204.247 -187.593 185.737 -193.164 168.191C-199.657 147.747 -199.243 129.046 -191.937 112.596C-183.613 94.1575 -171.045 78.4092 -154.548 65.8038C-138.183 53.2619 -118.801 44.4931 -96.9571 39.7259C-65.6763 32.8902 -30.7196 34.8487 4.13979 45.3941C37.6709 55.5334 70.3307 73.0963 101.425 97.6768ZM17.1512 357.914C23.3092 362.792 30.1013 366.811 37.341 369.86C71.9128 384.893 100.368 391.458 104.996 385.469C109.09 380.507 107.715 376.531 105.444 369.94C101.815 359.42 95.7361 341.811 106.582 302.865C109.813 289.828 119.208 276.157 129.157 261.686C142.655 242.055 157.951 219.809 160.231 194.899C162.841 166.363 147.964 138.543 114.737 109.855C79.6282 79.2509 42.3366 57.826 3.88599 46.2062C-30.8296 35.7032 -65.6382 33.7531 -96.7878 40.5592C-118.509 45.3052 -137.776 54.0275 -154.058 66.4848C-170.424 79.0056 -182.906 94.6397 -191.159 112.956C-198.38 129.203 -198.773 147.705 -192.356 167.945C-186.815 185.394 -176.358 203.812 -161.274 222.694C-148.512 238.675 -132.764 254.487 -115.73 268.425C-100.603 280.802 -85.663 290.729 -73.6625 296.381C-61.8777 301.939 -53.5066 305.687 -46.7809 308.724C-28.8288 316.79 -25.5971 318.246 -10.9613 330.005C-7.34465 332.886 -4.01141 336.604 -0.153656 340.901C4.57547 346.206 9.97295 352.238 17.1512 357.914Z" fill="url(#paint2_linear_56_106)"/>
<path d="M86.6712 108.624C89.8917 111.162 93.0909 113.789 96.2691 116.505C126.103 141.542 140.13 165.995 139.14 191.249C138.273 213.338 126.514 232.495 115.148 251.023C106.793 264.639 98.9044 277.494 96.7048 289.938C88.8624 324.899 94.2768 341.058 97.8638 351.751C100.224 358.807 101.671 363.067 97.4408 368.333C92.3648 375.291 65.2379 371.455 35.6829 359.577C18.2299 352.885 8.2979 342.792 0.315903 334.679C-2.73814 331.579 -5.60608 328.647 -8.56708 326.274L-10.0518 325.064C-27.086 311.177 -28.4777 310.048 -66.886 291.402C-77.6852 286.174 -91.6907 276.817 -105.307 265.739C-120.958 252.998 -135.488 238.62 -147.285 224.162C-161.304 206.98 -171.13 190.238 -176.472 174.392C-182.72 155.911 -182.707 139.004 -176.434 124.135C-169.193 107.385 -158.106 93.0323 -143.478 81.4632C-128.932 69.9577 -111.66 61.8234 -92.1475 57.2888C-64.5299 50.8719 -33.5917 52.2128 -2.68315 61.1635C28.0477 70.0507 58.0638 86.002 86.6712 108.624ZM14.1268 346.4C20.7252 351.641 28.0914 355.834 35.9663 358.832C64.7302 370.384 92.0349 374.428 96.819 367.846C100.757 362.91 99.3824 358.803 97.1024 352.005C93.7184 341.883 88.0375 324.933 95.9222 289.782C98.143 277.223 106.074 264.305 114.467 250.625C125.782 232.182 137.482 213.113 138.341 191.232C139.318 166.241 125.388 141.999 95.753 117.131C64.3707 90.3589 31.1737 71.785 -2.9158 61.9122C-33.6932 52.9996 -64.4876 51.663 -91.9783 58.0502C-111.373 62.5594 -128.538 70.6429 -142.992 82.0766C-157.509 93.5568 -168.507 107.829 -175.698 124.432C-181.891 139.11 -181.9 155.831 -175.698 174.121C-170.373 189.874 -160.593 206.531 -146.638 223.638C-134.875 238.058 -120.412 252.402 -104.761 265.091C-91.1915 276.132 -77.241 285.45 -66.4968 290.653C-28.0039 309.337 -26.6038 310.475 -9.50191 324.417L-8.02141 325.623C-5.06041 328.025 -2.1544 330.969 0.916565 334.083C4.65588 337.94 8.87318 342.23 14.1268 346.4Z" fill="url(#paint3_linear_56_106)"/>
<path d="M71.9762 119.542C73.7358 120.932 75.4884 122.352 77.234 123.801C136.103 171.406 116.996 207.847 100.148 239.995C93.456 252.761 87.1364 264.817 85.9944 276.758C81.0072 307.891 86.0705 323.377 89.4206 333.622C91.819 340.956 93.2657 345.381 89.2472 350.626C86.8826 354.086 79.7974 355.935 69.8146 355.702C59.2396 355.444 46.6258 352.877 34.3503 348.477C17.8238 343.016 8.66159 334.683 0.578079 327.327C-1.56653 325.377 -3.5927 323.52 -5.64847 321.828C-8.72791 319.29 -11.3632 317.002 -13.6855 314.993C-24.4254 305.687 -30.91 300.103 -59.7501 285.607C-78.159 276.377 -108.818 253.493 -132.629 225.046C-145.522 209.653 -154.663 194.675 -159.798 180.538C-165.804 164.016 -166.194 148.902 -160.953 135.616C-154.802 120.584 -144.992 107.329 -132.413 97.055C-119.693 86.5689 -104.533 79.0733 -87.3508 74.7756C-63.3837 68.7817 -36.464 69.5051 -9.51891 76.8906C18.4583 84.5258 45.8263 98.8655 71.9762 119.542ZM10.0279 334.527C17.3466 340.392 25.6694 344.879 34.5915 347.771C60.9655 357.221 84.2431 356.654 88.6465 350.195C92.4535 345.241 91.0407 340.952 88.7185 333.85C85.3345 323.537 80.2585 307.95 85.2583 276.665C86.4131 264.601 92.7666 252.482 99.4922 239.652C108.028 223.367 116.835 206.531 116.366 187.653C115.812 166.173 102.859 145.476 76.7687 124.372C49.1173 101.484 20.0234 85.7271 -9.70503 77.6055C-36.5443 70.2707 -63.3329 69.5685 -87.1731 75.4905C-104.25 79.7628 -119.321 87.2118 -131.943 97.6261C-144.434 107.818 -154.176 120.972 -160.284 135.891C-166.993 152.963 -167.56 182.192 -132.066 224.577C-108.319 252.943 -77.7614 275.76 -59.4202 284.947C-30.4997 299.49 -23.9897 305.116 -13.2032 314.439C-10.881 316.444 -8.24991 318.719 -5.16624 321.262C-3.09778 322.954 -1.06316 324.806 1.0899 326.761C3.84785 329.294 6.74541 331.934 10.0279 334.527Z" fill="url(#paint4_linear_56_106)"/>
<path d="M60.1237 132.591C81.6375 149.604 93.05 166.499 94.9789 184.197C96.7343 200.271 90.6685 214.97 84.8015 229.17C79.9117 241.014 75.2967 252.186 75.2798 263.611C73.0168 290.772 77.7586 305.488 80.893 315.217C83.3972 322.983 84.9073 327.67 81.0368 332.949C76.2442 340.402 54.6882 343.896 33.0264 337.395C15.8569 332.949 6.91042 325.487 -1.74838 318.267L-2.72974 317.446C-6.88359 313.948 -10.1788 310.784 -13.3639 307.717C-21.9043 299.511 -29.9709 291.757 -52.6267 279.867C-69.1491 271.229 -96.6525 250.68 -117.989 225.994C-135.97 205.182 -155.335 174.612 -145.484 147.155C-135.332 120.43 -112.38 100.426 -82.5539 92.2625C-62.25 86.7043 -39.3361 86.8312 -16.3207 92.6221C8.83929 98.9671 33.6186 111.657 57.3489 130.434L58.1949 131.102C58.8505 131.593 59.4892 132.092 60.1237 132.591ZM3.93251 322.027C11.1573 327.742 19.5835 333.194 33.2125 336.727C56.3675 343.676 76.3585 338.981 80.4742 332.552C84.1501 327.535 82.6823 322.971 80.2458 315.412C77.0945 305.623 72.3273 290.835 74.603 263.565C74.603 252.034 79.256 240.794 84.1712 228.879C90.0087 214.755 96.0406 200.153 94.3232 184.24C92.3605 166.232 80.415 149.025 57.8057 131.614L56.9597 130.946C33.2844 112.258 8.59396 99.5804 -16.4772 93.2735C-39.3742 87.508 -62.1611 87.3853 -82.3594 92.9139C-97.1263 96.9536 -110.091 103.772 -120.903 113.184C-131.592 122.421 -139.812 134.174 -144.819 147.384C-154.57 174.523 -135.323 204.865 -117.46 225.541C-96.183 250.164 -68.7642 270.646 -52.2968 279.262C-29.5564 291.199 -21.4559 298.982 -12.8817 307.227C-9.70076 310.281 -6.41829 313.436 -2.28136 316.922L-1.29999 317.742C0.404694 319.164 2.13052 320.598 3.93251 322.027Z" fill="url(#paint5_linear_56_106)"/>
<path d="M45.01 142.786C60.7498 155.23 69.8485 167.768 72.7672 180.974C75.6859 194.18 72.2977 206.587 69.0406 218.642C66.2572 228.942 63.3766 239.593 64.5653 250.431C64.8064 273.374 69.2563 287.143 72.2004 296.25C74.9372 304.71 76.5911 309.841 72.8222 315.251C68.478 322.442 50.2933 330.335 31.7109 326.291C18.0565 324.151 8.62782 320.175 0.188995 313.026C-4.26096 309.189 -7.74648 305.412 -11.435 301.402C-19.2309 292.942 -27.2933 284.177 -45.4949 274.093C-60.2069 265.984 -84.5843 247.757 -103.336 226.908C-119.583 208.837 -137.396 182.332 -129.985 158.665C-121.977 135.222 -102.913 117.355 -77.7233 109.635C-61.0486 104.525 -42.1575 104.064 -23.0887 108.299C-1.99791 112.981 18.9448 123.104 39.1684 138.391C41.2072 139.854 43.1544 141.319 45.01 142.786ZM2.10942 313.796C10.0745 320.094 19.0928 323.681 31.8251 325.674C50.1621 329.667 68.0423 321.96 72.3019 314.908C75.9059 309.735 74.3788 305.01 71.6082 296.436C68.6472 287.291 64.1846 273.471 63.9435 250.464C62.7464 239.538 65.6355 228.832 68.4399 218.477C71.6801 206.494 75.0303 194.104 72.1581 181.105C68.9348 166.499 58.0215 152.692 38.8004 138.886C18.6445 123.658 -2.23056 113.565 -23.224 108.899C-42.1871 104.69 -60.9683 105.147 -77.5414 110.223C-102.553 117.884 -121.453 135.603 -129.393 158.868C-136.719 182.251 -119.016 208.554 -102.879 226.501C-84.1782 247.3 -59.8685 265.477 -45.1988 273.564C-26.9083 283.716 -18.8121 292.485 -10.9824 300.992C-7.30656 304.985 -3.83374 308.758 0.590836 312.565C1.09279 312.982 1.599 313.393 2.10942 313.796Z" fill="url(#paint6_linear_56_106)"/>
<path d="M30.3023 152.921C55.6569 172.966 54.2864 190.419 52.8482 208.786C52.1375 217.842 51.4057 227.212 53.838 237.271C56.1687 255.523 60.183 267.481 63.1144 276.216C66.4983 286.292 68.3553 291.838 64.6033 297.561C62.3276 301.571 57.2812 306.211 51.4438 309.659C44.3839 313.825 36.9095 315.792 30.3953 315.2C19.2366 315.2 10.1294 314.722 3.09497 308.614C-1.30845 304.722 -4.98008 300.196 -8.87167 295.408C-15.8935 286.762 -23.8501 276.961 -38.3801 268.336C-48.4602 262.389 -70.4012 247.161 -88.717 227.838C-98.2345 217.783 -105.328 208.118 -109.795 199.108C-115.07 188.461 -116.66 178.736 -114.524 170.192C-108.708 149.972 -93.5477 134.186 -72.9307 126.872C-59.8812 122.219 -44.9916 121.221 -29.8694 123.911C-13.1186 126.902 3.69563 134.228 20.1503 145.683C23.9277 148.136 27.3075 150.552 30.3023 152.921ZM4.26245 308.847C11.0304 314.206 19.7823 314.642 30.4292 314.637C45.323 315.991 60.2845 304.062 64.1338 297.269C67.7462 291.77 65.9146 286.301 62.5898 276.394C59.6288 267.638 55.6273 255.667 53.2839 237.372C50.8389 227.254 51.5919 217.842 52.2898 208.744C53.102 198.368 53.8676 188.567 50.0056 178.368C45.6487 166.88 36.0466 156.643 19.8119 146.148C3.43338 134.727 -13.3089 127.443 -29.9497 124.47C-44.9789 121.784 -59.767 122.778 -72.7277 127.393C-93.1712 134.647 -108.2 150.298 -113.966 170.327C-116.081 178.728 -114.49 188.326 -109.275 198.85C-104.833 207.809 -97.7734 217.428 -88.2898 227.44C-70.0374 246.716 -48.1472 261.911 -38.0925 267.845C-23.4778 276.525 -15.4832 286.368 -8.43599 295.053C-4.56131 299.824 -0.902367 304.329 3.46722 308.191C3.7337 308.419 3.99596 308.635 4.26245 308.847Z" fill="url(#paint7_linear_56_106)"/>
<path d="M16.4576 162.848C31.7745 174.954 34.0417 186.629 36.7616 200.626C38.1829 207.931 39.6507 215.49 43.1066 224.115C46.5752 236.581 50.065 245.929 52.8694 253.438C57.6789 266.327 60.3269 273.424 56.3888 279.871C52.3872 287.379 39.8918 302.713 29.118 304.1L26.9311 304.709C19.3171 306.854 11.4367 309.066 6.00957 304.206C1.81764 300.399 -2.00204 295.048 -6.04591 289.401C-12.5897 280.264 -20.0049 269.909 -31.2567 262.566C-43.4475 254.656 -104.076 213.579 -99.0127 181.706C-95.4595 164.604 -84.2077 150.793 -68.1338 143.801C-58.5444 139.63 -47.9228 138.145 -36.5695 139.389C-24.201 140.742 -11.5322 145.311 1.07739 152.975C6.48215 155.812 11.6285 159.115 16.4576 162.848ZM6.85979 304.253C12.0711 308.373 19.5498 306.266 26.8084 304.227L29.0123 303.61H29.0461C39.6211 302.256 51.998 287.075 55.9658 279.634C59.7728 273.378 57.1629 266.36 52.4084 253.624C49.6039 246.103 46.1099 236.746 42.6455 224.285C39.1727 215.639 37.6964 208.063 36.2709 200.732C32.8404 183.123 30.1375 169.197 0.844749 153.411C-11.7183 145.797 -24.3195 141.233 -36.6161 139.875C-47.8805 138.644 -58.4132 140.116 -67.918 144.249C-83.8439 151.173 -94.99 164.853 -98.5093 181.782C-100.527 194.472 -92.1643 210.169 -73.6793 228.379C-57.4023 244.407 -38.3842 257.321 -30.9563 262.13C-19.6284 269.52 -12.1836 279.896 -5.61022 289.088C-1.58327 294.714 2.2195 300.027 6.37334 303.817C6.52563 303.978 6.6906 304.1 6.85979 304.253Z" fill="url(#paint8_linear_56_106)"/>
<path d="M5.23543 172.344C14.2918 179.502 19.2452 188.169 26.0978 200.148C28.0478 203.532 30.0613 207.073 32.392 210.969C33.8556 214.023 35.2346 216.891 36.5332 219.564C47.8272 242.952 52.9836 253.624 48.191 262.185C44.9085 268.75 34.9088 288.737 27.8617 292.967C21.5167 298.466 13.6658 304.206 8.9409 299.794C5.03662 296.072 1.03928 289.748 -3.19072 283.056C-9.15924 273.615 -15.923 262.917 -24.1123 256.796C-25.6774 255.637 -27.5682 254.258 -29.7635 252.706C-38.7396 246.264 -52.3052 236.526 -63.5104 225.883C-76.911 213.155 -83.6452 202.17 -83.5183 193.236C-82.4523 179.244 -74.9864 166.862 -63.5527 160.103C-50.8627 152.603 -34.6788 152.662 -17.9492 160.264C-7.65759 163.994 -0.415848 167.895 5.23543 172.344ZM9.60078 299.781C14.1226 303.356 21.559 297.861 27.5867 292.616H27.6163C34.5535 288.475 44.5363 268.547 47.7976 261.999C52.4845 253.632 47.3746 243.023 36.1313 219.78C34.8313 217.089 33.4551 214.228 32.0028 211.197C29.6763 207.318 27.6628 203.799 25.7128 200.389C14.6514 181.007 8.53905 170.339 -18.1226 160.674C-34.7295 153.128 -50.7824 153.06 -63.3328 160.484C-74.6395 167.171 -82.0251 179.421 -83.0614 193.274C-83.1799 202.064 -76.4965 212.94 -63.1805 225.579C-52.0006 236.2 -38.4477 245.925 -29.4801 252.363C-27.289 253.937 -25.394 255.295 -23.8289 256.458C-15.5677 262.625 -8.78277 273.378 -2.79733 282.832C1.43266 289.503 5.4004 295.801 9.26661 299.485C9.35967 299.578 9.48235 299.684 9.60078 299.781Z" fill="url(#paint9_linear_56_106)"/>
<path d="M5.89948 182.306C11.1658 186.473 16.3899 191.612 21.6647 197.826C39.2784 221.053 44.752 235.008 39.9763 244.5C37.8951 248.941 34.7903 258.158 32.0578 266.293C29.8878 272.735 27.8278 278.818 26.5588 281.796C25.7128 284.511 23.8896 287.819 21.707 290.624C19.317 293.695 16.9144 295.657 14.939 296.148C14.4052 296.312 13.8368 296.327 13.295 296.192C12.7531 296.058 12.2583 295.777 11.8638 295.382C8.23444 291.728 3.91561 283.961 -0.657013 275.751C-6.09255 265.988 -11.71 255.87 -16.989 251.027C-19.8654 248.387 -24.9076 244.834 -30.745 240.718C-45.2327 230.503 -65.0798 216.506 -68.0197 204.763C-70.0331 193.465 -67.0171 181.997 -60.1392 174.823C-54.3652 168.796 -46.3705 166.275 -37.0223 167.535C-25.4025 167.747 -15.9273 169.79 -7.22619 173.973C-2.55534 176.255 1.84698 179.05 5.89948 182.306ZM12.3756 295.327C12.7204 295.593 13.1238 295.772 13.5521 295.85C13.9804 295.928 14.4211 295.903 14.8375 295.776C18.8813 294.794 24.4649 287.18 26.1992 281.681C27.4682 278.72 29.5282 272.625 31.6982 266.191C34.4392 258.048 37.5441 248.819 39.6379 244.352C44.3417 235.008 38.8807 221.176 21.3728 198.088C11.8046 186.824 2.39281 179.053 -7.39116 174.358C-16.0415 170.2 -25.4659 168.165 -37.0519 167.958C-46.2944 166.714 -54.1749 169.193 -59.8642 175.128C-66.6322 182.213 -69.6355 193.554 -67.6432 204.738C-64.7414 216.311 -44.9662 230.257 -30.525 240.443C-24.6876 244.525 -19.6116 248.087 -16.7352 250.743C-11.4139 255.65 -5.77953 265.772 -0.331299 275.561C4.22863 283.754 8.55168 291.495 12.126 295.112C12.2051 295.188 12.2884 295.26 12.3756 295.327Z" fill="url(#paint10_linear_56_106)"/>
<path d="M8.98734 183.123C9.64722 183.643 10.2944 184.176 10.9374 184.722C21.3855 193.605 28.2803 202.09 31.3852 209.962C33.8385 216.146 33.9654 221.806 31.7616 226.836C28.1577 235.042 24.228 261.255 25.1967 270.654C25.5562 274.161 24.6256 278.754 22.6587 283.259C20.8652 287.337 18.5556 290.488 16.7747 291.296C16.4577 291.479 16.088 291.549 15.7261 291.495C15.3641 291.44 15.0314 291.264 14.7824 290.996C11.2292 287.134 5.78523 275.886 0.523121 265.011C-3.55882 256.581 -7.41658 248.616 -9.86151 245.27C-12.6406 241.463 -20.9483 236.742 -29.7425 231.734C-38.8031 226.573 -48.1726 221.231 -52.4872 216.366C-57.0006 211.29 -60.5241 203.418 -61.6662 195.855C-63.0071 187.019 -61.0529 179.586 -56.1672 174.929C-50.4441 169.481 -39.6999 166.956 -27.4244 168.161C-14.4553 169.43 -1.61302 174.718 8.98734 183.123ZM15.1801 290.928C15.3877 291.081 15.6357 291.169 15.8931 291.181C16.1505 291.193 16.4058 291.129 16.6267 290.996C20.0784 289.439 25.662 278.395 24.871 270.692C23.9023 261.255 27.832 234.949 31.4655 226.7C33.6313 221.768 33.5001 216.176 31.0848 210.08C27.98 202.255 21.1317 193.808 10.7259 184.967C-0.174824 175.699 -13.7446 169.849 -27.471 168.47C-39.4715 167.277 -50.3848 169.832 -55.9515 175.137C-60.7653 179.718 -62.6814 187.048 -61.3574 195.775C-60.2196 203.279 -56.7298 211.075 -52.2545 216.121C-47.978 220.947 -38.6339 226.273 -29.5944 231.421C-20.7664 236.454 -12.4291 241.205 -9.61194 245.054C-7.15009 248.438 -3.26695 256.399 0.802299 264.846C6.05595 275.696 11.4873 286.923 15.0108 290.751C15.063 290.807 15.1196 290.86 15.1801 290.907V290.928Z" fill="url(#paint11_linear_56_106)"/>
</g>
<defs>
<linearGradient id="paint0_linear_56_106" x1="-12.4925" y1="422.883" x2="-12.4925" y2="0.484208" gradientUnits="userSpaceOnUse">
<stop stop-color="#E9CBA3"/>
<stop offset="0.15" stop-color="#EEDEBC"/>
<stop offset="0.39" stop-color="#C9A885"/>
<stop offset="0.63" stop-color="#9A7A5F"/>
<stop offset="0.86" stop-color="#C9A885"/>
<stop offset="1" stop-color="#C9A885"/>
</linearGradient>
<linearGradient id="paint1_linear_56_106" x1="-15.3436" y1="405.599" x2="-15.3436" y2="18.119" gradientUnits="userSpaceOnUse">
<stop stop-color="#E9CBA3"/>
<stop offset="0.15" stop-color="#EEDEBC"/>
<stop offset="0.39" stop-color="#C9A885"/>
<stop offset="0.63" stop-color="#9A7A5F"/>
<stop offset="0.86" stop-color="#C9A885"/>
<stop offset="1" stop-color="#C9A885"/>
</linearGradient>
<linearGradient id="paint2_linear_56_106" x1="-18.1777" y1="388.535" x2="-18.1777" y2="35.7201" gradientUnits="userSpaceOnUse">
<stop stop-color="#E9CBA3"/>
<stop offset="0.15" stop-color="#EEDEBC"/>
<stop offset="0.39" stop-color="#C9A885"/>
<stop offset="0.63" stop-color="#9A7A5F"/>
<stop offset="0.86" stop-color="#C9A885"/>
<stop offset="1" stop-color="#C9A885"/>
</linearGradient>
<linearGradient id="paint3_linear_56_106" x1="-20.9863" y1="371.78" x2="-20.9863" y2="53.2788" gradientUnits="userSpaceOnUse">
<stop stop-color="#E9CBA3"/>
<stop offset="0.15" stop-color="#EEDEBC"/>
<stop offset="0.39" stop-color="#C9A885"/>
<stop offset="0.63" stop-color="#9A7A5F"/>
<stop offset="0.86" stop-color="#C9A885"/>
<stop offset="1" stop-color="#C9A885"/>
</linearGradient>
<linearGradient id="paint4_linear_56_106" x1="-23.7571" y1="355.715" x2="-23.7571" y2="70.7741" gradientUnits="userSpaceOnUse">
<stop stop-color="#E9CBA3"/>
<stop offset="0.15" stop-color="#EEDEBC"/>
<stop offset="0.39" stop-color="#C9A885"/>
<stop offset="0.63" stop-color="#9A7A5F"/>
<stop offset="0.86" stop-color="#C9A885"/>
<stop offset="1" stop-color="#C9A885"/>
</linearGradient>
<linearGradient id="paint5_linear_56_106" x1="-26.4262" y1="340.8" x2="-26.4262" y2="88.1764" gradientUnits="userSpaceOnUse">
<stop stop-color="#E9CBA3"/>
<stop offset="0.15" stop-color="#EEDEBC"/>
<stop offset="0.39" stop-color="#C9A885"/>
<stop offset="0.63" stop-color="#9A7A5F"/>
<stop offset="0.86" stop-color="#C9A885"/>
<stop offset="1" stop-color="#C9A885"/>
</linearGradient>
<linearGradient id="paint6_linear_56_106" x1="-28.3465" y1="327.391" x2="-28.3465" y2="105.431" gradientUnits="userSpaceOnUse">
<stop stop-color="#E9CBA3"/>
<stop offset="0.15" stop-color="#EEDEBC"/>
<stop offset="0.39" stop-color="#C9A885"/>
<stop offset="0.63" stop-color="#9A7A5F"/>
<stop offset="0.86" stop-color="#C9A885"/>
<stop offset="1" stop-color="#C9A885"/>
</linearGradient>
<linearGradient id="paint7_linear_56_106" x1="-24.3661" y1="315.302" x2="-24.3661" y2="122.439" gradientUnits="userSpaceOnUse">
<stop stop-color="#E9CBA3"/>
<stop offset="0.15" stop-color="#EEDEBC"/>
<stop offset="0.39" stop-color="#C9A885"/>
<stop offset="0.63" stop-color="#9A7A5F"/>
<stop offset="0.86" stop-color="#C9A885"/>
<stop offset="1" stop-color="#C9A885"/>
</linearGradient>
<linearGradient id="paint8_linear_56_106" x1="-20.4998" y1="307.121" x2="-20.4998" y2="138.966" gradientUnits="userSpaceOnUse">
<stop stop-color="#E9CBA3"/>
<stop offset="0.15" stop-color="#EEDEBC"/>
<stop offset="0.39" stop-color="#C9A885"/>
<stop offset="0.63" stop-color="#9A7A5F"/>
<stop offset="0.86" stop-color="#C9A885"/>
<stop offset="1" stop-color="#C9A885"/>
</linearGradient>
<linearGradient id="paint9_linear_56_106" x1="-16.7732" y1="301.363" x2="-16.7732" y2="154.519" gradientUnits="userSpaceOnUse">
<stop stop-color="#E9CBA3"/>
<stop offset="0.15" stop-color="#EEDEBC"/>
<stop offset="0.39" stop-color="#C9A885"/>
<stop offset="0.63" stop-color="#9A7A5F"/>
<stop offset="0.86" stop-color="#C9A885"/>
<stop offset="1" stop-color="#C9A885"/>
</linearGradient>
<linearGradient id="paint10_linear_56_106" x1="-13.5077" y1="296.271" x2="-13.5077" y2="167.235" gradientUnits="userSpaceOnUse">
<stop stop-color="#E9CBA3"/>
<stop offset="0.15" stop-color="#EEDEBC"/>
<stop offset="0.39" stop-color="#C9A885"/>
<stop offset="0.63" stop-color="#9A7A5F"/>
<stop offset="0.86" stop-color="#C9A885"/>
<stop offset="1" stop-color="#C9A885"/>
</linearGradient>
<linearGradient id="paint11_linear_56_106" x1="-14.3834" y1="291.478" x2="-14.3834" y2="167.844" gradientUnits="userSpaceOnUse">
<stop stop-color="#E9CBA3"/>
<stop offset="0.15" stop-color="#EEDEBC"/>
<stop offset="0.39" stop-color="#C9A885"/>
<stop offset="0.63" stop-color="#9A7A5F"/>
<stop offset="0.86" stop-color="#C9A885"/>
<stop offset="1" stop-color="#C9A885"/>
</linearGradient>
</defs>
</svg>
