<svg width="562" height="350" viewBox="0 0 562 350" fill="none" xmlns="http://www.w3.org/2000/svg">
<g opacity="0.2">
<path d="M194.307 305.039C196.977 307.151 198.126 308.795 198.457 310.056C200.317 317.178 212.481 324.709 224.245 331.998C237.789 340.384 250.583 348.306 250.594 356.398C250.594 359.838 248.303 362.947 243.576 365.893C229.444 374.703 203.005 376.871 183.328 377.135C159.028 377.466 136.543 375.094 127.361 373.416C99.6468 368.366 75.2947 363.792 58.1872 358.912C40.1054 353.784 30.4732 348.547 26.9476 341.931C24.8984 338.078 24.9691 333.779 27.1596 328.788C30.2091 321.849 30.436 315.311 27.881 308.215C25.5604 301.77 21.1385 295.418 16.46 288.69C10.7959 280.553 4.37692 271.33 0.375265 260.054C-0.297875 258.164 -0.0635755 256.573 1.06328 255.323C3.9232 252.154 12.6777 251.34 27.0963 252.895C39.7596 254.263 56.6067 257.469 75.8153 262.159C103.024 268.804 133.162 278.028 156.44 286.827C178.196 295.072 189.119 300.937 194.307 305.039ZM206.661 321.272C202.009 317.594 198.58 313.909 197.628 310.26C196.348 305.37 181.219 297.125 156.124 287.634C132.876 278.846 102.774 269.634 75.5959 262.999C34.3968 252.935 6.77196 250.284 1.69551 255.903C0.780633 256.911 0.613279 258.179 1.17485 259.771C5.13931 270.928 11.5248 280.11 17.1666 288.203C26.6277 301.799 34.7984 313.54 27.9517 329.138C25.8728 333.872 25.7947 337.926 27.71 341.533C34.8951 355.059 70.3186 362.133 127.513 372.557C136.666 374.223 159.076 376.585 183.298 376.276C202.879 376.012 229.15 373.87 243.119 365.164C247.581 362.386 249.735 359.518 249.731 356.398C249.731 348.785 236.536 340.622 223.787 332.73C217.71 328.956 211.522 325.125 206.661 321.272Z" fill="url(#paint0_linear_56_65)"/>
<path d="M190.986 306.05C193.035 307.672 194.307 309.159 194.675 310.476C196.453 316.954 207.535 323.831 218.254 330.48C230.705 338.205 242.468 345.505 242.494 352.962C242.494 356.119 240.43 358.964 236.146 361.664C228.749 366.499 216.468 370.106 200.637 372.156C186.299 373.924 171.831 374.38 157.411 373.517C142.832 372.464 131.619 370.884 128.529 370.423C100.74 365.443 80.5536 361.497 65.7408 357.19C49.6003 352.504 40.5742 347.495 37.3387 341.433C35.3936 337.785 35.4494 333.723 37.5098 329.023C40.3065 322.648 40.5333 316.638 38.2238 310.111C36.13 304.187 32.1246 298.344 27.8812 292.16C22.7751 284.722 16.9883 276.283 13.3771 266C12.7821 264.182 13.0461 262.653 14.1544 261.459C21.5924 253.411 65.6552 263.029 84.2503 267.536C127.774 278.083 177.118 295.087 190.986 306.05ZM202.176 320.692C197.944 317.345 194.813 313.998 193.905 310.692C191.224 301.022 133.709 280.348 84.0792 268.317C45.6395 258.997 19.7403 256.636 14.7643 261.995C13.8569 262.977 13.6486 264.197 14.1618 265.714C17.7209 275.885 23.4593 284.275 28.5544 291.676C37.1341 304.18 44.5461 314.98 38.2573 329.32C36.3011 333.783 36.2379 337.61 38.0602 341.028C44.825 353.743 78.3333 360.604 128.659 369.619C131.731 370.077 142.921 371.657 157.463 372.702C171.831 373.563 186.247 373.109 200.532 371.345C216.245 369.314 228.425 365.729 235.711 360.976C239.746 358.436 241.698 355.814 241.687 352.958C241.665 345.948 229.544 338.428 217.826 331.157C212.27 327.717 206.613 324.206 202.176 320.692Z" fill="url(#paint1_linear_56_65)"/>
<path d="M187.56 306.921C189.379 308.36 190.536 309.695 190.889 310.896C192.588 316.731 202.589 322.949 212.258 328.967C223.624 336.033 234.357 342.727 234.398 349.537C234.398 352.404 232.538 354.989 228.715 357.44C222.021 362.033 210.492 365.893 196.237 368.295C183.005 370.527 168.545 371.311 156.566 370.441C148.567 369.697 141.355 368.827 135.561 368.128C133.33 367.853 131.366 367.618 129.707 367.433C109.149 363.821 88.1103 359.876 73.3161 355.461C58.8715 351.147 50.7454 346.535 47.7405 340.931C45.881 337.483 45.933 333.66 47.8632 329.238C53.4231 316.542 46.8814 306.842 39.3095 295.611C34.7611 288.861 29.6066 281.215 26.4082 271.925C25.2925 268.113 28.2677 266.368 30.9492 265.573C45.0814 261.396 87.2289 270.656 119.041 279.857C147.856 288.195 177.631 299.07 187.56 306.921ZM197.579 320.056C193.79 317.081 191.034 314.106 190.167 311.13C188.271 304.76 158.928 292.204 118.829 280.601C100.056 275.171 81.3863 270.738 66.2686 268.113C49.2839 265.167 37.145 264.546 31.1649 266.316C27.6839 267.347 26.3636 269.113 27.1297 271.713C30.2872 280.895 35.412 288.497 39.938 295.206C47.6326 306.623 54.2785 316.482 48.5549 329.558C46.7215 333.753 46.6731 337.368 48.4062 340.592C54.3231 351.619 80.464 358.038 129.815 366.704C131.452 366.89 133.4 367.124 135.654 367.395C141.441 368.095 148.648 368.965 156.626 369.709C168.526 370.575 182.934 369.794 196.114 367.57C210.246 365.183 221.678 361.371 228.298 356.83C231.913 354.524 233.657 352.147 233.643 349.563C233.605 343.147 222.549 336.275 211.86 329.625C206.639 326.352 201.54 323.187 197.579 320.056Z" fill="url(#paint2_linear_56_65)"/>
<path d="M184.217 307.906C185.727 309.1 186.765 310.256 187.107 311.316C188.717 316.523 197.639 322.072 206.263 327.449C216.085 333.578 226.242 339.916 226.298 346.111C226.32 348.692 224.68 351.017 221.284 353.218C208.64 362.453 177.374 369.21 155.718 367.351C152.193 366.934 148.849 366.507 145.618 366.097C139.667 365.354 134.55 364.692 130.883 364.42H130.849C106.817 360.307 91.8741 357.109 80.8956 353.721C68.1506 349.793 60.9208 345.568 58.1464 340.433C56.3911 337.182 56.4134 333.586 58.2208 329.439C63.2303 317.973 57.4435 309.2 50.7419 299.047C46.7514 292.993 42.2254 286.135 39.4324 277.849C38.6663 274.874 40.2357 272.825 44.0849 271.709C49.8159 270.054 60.9394 270.526 76.258 273.078C89.7915 275.331 106.464 279.199 123.207 283.967C139.548 288.619 154.867 293.807 166.347 298.575C172.733 301.238 180.167 304.704 184.217 307.906ZM193.091 319.468C189.725 316.806 187.259 314.176 186.437 311.528C185.519 308.676 178.285 304.306 166.068 299.23C154.621 294.473 139.332 289.292 123.013 284.647C94.8605 276.629 57.3506 268.607 44.282 272.375C40.8159 273.375 39.4473 275.097 40.1055 277.637C42.8613 285.819 47.3613 292.643 51.3295 298.661C58.1427 308.985 64.0262 317.903 58.8642 329.722C57.1497 333.656 57.1163 337.052 58.7638 340.102C64.3758 350.489 89.4828 356.629 130.953 363.725C134.635 363.996 139.768 364.651 145.707 365.402C148.939 365.815 152.278 366.239 155.793 366.655C177.296 368.478 208.327 361.791 220.875 352.623C224.07 350.552 225.606 348.425 225.584 346.104C225.532 340.291 215.542 334.058 205.873 328.033C201.202 325.121 196.642 322.28 193.091 319.468Z" fill="url(#paint3_linear_56_65)"/>
<path d="M180.833 308.836C182.112 309.847 183.001 310.829 183.321 311.737C184.849 316.281 192.685 321.187 200.261 325.932C209.045 331.432 218.112 337.119 218.201 342.668C218.231 344.958 216.807 347.023 213.854 348.99C208.532 353.181 198.654 357.518 187.449 360.567C175.548 363.81 163.647 365.164 154.878 364.286L152.379 363.914C144.442 362.72 136.945 361.594 132.065 361.445H132.021C91.0671 354.665 73.2604 348.651 68.5596 339.994C66.8898 336.929 66.8972 333.552 68.5596 329.673C73.0224 319.435 67.9906 311.592 62.1629 302.525C58.7266 297.165 54.829 291.096 52.4377 283.792V283.758C51.8241 280.91 53.4418 278.924 57.2464 277.845C69.5191 274.383 101.503 280.865 127.361 288.084C141.597 292.059 154.982 296.53 165.053 300.673C170.698 302.978 177.259 306.024 180.833 308.836ZM188.598 318.877C185.653 316.545 183.481 314.247 182.707 311.945C180.952 306.965 157.604 297.188 127.194 288.697C112.537 284.606 97.9175 281.315 86.0241 279.433C72.5799 277.31 62.691 276.971 57.4286 278.459C53.9774 279.433 52.553 281.111 53.0774 283.591C55.4427 290.81 59.3104 296.838 62.7245 302.156C68.6526 311.394 73.7699 319.372 69.1733 329.926C67.5741 333.612 67.5592 336.803 69.1249 339.681C74.4356 349.432 98.1332 355.175 132.103 360.794C137.023 360.946 144.528 362.077 152.472 363.271L154.956 363.643C163.644 364.509 175.429 363.163 187.274 359.924C198.401 356.897 208.197 352.605 213.471 348.447C216.249 346.61 217.562 344.728 217.562 342.671C217.495 337.465 208.565 331.886 199.926 326.46C195.772 323.875 191.763 321.365 188.598 318.881V318.877Z" fill="url(#paint4_linear_56_65)"/>
<path d="M177.43 309.743C178.52 310.606 179.245 311.417 179.539 312.16C180.978 316.058 187.72 320.305 194.255 324.411C202.001 329.287 210.016 334.326 210.101 339.265C210.139 341.262 208.941 343.062 206.438 344.769C197.367 352.634 170.795 363.237 154.03 361.222C146.376 359.775 138.488 358.373 133.237 358.458H133.185C99.5352 353.137 83.3204 347.495 78.9691 339.592C77.3774 336.699 77.3625 333.526 78.9319 329.896C82.8443 320.889 78.56 313.975 73.6138 305.968C70.7315 301.308 67.4663 296.027 65.4729 289.716V289.675C65.0154 286.905 66.6964 284.975 70.4675 283.937C81.7435 280.828 109.402 286.168 131.526 292.171C150.151 297.232 170.717 304.429 177.43 309.743ZM184.098 318.297C181.577 316.303 179.702 314.34 178.977 312.38C177.277 308.051 157.251 299.795 131.374 292.751C109.327 286.756 81.7919 281.442 70.6311 284.517C67.165 285.473 65.67 287.12 66.0642 289.56C68.0353 295.793 71.2708 301.033 74.1344 305.656C79.1737 313.804 83.5286 320.844 79.4935 330.138C78.0059 333.586 78.0059 336.587 79.4935 339.306C83.7443 347.026 99.8216 352.579 133.256 357.867C138.563 357.785 146.473 359.191 154.119 360.638C170.725 362.631 197.081 352.11 206.059 344.311L206.085 344.289C208.417 342.705 209.536 341.068 209.503 339.283C209.421 334.668 201.548 329.714 193.939 324.928C190.335 322.648 186.839 320.45 184.098 318.297Z" fill="url(#paint5_linear_56_65)"/>
<path d="M174.031 310.643C174.744 311.148 175.333 311.81 175.753 312.577C177.103 315.828 182.763 319.413 188.241 322.879C194.954 327.126 201.897 331.522 202.002 335.836C202.046 337.52 201.038 339.101 199.026 340.537C191.655 347.8 167.262 360.214 153.197 358.146C147.678 356.818 139.756 355.1 134.427 355.461H134.368C107.665 351.508 93.3767 346.353 89.4085 339.242C87.8986 336.539 87.8614 333.467 89.3007 330.109C92.6478 322.328 89.1482 316.348 85.0721 309.412C82.7441 305.451 80.1035 300.959 78.5118 295.652V295.604C78.2254 292.9 79.9994 291.014 83.7482 290.003C88.3412 288.764 95.7829 288.82 105.869 290.166C114.675 291.342 124.985 293.447 135.677 296.251C151.166 300.304 168.404 306.195 174.031 310.643ZM179.587 317.68C177.497 316.028 175.92 314.403 175.251 312.793C173.607 309.115 156.89 302.38 135.509 296.76C107.55 289.426 90.5093 288.723 83.8672 290.509C80.4122 291.442 78.787 293.112 79.0325 295.503C80.6093 300.747 83.1234 305.009 85.537 309.133C89.6874 316.199 93.2688 322.287 89.7953 330.332C88.4081 333.567 88.4341 336.397 89.8771 338.982C93.756 345.929 107.907 350.994 134.412 354.922C139.816 354.55 147.775 356.287 153.294 357.618C167.188 359.66 191.365 347.335 198.666 340.139L198.699 340.113C200.611 338.763 201.522 337.372 201.481 335.854C201.38 331.834 194.563 327.52 187.97 323.347C184.89 321.402 181.919 319.524 179.587 317.68Z" fill="url(#paint6_linear_56_65)"/>
<path d="M189.398 326.237C192.001 328.293 193.838 330.357 193.913 332.407C193.961 333.805 193.169 335.118 191.588 336.308C185.861 343.036 163.975 357.231 152.334 355.07H152.304C145.175 352.839 139.548 351.98 135.569 352.467H135.506C115.378 349.774 103.37 345.248 99.8031 339.012C98.3155 336.408 98.2671 333.5 99.6171 330.324C102.432 323.767 99.6766 318.71 96.482 312.845C94.7043 309.583 92.6886 305.883 91.4911 301.554V301.498C91.3981 298.831 93.2651 296.968 97.0399 295.968C104.734 293.922 120.689 295.525 139.719 300.26C147.693 302.242 155.309 304.585 161.17 306.853C165.499 308.534 170.884 310.944 171.956 312.986C173.205 315.589 177.776 318.505 182.194 321.324C184.738 322.949 187.3 324.589 189.398 326.237ZM152.438 354.587C159.192 355.833 168.854 351.34 174.008 348.547C181.127 344.698 188.204 339.525 191.22 335.969L191.261 335.929C192.749 334.813 193.455 333.675 193.411 332.425C193.288 328.993 187.516 325.311 181.934 321.752C177.248 318.776 172.826 315.939 171.52 313.198C168.222 306.924 114.62 291.802 97.1775 296.433C93.6704 297.366 91.9262 299.036 91.9969 301.438C93.1795 305.7 95.0911 309.207 96.9395 312.595C100.194 318.546 103.005 323.719 100.093 330.495C98.8064 333.522 98.8622 336.297 100.257 338.744C103.727 344.836 115.601 349.28 135.554 351.95C139.585 351.478 145.275 352.355 152.438 354.587Z" fill="url(#paint7_linear_56_65)"/>
<path d="M488.945 128.468C494.995 133.253 500.712 138.002 506.097 142.715C535.611 168.547 553.652 191.925 559.714 212.205C565.918 232.949 559.294 249.941 540.033 262.713C481.556 301.48 439.122 320.614 411.047 333.277C398.402 338.975 388.428 343.475 381.537 347.781C370.075 354.929 344.231 356.019 314.089 350.626C281.655 344.821 251.412 332.927 231.121 317.988C203.132 297.385 167.329 281.828 142.237 272.404C112.991 261.426 80.8733 252.322 56.3464 248.071C40.5072 245.322 28.9931 236.542 23.0576 222.711C12.7745 198.749 20.4915 162.72 43.196 128.683C53.9588 112.55 65.0861 95.8667 76.7638 80.5072C89.6762 63.5299 101.893 50.0485 114.118 39.3006C128.711 26.4663 143.695 17.0795 159.921 10.6084C178.04 3.37866 197.297 -0.0911559 218.796 0.00181928C255.514 0.161737 333.227 30.5646 407.778 73.932C438.263 91.6679 465.932 110.274 488.945 128.468ZM35.9365 238.424C41.5336 242.846 48.4361 245.821 56.4766 247.215C81.063 251.485 113.229 260.604 142.523 271.594C167.679 281.036 203.56 296.63 231.627 317.289C251.818 332.165 281.927 343.991 314.237 349.775C344.175 355.13 369.788 354.085 381.079 347.045C388.019 342.716 398.023 338.205 410.69 332.492C438.742 319.848 481.135 300.728 539.557 261.995C558.465 249.458 564.969 232.789 558.896 212.45C552.879 192.33 534.927 169.087 505.536 143.358C479.763 120.799 445.808 97.0456 407.354 74.6683C332.922 31.3679 255.384 1.03198 218.8 0.853464C197.412 0.760489 178.263 4.20058 160.248 11.3969C144.115 17.8345 129.213 27.1692 114.69 39.9403C87.4299 63.8944 65.3167 97.0679 43.8989 129.152C21.3543 162.946 13.6671 198.668 23.8163 222.365C26.4417 228.652 30.6104 234.175 35.9365 238.424Z" fill="url(#paint8_linear_56_65)"/>
<path d="M476.23 136.85C481.015 140.631 485.567 144.388 489.886 148.122C517.098 171.641 533.77 192.929 539.442 211.398C545.173 230.067 539.39 245.389 522.245 256.937C470.729 292.193 431.007 311.212 404.724 323.801C392.385 329.707 382.637 334.374 375.716 338.755C364.496 345.821 340.159 347.309 312.199 342.634C282.265 337.624 253.978 326.746 234.595 312.793C208.681 293.911 175.834 279.418 152.847 270.586C125.84 260.21 97.2851 251.753 74.5062 247.386C60.1359 244.627 49.7041 236.404 44.345 223.611C35.0475 201.401 42.1545 168.257 62.9029 137.114C82.424 107.712 102.648 77.305 128.198 54.8943C141.657 43.0901 155.473 34.4397 170.438 28.4521C187.129 21.7579 204.861 18.5261 224.643 18.5298C258.605 18.4294 330.396 45.9649 399.231 85.472C428.292 102.17 454.563 119.72 476.23 136.85ZM56.4839 238.591C61.4673 242.533 67.5665 245.237 74.6363 246.594C97.4599 250.968 126.063 259.44 153.107 269.831C176.143 278.682 209.056 293.205 235.041 312.138C254.324 326.021 282.484 336.847 312.303 341.838C340.073 346.487 364.195 345.044 375.255 338.074C382.236 333.667 391.991 328.993 404.364 323.072C430.627 310.498 470.316 291.494 521.788 256.267C538.601 244.939 544.276 229.926 538.661 211.639C533.045 193.353 516.447 172.158 489.354 148.74C465.552 128.162 434.238 106.536 398.822 86.2009C330.099 46.7348 258.471 19.2587 224.635 19.3443C204.958 19.3443 187.326 22.5649 170.728 29.2108C155.852 35.1612 142.092 43.767 128.703 55.5079C103.25 77.8406 83.0748 108.199 63.5537 137.553C42.9504 168.477 35.8657 201.33 45.0665 223.291C47.6847 229.543 51.5339 234.679 56.4839 238.591Z" fill="url(#paint9_linear_56_65)"/>
<path d="M463.492 145.173C467.038 147.977 470.437 150.763 473.69 153.53C498.607 174.728 513.904 193.929 519.181 210.591C524.44 227.185 519.486 240.837 504.461 251.158C459.573 283.141 423.922 301.297 397.889 314.559C386.078 320.577 376.747 325.344 369.851 329.736C358.694 336.844 336.429 338.662 310.269 334.649C282.827 330.424 256.496 320.565 238.028 307.601C194.82 276.499 127.424 254.144 92.6366 246.706C79.7279 243.939 70.3783 236.263 65.5957 224.511C57.2763 204.056 63.7845 173.798 82.5804 145.553C99.4275 120.111 118.525 91.2774 142.3 70.4956C154.621 59.7105 167.27 51.8113 180.978 46.322C196.226 40.1708 212.437 37.1398 230.5 37.0654C246.157 36.8832 270.123 42.722 299.804 53.9423C328.318 64.7274 360.602 80.0348 390.711 97.0567C418.299 112.654 443.198 129.129 463.492 145.173ZM77.0316 238.781C81.4015 242.236 86.7011 244.66 92.7965 245.97C127.625 253.408 195.166 275.818 238.463 306.987C256.835 319.881 283.05 329.696 310.381 333.905C336.366 337.907 358.445 336.111 369.446 329.101C376.371 324.675 385.717 319.915 397.547 313.886C423.558 300.635 459.178 282.483 504.03 250.54C518.753 240.425 523.606 227.058 518.463 210.817C513.23 194.294 498.009 175.215 473.203 154.106C451.35 135.511 422.713 116.009 390.358 97.715C360.282 80.7117 328.035 65.4191 299.555 54.6489C269.944 43.4621 246.061 37.6419 230.508 37.8204C212.537 37.9022 196.423 40.9072 181.242 47.0063C167.619 52.4807 155.042 60.3501 142.787 71.0646C119.097 91.7795 100.019 120.568 83.2089 145.969C64.5506 174.014 58.0684 203.986 66.2949 224.228C68.5425 229.933 72.2441 234.95 77.0316 238.781Z" fill="url(#paint10_linear_56_65)"/>
<path d="M450.732 153.43C453.063 155.274 455.323 157.11 457.512 158.937C480.12 177.826 494.059 194.93 498.942 209.78C503.717 224.284 499.589 236.282 486.669 245.382C447.991 274.39 414.628 292.517 390.257 305.764C379.755 311.469 370.688 316.4 364.005 320.722C353.09 327.754 332.286 329.978 308.354 326.672C283.395 323.217 259.021 314.377 241.475 302.417C224.259 290.204 200.938 277.946 174.023 266.967C152.419 258.153 129.369 250.522 110.8 246.033C99.3491 243.259 91.0892 236.125 86.8793 225.404C79.5529 206.704 85.4586 179.34 102.291 153.999C119.871 127.326 136.078 103.792 156.399 86.1044C167.578 76.3643 179.059 69.1866 191.502 64.1623C205.348 58.5837 220.027 55.7759 236.372 55.6085C250.735 55.2961 272.614 60.3837 299.636 70.3247C325.487 79.8304 354.815 93.4346 382.198 108.63C408.328 123.109 431.836 138.49 450.732 153.43ZM97.5826 239C101.532 242.062 106.1 244.227 110.971 245.345C129.588 249.845 152.676 257.487 174.313 266.313C201.276 277.31 224.646 289.594 241.899 301.833C259.352 313.734 283.619 322.533 308.469 325.969C332.241 329.261 352.867 327.085 363.64 320.13C370.335 315.794 379.428 310.859 389.941 305.147C414.293 291.911 447.642 273.784 486.264 244.813C498.908 235.887 502.947 224.195 498.276 209.999C493.441 195.276 479.569 178.28 457.066 159.477C437.18 142.864 411.177 125.492 381.864 109.237C354.495 94.0594 325.201 80.4701 299.383 70.9755C272.439 61.068 250.664 55.9953 236.372 56.304C220.109 56.4714 205.505 59.2569 191.744 64.8094C179.375 69.804 167.943 76.9408 156.838 86.6288C136.584 104.272 120.391 127.75 102.856 154.378C86.1504 179.537 80.2706 206.652 87.5153 225.143C89.7467 230.833 93.1496 235.493 97.5826 239Z" fill="url(#paint11_linear_56_65)"/>
<path d="M437.961 161.593C439.122 162.51 440.261 163.426 441.379 164.341C461.685 180.913 474.255 195.927 478.744 208.969C483.036 221.424 479.726 231.733 468.907 239.61C435.998 266.06 404.431 284.395 381.38 297.783C372.239 303.09 364.347 307.676 358.181 311.707C347.336 318.773 328.485 321.321 306.465 318.688C283.983 315.995 261.561 308.174 244.952 297.225C212.664 274.725 162.189 254.564 128.956 245.356C118.956 242.571 111.76 235.973 108.13 226.278C101.808 209.33 107.115 184.866 121.979 162.433C136.911 139.647 151.858 117.857 170.483 101.702C180.524 92.992 190.841 86.5544 202.02 82.0135C214.441 76.9743 227.592 74.397 242.222 74.1404C255.295 73.6978 275.087 78.0379 299.454 86.6883C322.65 94.9222 349.025 106.819 373.719 120.185C398.413 133.552 420.482 147.788 437.961 161.593ZM118.127 239.257C121.38 241.794 125.109 243.653 129.094 244.724C162.383 253.958 212.961 274.141 245.317 296.682C261.836 307.571 284.158 315.359 306.543 318.037C328.414 320.64 347.106 318.148 357.828 311.16C364.005 307.118 371.904 302.528 381.053 297.214C404.085 283.826 435.629 265.517 468.513 239.09C479.082 231.391 482.314 221.331 478.13 209.178C473.667 196.254 461.179 181.337 440.966 164.843C423.041 150.22 399.685 134.968 373.418 120.751C348.753 107.403 322.412 95.521 299.25 87.2796C274.957 78.6553 255.246 74.3263 242.248 74.7689C227.696 75.0255 214.624 77.5842 202.277 82.5788C191.164 87.09 180.907 93.4904 170.922 102.152C152.36 118.252 137.45 140.004 122.534 162.749C107.78 185.011 102.499 209.237 108.751 226.006C110.763 231.492 113.946 235.94 118.127 239.257Z" fill="url(#paint12_linear_56_65)"/>
<path d="M425.112 169.629L425.238 169.734C443.246 183.989 454.451 196.912 458.55 208.14C462.339 218.531 459.836 227.177 451.112 233.827C423.494 258.32 392.853 277.339 370.48 291.215C363.473 295.559 357.422 299.315 352.327 302.688C341.702 309.695 324.286 312.614 304.542 310.699C284.519 308.754 264.053 301.952 248.385 292.029C234.323 282.446 216.438 272.795 195.229 263.337C179.271 256.227 161.724 249.421 147.086 244.672C138.533 241.879 132.4 235.813 129.369 227.125C124.077 211.933 128.781 190.363 141.671 170.868C154.093 151.771 167.638 131.9 184.567 117.314C193.47 109.638 202.619 103.926 212.541 99.8795C223.534 95.3869 235.16 93.0328 248.072 92.6869C271.431 91.5489 318.521 107.247 365.243 131.736C388.431 143.894 409.131 156.996 425.112 169.629ZM138.711 239.573C141.272 241.577 144.168 243.111 147.265 244.103C161.925 248.859 179.494 255.669 195.467 262.791C216.714 272.263 234.624 281.932 248.708 291.531C264.283 301.398 284.656 308.17 304.59 310.104C324.197 312.004 341.471 309.122 351.985 302.186C357.088 298.809 363.142 295.053 370.152 290.706C392.507 276.834 423.126 257.837 450.721 233.366C459.238 226.876 461.674 218.464 457.984 208.344C453.927 197.221 442.781 184.387 424.863 170.202L424.736 170.102C408.782 157.487 388.119 144.407 364.961 132.261C318.332 107.801 271.35 92.1365 248.095 93.2671C235.249 93.6129 223.694 95.9522 212.764 100.419C202.92 104.454 193.808 110.118 184.957 117.753C168.088 132.302 154.569 152.132 142.17 171.195C129.38 190.534 124.69 211.903 129.934 226.925C131.76 232.165 134.739 236.43 138.711 239.573Z" fill="url(#paint13_linear_56_65)"/>
<path d="M412.3 177.54C426.187 188.518 434.986 198.515 438.422 207.292C441.706 215.634 439.992 222.614 433.331 228.04C410.731 251.366 379.38 271.991 356.485 287.05C352.893 289.415 349.501 291.646 346.47 293.673C335.897 300.739 320.325 303.941 302.623 302.718C284.772 301.483 266.738 295.845 251.832 286.845C241.843 280.225 213.422 262.82 165.228 243.995C158.099 241.191 153.037 235.638 150.597 227.94C146.339 214.511 150.463 195.878 161.36 179.314C171.401 163.694 183.429 145.943 198.658 132.904C214.75 119.144 232.828 112.03 253.926 111.208C264.432 110.505 280.071 113.339 299.138 119.408C317.298 125.191 337.239 133.444 356.805 143.273C377.007 153.426 395.111 164.434 409.158 175.108C410.236 175.923 411.284 176.734 412.3 177.54ZM159.296 239.978C161.157 241.443 163.225 242.624 165.432 243.482C173.142 246.494 188.672 252.779 206.063 261.032C224.319 269.697 239.816 278.225 252.13 286.377C266.95 295.332 284.902 300.94 302.664 302.168C320.247 303.384 335.696 300.204 346.176 293.216C349.203 291.185 352.599 288.954 356.191 286.589C379.067 271.541 410.4 250.931 432.956 227.646L432.978 227.624C439.445 222.361 441.108 215.589 437.92 207.489C434.302 198.299 424.246 187.25 408.834 175.539C394.813 164.884 376.739 153.894 356.567 143.756C337.024 133.938 317.112 125.697 298.978 119.925C279.978 113.874 264.391 111.048 253.978 111.743C232.999 112.558 215.029 119.613 199.034 133.313C183.864 146.304 171.885 164.018 161.844 179.604C151.029 196.034 146.93 214.488 151.14 227.765C152.736 232.86 155.514 236.988 159.296 239.978Z" fill="url(#paint14_linear_56_65)"/>
<path d="M399.183 184.974C409.046 192.784 415.632 200.099 418.388 206.388C421.144 212.677 420.203 218.04 415.558 222.25C398.287 245.583 357.887 272.962 340.631 284.655C319.061 299.229 283.953 297.991 255.291 281.65C233.308 267.64 205.185 253.936 188.379 245.75L183.376 243.307C177.653 240.484 173.655 235.422 171.81 228.672C168.627 217.021 172.182 201.338 181.063 187.763C189.922 173.821 199.893 159.417 212.753 148.517C226.476 136.884 241.862 130.747 259.784 129.754C277.94 128.103 312.727 137.936 348.407 154.791C365.563 162.898 381.034 171.768 393.14 180.452C395.274 181.969 397.289 183.477 399.183 184.974ZM179.899 240.532C181.046 241.437 182.285 242.219 183.596 242.864L188.598 245.304C205.408 253.486 233.55 267.209 255.54 281.226C284.035 297.474 318.916 298.705 340.333 284.245C357.575 272.564 397.945 245.196 415.156 221.937V221.919C419.641 217.865 420.556 212.71 417.882 206.608C414.632 199.17 405.959 190.285 392.801 180.853C380.714 172.192 365.281 163.333 348.143 155.241C312.538 138.416 277.854 128.609 259.769 130.253C219.975 132.454 199.242 160.005 181.428 188.035C172.614 201.509 169.092 217.043 172.238 228.572C173.662 233.581 176.262 237.658 179.899 240.532Z" fill="url(#paint15_linear_56_65)"/>
<path d="M386.096 192.011C392.125 196.778 396.39 201.308 398.484 205.354C400.734 209.702 400.504 213.436 397.792 216.448C394.817 224.176 386.122 234.452 371.897 246.996C361.536 256.134 348.01 266.573 334.785 275.633C313.549 290.137 285.121 290.453 258.742 276.454C249.858 271.092 240.482 265.669 231.411 260.429C219.682 253.653 208.606 247.253 201.518 242.615C195.568 238.695 192.313 231.562 192.347 222.532C192.377 213.979 195.445 204.376 200.759 196.176C212.608 177.161 220.924 169.027 226.844 164.092C238.191 154.609 250.88 149.432 265.641 148.264C281.261 146.345 309.786 153.214 340.021 166.193C359.349 174.494 375.482 183.606 386.096 192.011ZM200.518 241.358C200.916 241.671 201.328 241.968 201.752 242.251C208.818 246.877 219.901 253.278 231.627 260.05C240.698 265.294 250.077 270.712 258.954 276.075C285.173 289.988 313.43 289.69 334.528 275.272C347.735 266.22 361.246 255.792 371.596 246.665C385.791 234.151 394.468 223.916 397.383 216.251V216.214L397.413 216.184C400.016 213.313 400.236 209.739 398.068 205.559C392.329 194.487 370.015 179.563 339.832 166.61C309.648 153.656 281.235 146.806 265.663 148.718C250.988 149.874 238.381 155.04 227.108 164.442C215.836 173.843 207.32 186.462 201.113 196.425C195.843 204.555 192.801 214.075 192.771 222.544C192.756 230.766 195.482 237.379 200.525 241.358H200.518Z" fill="url(#paint16_linear_56_65)"/>
<path d="M373.027 198.251C375.519 200.222 377.446 202.111 378.71 203.871C380.569 206.44 381.005 208.705 380.03 210.602C381.797 217.649 372.164 229.223 363.752 237.706C354.272 247.271 341.26 258.083 328.942 266.621C318.332 273.963 307.852 277.931 296.899 278.76C285.716 279.604 274.362 277.154 262.193 271.266C244.495 261.426 227.8 249.908 219.655 241.923C215.706 238.015 213.705 231.882 214.029 224.634C214.326 217.858 216.669 210.568 220.455 204.629C230.095 188.667 244.606 169.942 271.495 166.811C284.511 164.635 306.922 168.592 331.423 177.391C349.326 183.821 364.492 191.501 373.027 198.251ZM227.369 248.086C236.317 255.152 249.062 263.512 262.376 270.917C274.47 276.771 285.757 279.206 296.869 278.355C307.751 277.533 318.168 273.583 328.719 266.287C351.74 250.321 382.756 222.495 379.636 210.613L379.614 210.539L379.651 210.472C380.592 208.702 380.172 206.552 378.394 204.083C372.845 196.366 354.354 186.03 331.289 177.744C306.848 168.964 284.515 165.018 271.55 167.183C244.818 170.295 230.381 188.931 220.79 204.819C217.041 210.702 214.72 217.921 214.423 224.63C214.107 231.759 216.063 237.795 219.934 241.626C222.299 243.907 224.781 246.065 227.369 248.09V248.086Z" fill="url(#paint17_linear_56_65)"/>
<path d="M360.041 202.327C361.115 203.179 361.844 203.978 362.179 204.707C363.12 205.209 363.911 205.953 364.469 206.862C365.026 207.772 365.331 208.814 365.351 209.88C365.66 216.53 357.824 226.318 351.197 233.355C342.628 242.319 333.218 250.44 323.096 257.606C312.106 265.301 303.441 269.362 294.991 270.772C285.98 272.259 276.657 270.772 265.648 266.074C253.476 260.191 242.55 250.432 237.797 241.209C233.565 232.912 235.67 220.383 240.151 213.071C248.965 197.596 261.479 188.269 277.341 185.346C283.522 183.903 291.559 183.658 301.228 184.602C310.364 185.576 319.41 187.253 328.288 189.619C342.903 193.476 355.105 198.426 360.041 202.327ZM361.9 204.93L361.878 204.878C361.569 204.172 360.863 203.391 359.817 202.561C348.954 193.974 301.325 180.076 277.401 185.662C261.628 188.57 249.192 197.842 240.43 213.224C235.997 220.461 233.907 232.845 238.087 241.038C242.806 250.198 253.677 259.897 265.775 265.747C276.716 270.429 285.98 271.913 294.925 270.422C303.322 269.02 311.946 264.977 322.891 257.309C332.993 250.167 342.385 242.071 350.936 233.132C357.519 226.14 365.303 216.437 365.002 209.903C364.981 208.884 364.687 207.889 364.151 207.023C363.614 206.157 362.855 205.451 361.952 204.979L361.9 204.93Z" fill="url(#paint18_linear_56_65)"/>
<path d="M350.524 201.092C351.577 201.903 352.325 203.046 352.647 204.335C353.495 207.615 352.372 214.005 342.234 225.879C335.428 233.834 326.094 242.321 317.257 248.591C306.818 255.996 299.979 260.648 293.084 262.783C285.962 264.992 279.011 264.442 269.096 260.883C263.629 258.919 259.799 255.334 257.749 250.228C253.287 239.19 258.348 224.567 259.839 221.517C262.629 215.853 267.687 211.104 274.872 207.385C281.056 204.198 288.829 201.765 297.974 200.163C314.509 197.265 332.739 197.622 344.287 198.92C347.009 199.236 349.077 199.962 350.524 201.092ZM263.473 257.495C265.198 258.838 267.132 259.891 269.196 260.611C279.048 264.152 285.932 264.702 292.998 262.512C299.845 260.388 306.662 255.747 317.082 248.357C333.189 236.929 355.016 214.704 352.368 204.406C351.625 201.483 348.884 199.735 344.254 199.199C332.725 197.905 314.527 197.548 298.026 200.441C288.907 202.041 281.161 204.462 275.002 207.638C267.873 211.312 262.859 216.02 260.096 221.629C258.608 224.637 253.588 239.164 258.013 250.109C259.151 253.009 261.034 255.556 263.473 257.495Z" fill="url(#paint19_linear_56_65)"/>
</g>
<defs>
<linearGradient id="paint0_linear_56_65" x1="125.293" y1="377.161" x2="125.293" y2="252.143" gradientUnits="userSpaceOnUse">
<stop stop-color="#E9CBA3"/>
<stop offset="0.15" stop-color="#EEDEBC"/>
<stop offset="0.39" stop-color="#C9A885"/>
<stop offset="0.63" stop-color="#9A7A5F"/>
<stop offset="0.86" stop-color="#C9A885"/>
<stop offset="1" stop-color="#C9A885"/>
</linearGradient>
<linearGradient id="paint1_linear_56_65" x1="127.789" y1="373.941" x2="127.789" y2="258.35" gradientUnits="userSpaceOnUse">
<stop stop-color="#E9CBA3"/>
<stop offset="0.15" stop-color="#EEDEBC"/>
<stop offset="0.39" stop-color="#C9A885"/>
<stop offset="0.63" stop-color="#9A7A5F"/>
<stop offset="0.86" stop-color="#C9A885"/>
<stop offset="1" stop-color="#C9A885"/>
</linearGradient>
<linearGradient id="paint2_linear_56_65" x1="130.284" y1="370.791" x2="130.284" y2="264.542" gradientUnits="userSpaceOnUse">
<stop stop-color="#E9CBA3"/>
<stop offset="0.15" stop-color="#EEDEBC"/>
<stop offset="0.39" stop-color="#C9A885"/>
<stop offset="0.63" stop-color="#9A7A5F"/>
<stop offset="0.86" stop-color="#C9A885"/>
<stop offset="1" stop-color="#C9A885"/>
</linearGradient>
<linearGradient id="paint3_linear_56_65" x1="132.772" y1="367.671" x2="132.772" y2="270.746" gradientUnits="userSpaceOnUse">
<stop stop-color="#E9CBA3"/>
<stop offset="0.15" stop-color="#EEDEBC"/>
<stop offset="0.39" stop-color="#C9A885"/>
<stop offset="0.63" stop-color="#9A7A5F"/>
<stop offset="0.86" stop-color="#C9A885"/>
<stop offset="1" stop-color="#C9A885"/>
</linearGradient>
<linearGradient id="paint4_linear_56_65" x1="135.26" y1="364.558" x2="135.26" y2="276.875" gradientUnits="userSpaceOnUse">
<stop stop-color="#E9CBA3"/>
<stop offset="0.15" stop-color="#EEDEBC"/>
<stop offset="0.39" stop-color="#C9A885"/>
<stop offset="0.63" stop-color="#9A7A5F"/>
<stop offset="0.86" stop-color="#C9A885"/>
<stop offset="1" stop-color="#C9A885"/>
</linearGradient>
<linearGradient id="paint5_linear_56_65" x1="137.748" y1="361.471" x2="137.748" y2="283.015" gradientUnits="userSpaceOnUse">
<stop stop-color="#E9CBA3"/>
<stop offset="0.15" stop-color="#EEDEBC"/>
<stop offset="0.39" stop-color="#C9A885"/>
<stop offset="0.63" stop-color="#9A7A5F"/>
<stop offset="0.86" stop-color="#C9A885"/>
<stop offset="1" stop-color="#C9A885"/>
</linearGradient>
<linearGradient id="paint6_linear_56_65" x1="140.232" y1="358.373" x2="140.232" y2="289.095" gradientUnits="userSpaceOnUse">
<stop stop-color="#E9CBA3"/>
<stop offset="0.15" stop-color="#EEDEBC"/>
<stop offset="0.39" stop-color="#C9A885"/>
<stop offset="0.63" stop-color="#9A7A5F"/>
<stop offset="0.86" stop-color="#C9A885"/>
<stop offset="1" stop-color="#C9A885"/>
</linearGradient>
<linearGradient id="paint7_linear_56_65" x1="142.709" y1="355.293" x2="142.709" y2="295.105" gradientUnits="userSpaceOnUse">
<stop stop-color="#E9CBA3"/>
<stop offset="0.15" stop-color="#EEDEBC"/>
<stop offset="0.39" stop-color="#C9A885"/>
<stop offset="0.63" stop-color="#9A7A5F"/>
<stop offset="0.86" stop-color="#C9A885"/>
<stop offset="1" stop-color="#C9A885"/>
</linearGradient>
<linearGradient id="paint8_linear_56_65" x1="290.268" y1="354.014" x2="290.268" y2="-0.00561293" gradientUnits="userSpaceOnUse">
<stop stop-color="#E9CBA3"/>
<stop offset="0.15" stop-color="#EEDEBC"/>
<stop offset="0.39" stop-color="#C9A885"/>
<stop offset="0.63" stop-color="#9A7A5F"/>
<stop offset="0.86" stop-color="#C9A885"/>
<stop offset="1" stop-color="#C9A885"/>
</linearGradient>
<linearGradient id="paint9_linear_56_65" x1="290.945" y1="345.33" x2="290.945" y2="18.5298" gradientUnits="userSpaceOnUse">
<stop stop-color="#E9CBA3"/>
<stop offset="0.15" stop-color="#EEDEBC"/>
<stop offset="0.39" stop-color="#C9A885"/>
<stop offset="0.63" stop-color="#9A7A5F"/>
<stop offset="0.86" stop-color="#C9A885"/>
<stop offset="1" stop-color="#C9A885"/>
</linearGradient>
<linearGradient id="paint10_linear_56_65" x1="291.626" y1="336.751" x2="291.626" y2="37.0617" gradientUnits="userSpaceOnUse">
<stop stop-color="#E9CBA3"/>
<stop offset="0.15" stop-color="#EEDEBC"/>
<stop offset="0.39" stop-color="#C9A885"/>
<stop offset="0.63" stop-color="#9A7A5F"/>
<stop offset="0.86" stop-color="#C9A885"/>
<stop offset="1" stop-color="#C9A885"/>
</linearGradient>
<linearGradient id="paint11_linear_56_65" x1="292.317" y1="328.175" x2="292.317" y2="55.5862" gradientUnits="userSpaceOnUse">
<stop stop-color="#E9CBA3"/>
<stop offset="0.15" stop-color="#EEDEBC"/>
<stop offset="0.39" stop-color="#C9A885"/>
<stop offset="0.63" stop-color="#9A7A5F"/>
<stop offset="0.86" stop-color="#C9A885"/>
<stop offset="1" stop-color="#C9A885"/>
</linearGradient>
<linearGradient id="paint12_linear_56_65" x1="293.024" y1="319.699" x2="293.024" y2="74.1069" gradientUnits="userSpaceOnUse">
<stop stop-color="#E9CBA3"/>
<stop offset="0.15" stop-color="#EEDEBC"/>
<stop offset="0.39" stop-color="#C9A885"/>
<stop offset="0.63" stop-color="#9A7A5F"/>
<stop offset="0.86" stop-color="#C9A885"/>
<stop offset="1" stop-color="#C9A885"/>
</linearGradient>
<linearGradient id="paint13_linear_56_65" x1="293.745" y1="311.275" x2="293.745" y2="92.6125" gradientUnits="userSpaceOnUse">
<stop stop-color="#E9CBA3"/>
<stop offset="0.15" stop-color="#EEDEBC"/>
<stop offset="0.39" stop-color="#C9A885"/>
<stop offset="0.63" stop-color="#9A7A5F"/>
<stop offset="0.86" stop-color="#C9A885"/>
<stop offset="1" stop-color="#C9A885"/>
</linearGradient>
<linearGradient id="paint14_linear_56_65" x1="294.497" y1="302.971" x2="294.497" y2="111.1" gradientUnits="userSpaceOnUse">
<stop stop-color="#E9CBA3"/>
<stop offset="0.15" stop-color="#EEDEBC"/>
<stop offset="0.39" stop-color="#C9A885"/>
<stop offset="0.63" stop-color="#9A7A5F"/>
<stop offset="0.86" stop-color="#C9A885"/>
<stop offset="1" stop-color="#C9A885"/>
</linearGradient>
<linearGradient id="paint15_linear_56_65" x1="295.296" y1="294.8" x2="295.296" y2="129.561" gradientUnits="userSpaceOnUse">
<stop stop-color="#E9CBA3"/>
<stop offset="0.15" stop-color="#EEDEBC"/>
<stop offset="0.39" stop-color="#C9A885"/>
<stop offset="0.63" stop-color="#9A7A5F"/>
<stop offset="0.86" stop-color="#C9A885"/>
<stop offset="1" stop-color="#C9A885"/>
</linearGradient>
<linearGradient id="paint16_linear_56_65" x1="296.182" y1="286.745" x2="296.182" y2="147.959" gradientUnits="userSpaceOnUse">
<stop stop-color="#E9CBA3"/>
<stop offset="0.15" stop-color="#EEDEBC"/>
<stop offset="0.39" stop-color="#C9A885"/>
<stop offset="0.63" stop-color="#9A7A5F"/>
<stop offset="0.86" stop-color="#C9A885"/>
<stop offset="1" stop-color="#C9A885"/>
</linearGradient>
<linearGradient id="paint17_linear_56_65" x1="297.264" y1="278.924" x2="297.264" y2="166.227" gradientUnits="userSpaceOnUse">
<stop stop-color="#E9CBA3"/>
<stop offset="0.15" stop-color="#EEDEBC"/>
<stop offset="0.39" stop-color="#C9A885"/>
<stop offset="0.63" stop-color="#9A7A5F"/>
<stop offset="0.86" stop-color="#C9A885"/>
<stop offset="1" stop-color="#C9A885"/>
</linearGradient>
<linearGradient id="paint18_linear_56_65" x1="300.432" y1="271.337" x2="300.432" y2="184.044" gradientUnits="userSpaceOnUse">
<stop stop-color="#E9CBA3"/>
<stop offset="0.15" stop-color="#EEDEBC"/>
<stop offset="0.39" stop-color="#C9A885"/>
<stop offset="0.63" stop-color="#9A7A5F"/>
<stop offset="0.86" stop-color="#C9A885"/>
<stop offset="1" stop-color="#C9A885"/>
</linearGradient>
<linearGradient id="paint19_linear_56_65" x1="304.416" y1="264.096" x2="304.416" y2="197.961" gradientUnits="userSpaceOnUse">
<stop stop-color="#E9CBA3"/>
<stop offset="0.15" stop-color="#EEDEBC"/>
<stop offset="0.39" stop-color="#C9A885"/>
<stop offset="0.63" stop-color="#9A7A5F"/>
<stop offset="0.86" stop-color="#C9A885"/>
<stop offset="1" stop-color="#C9A885"/>
</linearGradient>
</defs>
</svg>
