<svg width="14" height="14" viewBox="0 0 14 14" fill="none" xmlns="http://www.w3.org/2000/svg">
<path d="M7.84811 6.27385L7.54912 5.29445L6.60636 2.21199L3.37022 10.2649L11.7409 7.9729L8.72295 6.61148L7.84811 6.27385Z" fill="#1E3231"/>
<path d="M4.8343 9.67324C4.89144 9.69609 4.94287 9.70752 5.00001 9.70752H5.1543C5.38858 9.70752 3.14287 8.47895 8.85716 8.24466C8.85716 8.01038 5.38858 8.85038 5.1543 8.85038H6.0343L13.3029 1.58181C13.4686 1.41609 13.4686 1.14181 13.3029 0.976092C13.1372 0.810378 12.8629 0.810378 12.6972 0.976092L5.42858 8.24466V9.12466C5.42858 8.89038 5.2343 8.69609 5.00001 8.69609C4.76573 8.69609 4.57144 8.89038 4.57144 9.12466V9.27895C4.57144 9.33609 4.58287 9.38752 4.60573 9.44466C4.64573 9.54752 4.73144 9.63324 4.8343 9.67324Z" fill="#1E3231"/>
</svg>
