<svg width="16" height="16" viewBox="0 0 16 16" fill="none" xmlns="http://www.w3.org/2000/svg">
<path d="M4.36662 15.1667C5.11996 15.1667 5.91329 14.9867 6.73329 14.64C7.53329 14.3 8.33996 13.8333 9.12663 13.2667C9.90663 12.6933 10.66 12.0533 11.3733 11.3533C12.08 10.64 12.72 9.88667 13.2866 9.11333C13.86 8.31333 14.32 7.51333 14.6466 6.74C14.9933 5.91333 15.1666 5.11333 15.1666 4.36C15.1666 3.84 15.0733 3.34667 14.8933 2.88667C14.7066 2.41333 14.4066 1.97333 14 1.59333C13.4866 1.08667 12.9 0.833333 12.2733 0.833333C12.0133 0.833333 11.7466 0.893333 11.52 1C11.26 1.12 11.04 1.3 10.88 1.54L9.33329 3.72C9.19329 3.91333 9.08663 4.1 9.01329 4.28667C8.92663 4.48667 8.87996 4.68667 8.87996 4.88C8.87996 5.13333 8.95329 5.38 9.09329 5.61333C9.19329 5.79333 9.34663 5.98667 9.53996 6.18L9.99329 6.65333C9.98663 6.67333 9.97996 6.68667 9.97329 6.7C9.89329 6.84 9.73329 7.08 9.42663 7.44C9.09996 7.81333 8.79329 8.15333 8.48663 8.46667C8.09329 8.85333 7.76663 9.16 7.45996 9.41333C7.07996 9.73333 6.83329 9.89333 6.68663 9.96667L6.69996 10L6.21329 9.52C6.00663 9.31333 5.80663 9.16 5.61329 9.06C5.24663 8.83333 4.77996 8.79333 4.31329 8.98667C4.13996 9.06 3.95329 9.16 3.75329 9.3L1.53996 10.8733C1.29329 11.04 1.11329 11.2533 1.00663 11.5067C0.906626 11.76 0.85996 11.9933 0.85996 12.2267C0.85996 12.5467 0.933292 12.8667 1.07329 13.1667C1.21329 13.4667 1.38663 13.7267 1.60663 13.9667C1.98663 14.3867 2.39996 14.6867 2.87996 14.88C3.33996 15.0667 3.83996 15.1667 4.36662 15.1667ZM12.2733 1.83333C12.64 1.83333 12.98 1.99333 13.3066 2.31333C13.6133 2.6 13.8266 2.91333 13.96 3.25333C14.1 3.6 14.1666 3.96667 14.1666 4.36C14.1666 4.98 14.02 5.65333 13.7266 6.34667C13.4266 7.05333 13.0066 7.78667 12.4733 8.52C11.94 9.25333 11.3333 9.96667 10.6666 10.64C9.99996 11.3 9.27996 11.9133 8.53996 12.4533C7.81996 12.98 7.07996 13.4067 6.34663 13.7133C5.20663 14.2 4.13996 14.3133 3.25996 13.9467C2.91996 13.8067 2.61996 13.5933 2.34663 13.2867C2.19329 13.12 2.07329 12.94 1.97329 12.7267C1.89329 12.56 1.85329 12.3867 1.85329 12.2133C1.85329 12.1067 1.87329 12 1.92663 11.88C1.94662 11.84 1.98663 11.7667 2.11329 11.68L4.32663 10.1067C4.45996 10.0133 4.57996 9.94667 4.69329 9.9C4.83996 9.84 4.89996 9.78 5.12663 9.92C5.25996 9.98667 5.37996 10.0867 5.51329 10.22L6.01996 10.72C6.27996 10.9733 6.67996 11.0333 6.98663 10.92L7.16663 10.84C7.43996 10.6933 7.75996 10.4667 8.11329 10.1667C8.43329 9.89333 8.77996 9.57333 9.19996 9.16C9.52663 8.82667 9.85329 8.47333 10.1933 8.08C10.5066 7.71333 10.7333 7.4 10.8733 7.14L10.9533 6.94C10.9933 6.78667 11.0066 6.7 11.0066 6.60667C11.0066 6.36667 10.92 6.15333 10.7533 5.98667L10.2533 5.46667C10.12 5.33333 10.02 5.20667 9.95329 5.09333C9.89996 5.00667 9.87996 4.93333 9.87996 4.86667C9.87996 4.81333 9.89996 4.73333 9.93329 4.65333C9.97996 4.54667 10.0533 4.42667 10.1466 4.3L11.6933 2.11333C11.76 2.02 11.84 1.95333 11.94 1.90667C12.0466 1.86 12.16 1.83333 12.2733 1.83333ZM6.69996 10.0067L6.80663 10.46L6.62663 9.99333C6.65996 9.98667 6.68663 9.99333 6.69996 10.0067Z" fill="#1E3231"/>
<path d="M3.66667 6.5C3.94 6.5 4.16667 6.27333 4.16667 6C4.16667 5.76 4.40667 5.26 4.80667 4.83333C5.2 4.41333 5.63333 4.16667 6 4.16667C6.27333 4.16667 6.5 3.94 6.5 3.66667C6.5 3.39333 6.27333 3.16667 6 3.16667C5.35333 3.16667 4.67333 3.51333 4.08 4.14667C3.52667 4.74 3.16667 5.46667 3.16667 6C3.16667 6.27333 3.39333 6.5 3.66667 6.5Z" fill="#1E3231"/>
<path d="M1.33333 6.5C1.60667 6.5 1.83333 6.27333 1.83333 6C1.83333 3.7 3.7 1.83333 6 1.83333C6.27333 1.83333 6.5 1.60667 6.5 1.33333C6.5 1.06 6.27333 0.833333 6 0.833333C3.15333 0.833333 0.833333 3.15333 0.833333 6C0.833333 6.27333 1.06 6.5 1.33333 6.5Z" fill="#1E3231"/>
</svg>
