<svg width="282" height="75" viewBox="0 0 282 75" fill="none" xmlns="http://www.w3.org/2000/svg">
<mask id="path-1-outside-1_2_2176" maskUnits="userSpaceOnUse" x="85.754" y="17.959" width="196" height="35" fill="black">
<rect fill="white" x="85.754" y="17.959" width="196" height="35"/>
<path d="M104.962 36.2592V35.1966H116.164V47.2398C114.807 48.5976 113.139 49.6602 111.161 50.4277C109.213 51.1951 107.029 51.5789 104.608 51.5789C102.129 51.5789 99.8411 51.1804 97.7454 50.3834C95.6496 49.5569 93.8195 48.4205 92.2551 46.9741C90.6907 45.4982 89.4657 43.7862 88.5802 41.838C87.7241 39.8899 87.2961 37.7646 87.2961 35.4622C87.2961 33.1599 87.7241 31.0346 88.5802 29.0864C89.4657 27.1383 90.6907 25.441 92.2551 23.9947C93.8195 22.5188 95.6496 21.3824 97.7454 20.5854C99.8411 19.7589 102.129 19.3456 104.608 19.3456C105.671 19.3456 106.822 19.4194 108.062 19.567C109.331 19.7146 110.541 19.9212 111.692 20.1869C112.844 20.423 113.818 20.7182 114.615 21.0724L114.393 23.5519H114.128C112.947 22.5188 111.53 21.7366 109.877 21.2052C108.224 20.6739 106.468 20.4083 104.608 20.4083C101.834 20.4083 99.3984 21.0429 97.3026 22.3122C95.2069 23.5519 93.5686 25.3082 92.3879 27.581C91.2367 29.8244 90.6611 32.4515 90.6611 35.4622C90.6611 38.473 91.2367 41.1149 92.3879 43.3877C93.5686 45.6311 95.2069 47.3874 97.3026 48.6566C99.3984 49.8964 101.834 50.5162 104.608 50.5162C106.32 50.5162 107.899 50.2801 109.346 49.8078C110.822 49.3355 112.091 48.6566 113.154 47.7711V36.2592H104.962ZM125.021 19.9655H128.032V50.0735C128.593 50.0735 129.478 49.9849 130.688 49.8078L138.038 48.7009V50.959H125.021V19.9655ZM144.101 50.959V19.9655H147.112V50.959H144.101ZM186.479 19.9655V50.959H183.469V22.5335H183.203L172.488 43.0778H171.116L158.939 24.9687H158.674L159.648 50.959H156.637L157.744 19.3456H158.63L172.577 40.067H172.842L183.292 19.9655H186.479ZM225.839 19.9655V50.959H222.828V22.5335H222.562L211.847 43.0778H210.475L198.299 24.9687H198.033L199.007 50.959H195.996L197.103 19.3456H197.989L211.936 40.067H212.202L222.651 19.9655H225.839ZM236.02 50.959V19.9655H249.524V22.1351L241.776 21.1167C240.418 20.9396 239.503 20.851 239.031 20.851V34.3553C239.414 34.3553 240.329 34.3111 241.776 34.2225L249.037 33.7797V35.8165L241.776 35.3737C240.329 35.2851 239.414 35.2409 239.031 35.2409V50.0735C239.562 50.0735 240.492 49.9849 241.82 49.8078L249.657 48.7894V50.959H236.02ZM257.608 19.9655H263.541C266.67 19.9655 269.09 20.6297 270.802 21.9579C272.544 23.2567 273.415 25.0868 273.415 27.4482C273.415 29.2783 272.869 30.7985 271.777 32.0087C270.714 33.2189 269.164 34.0306 267.127 34.4439V34.7095C269.076 35.0933 270.67 36.0083 271.909 37.4547C273.149 38.901 274.079 40.6869 274.699 42.8121C275.26 44.7603 275.806 46.2804 276.337 47.3726C276.898 48.4352 277.503 49.2027 278.152 49.675C278.831 50.1473 279.628 50.4867 280.543 50.6933V50.959H278.728C277.429 50.959 276.352 50.7228 275.496 50.2506C274.669 49.7783 273.961 48.9813 273.37 47.8596C272.78 46.738 272.219 45.1883 271.688 43.2106C270.832 40.1703 269.696 38.0155 268.279 36.7463C266.862 35.477 265.135 34.8424 263.098 34.8424H262.833V34.0454H263.098C267.851 34.0454 270.227 31.8611 270.227 27.4925C270.227 23.1829 267.998 21.0281 263.541 21.0281H260.619V50.959H257.608V19.9655Z"/>
</mask>
<path d="M104.962 36.2592V35.1966H116.164V47.2398C114.807 48.5976 113.139 49.6602 111.161 50.4277C109.213 51.1951 107.029 51.5789 104.608 51.5789C102.129 51.5789 99.8411 51.1804 97.7454 50.3834C95.6496 49.5569 93.8195 48.4205 92.2551 46.9741C90.6907 45.4982 89.4657 43.7862 88.5802 41.838C87.7241 39.8899 87.2961 37.7646 87.2961 35.4622C87.2961 33.1599 87.7241 31.0346 88.5802 29.0864C89.4657 27.1383 90.6907 25.441 92.2551 23.9947C93.8195 22.5188 95.6496 21.3824 97.7454 20.5854C99.8411 19.7589 102.129 19.3456 104.608 19.3456C105.671 19.3456 106.822 19.4194 108.062 19.567C109.331 19.7146 110.541 19.9212 111.692 20.1869C112.844 20.423 113.818 20.7182 114.615 21.0724L114.393 23.5519H114.128C112.947 22.5188 111.53 21.7366 109.877 21.2052C108.224 20.6739 106.468 20.4083 104.608 20.4083C101.834 20.4083 99.3984 21.0429 97.3026 22.3122C95.2069 23.5519 93.5686 25.3082 92.3879 27.581C91.2367 29.8244 90.6611 32.4515 90.6611 35.4622C90.6611 38.473 91.2367 41.1149 92.3879 43.3877C93.5686 45.6311 95.2069 47.3874 97.3026 48.6566C99.3984 49.8964 101.834 50.5162 104.608 50.5162C106.32 50.5162 107.899 50.2801 109.346 49.8078C110.822 49.3355 112.091 48.6566 113.154 47.7711V36.2592H104.962ZM125.021 19.9655H128.032V50.0735C128.593 50.0735 129.478 49.9849 130.688 49.8078L138.038 48.7009V50.959H125.021V19.9655ZM144.101 50.959V19.9655H147.112V50.959H144.101ZM186.479 19.9655V50.959H183.469V22.5335H183.203L172.488 43.0778H171.116L158.939 24.9687H158.674L159.648 50.959H156.637L157.744 19.3456H158.63L172.577 40.067H172.842L183.292 19.9655H186.479ZM225.839 19.9655V50.959H222.828V22.5335H222.562L211.847 43.0778H210.475L198.299 24.9687H198.033L199.007 50.959H195.996L197.103 19.3456H197.989L211.936 40.067H212.202L222.651 19.9655H225.839ZM236.02 50.959V19.9655H249.524V22.1351L241.776 21.1167C240.418 20.9396 239.503 20.851 239.031 20.851V34.3553C239.414 34.3553 240.329 34.3111 241.776 34.2225L249.037 33.7797V35.8165L241.776 35.3737C240.329 35.2851 239.414 35.2409 239.031 35.2409V50.0735C239.562 50.0735 240.492 49.9849 241.82 49.8078L249.657 48.7894V50.959H236.02ZM257.608 19.9655H263.541C266.67 19.9655 269.09 20.6297 270.802 21.9579C272.544 23.2567 273.415 25.0868 273.415 27.4482C273.415 29.2783 272.869 30.7985 271.777 32.0087C270.714 33.2189 269.164 34.0306 267.127 34.4439V34.7095C269.076 35.0933 270.67 36.0083 271.909 37.4547C273.149 38.901 274.079 40.6869 274.699 42.8121C275.26 44.7603 275.806 46.2804 276.337 47.3726C276.898 48.4352 277.503 49.2027 278.152 49.675C278.831 50.1473 279.628 50.4867 280.543 50.6933V50.959H278.728C277.429 50.959 276.352 50.7228 275.496 50.2506C274.669 49.7783 273.961 48.9813 273.37 47.8596C272.78 46.738 272.219 45.1883 271.688 43.2106C270.832 40.1703 269.696 38.0155 268.279 36.7463C266.862 35.477 265.135 34.8424 263.098 34.8424H262.833V34.0454H263.098C267.851 34.0454 270.227 31.8611 270.227 27.4925C270.227 23.1829 267.998 21.0281 263.541 21.0281H260.619V50.959H257.608V19.9655Z" fill="white"/>
<path d="M104.962 36.2592H104.09V37.1317H104.962V36.2592ZM104.962 35.1966V34.3241H104.09V35.1966H104.962ZM116.164 35.1966H117.037V34.3241H116.164V35.1966ZM116.164 47.2398L116.781 47.8567L117.037 47.6011V47.2398H116.164ZM111.161 50.4277L110.845 49.6143L110.841 49.6159L111.161 50.4277ZM97.7454 50.3834L97.4253 51.1951L97.4353 51.1989L97.7454 50.3834ZM92.2551 46.9741L91.6564 47.6087L91.6628 47.6147L92.2551 46.9741ZM88.5802 41.838L87.7814 42.189L87.7859 42.1991L88.5802 41.838ZM88.5802 29.0864L87.7859 28.7254L87.7814 28.7355L88.5802 29.0864ZM92.2551 23.9947L92.8474 24.6353L92.8538 24.6293L92.2551 23.9947ZM97.7454 20.5854L98.0555 21.4009L98.0654 21.397L97.7454 20.5854ZM108.062 19.567L107.959 20.4333L107.961 20.4336L108.062 19.567ZM111.692 20.1869L111.496 21.037L111.507 21.0394L111.517 21.0415L111.692 20.1869ZM114.615 21.0724L115.484 21.15L115.539 20.5286L114.969 20.2752L114.615 21.0724ZM114.393 23.5519V24.4243H115.191L115.262 23.6295L114.393 23.5519ZM114.128 23.5519L113.553 24.2085L113.8 24.4243H114.128V23.5519ZM97.3026 22.3122L97.7468 23.0631L97.7546 23.0584L97.3026 22.3122ZM92.3879 27.581L91.6137 27.1789L91.6117 27.1827L92.3879 27.581ZM92.3879 43.3877L91.6095 43.782L91.6159 43.7941L92.3879 43.3877ZM97.3026 48.6566L96.8506 49.4029L96.8584 49.4075L97.3026 48.6566ZM109.346 49.8078L109.08 48.9768L109.075 48.9785L109.346 49.8078ZM113.154 47.7711L113.712 48.4413L114.026 48.1797V47.7711H113.154ZM113.154 36.2592H114.026V35.3868H113.154V36.2592ZM104.962 36.2592H105.835V35.1966H104.962H104.09V36.2592H104.962ZM104.962 35.1966V36.069H116.164V35.1966V34.3241H104.962V35.1966ZM116.164 35.1966H115.292V47.2398H116.164H117.037V35.1966H116.164ZM116.164 47.2398L115.547 46.6229C114.284 47.8864 112.722 48.8861 110.845 49.6143L111.161 50.4277L111.477 51.241C113.555 50.4343 115.329 49.3088 116.781 47.8567L116.164 47.2398ZM111.161 50.4277L110.841 49.6159C109.01 50.3375 106.936 50.7064 104.608 50.7064V51.5789V52.4513C107.121 52.4513 109.416 52.0527 111.481 51.2394L111.161 50.4277ZM104.608 51.5789V50.7064C102.224 50.7064 100.042 50.3234 98.0555 49.5679L97.7454 50.3834L97.4353 51.1989C99.64 52.0373 102.034 52.4513 104.608 52.4513V51.5789ZM97.7454 50.3834L98.0654 49.5718C96.0644 48.7826 94.328 47.7024 92.8474 46.3335L92.2551 46.9741L91.6628 47.6147C93.3111 49.1386 95.2348 50.3312 97.4253 51.195L97.7454 50.3834ZM92.2551 46.9741L92.8538 46.3395C91.3712 44.9409 90.2129 43.3216 89.3744 41.477L88.5802 41.838L87.7859 42.1991C88.7185 44.2508 90.0101 46.0556 91.6564 47.6087L92.2551 46.9741ZM88.5802 41.838L89.3789 41.4871C88.5754 39.6584 88.1686 37.6538 88.1686 35.4622H87.2961H86.4237C86.4237 37.8754 86.8729 40.1214 87.7814 42.189L88.5802 41.838ZM87.2961 35.4622H88.1686C88.1686 33.2707 88.5754 31.2661 89.3789 29.4374L88.5802 29.0864L87.7814 28.7355C86.8729 30.8031 86.4237 33.0491 86.4237 35.4622H87.2961ZM88.5802 29.0864L89.3744 29.4475C90.2121 27.6045 91.3686 26.0024 92.8474 24.6353L92.2551 23.9947L91.6628 23.3541C90.0128 24.8796 88.7193 26.672 87.7859 28.7254L88.5802 29.0864ZM92.2551 23.9947L92.8538 24.6293C94.3313 23.2354 96.0622 22.1588 98.0555 21.4008L97.7454 20.5854L97.4353 19.7699C95.237 20.6059 93.3078 21.8022 91.6564 23.3601L92.2551 23.9947ZM97.7454 20.5854L98.0654 21.397C100.049 20.6145 102.227 20.2181 104.608 20.2181V19.3456V18.4732C102.03 18.4732 99.6328 18.9032 97.4253 19.7738L97.7454 20.5854ZM104.608 19.3456V20.2181C105.631 20.2181 106.747 20.2891 107.959 20.4333L108.062 19.567L108.165 18.7007C106.897 18.5497 105.711 18.4732 104.608 18.4732V19.3456ZM108.062 19.567L107.961 20.4336C109.201 20.5778 110.379 20.7792 111.496 21.037L111.692 20.1869L111.889 19.3368C110.704 19.0633 109.461 18.8514 108.163 18.7004L108.062 19.567ZM111.692 20.1869L111.517 21.0415C112.626 21.2691 113.537 21.548 114.26 21.8697L114.615 21.0724L114.969 20.2752C114.099 19.8884 113.061 19.577 111.868 19.3322L111.692 20.1869ZM114.615 21.0724L113.746 20.9948L113.524 23.4743L114.393 23.5519L115.262 23.6295L115.484 21.15L114.615 21.0724ZM114.393 23.5519V22.6795H114.128V23.5519V24.4243H114.393V23.5519ZM114.128 23.5519L114.702 22.8953C113.423 21.7758 111.898 20.9385 110.144 20.3747L109.877 21.2052L109.61 22.0358C111.162 22.5346 112.471 23.2617 113.553 24.2085L114.128 23.5519ZM109.877 21.2052L110.144 20.3747C108.399 19.8137 106.552 19.5358 104.608 19.5358V20.4083V21.2807C106.384 21.2807 108.049 21.5342 109.61 22.0358L109.877 21.2052ZM104.608 20.4083V19.5358C101.696 19.5358 99.1001 20.2036 96.8507 21.5659L97.3026 22.3122L97.7546 23.0584C99.6967 21.8822 101.971 21.2807 104.608 21.2807V20.4083ZM97.3026 22.3122L96.8584 21.5613C94.6148 22.8885 92.8656 24.7691 91.6137 27.1789L92.3879 27.581L93.1621 27.9832C94.2717 25.8473 95.7989 24.2153 97.7468 23.0631L97.3026 22.3122ZM92.3879 27.581L91.6117 27.1827C90.3861 29.5711 89.7887 32.3396 89.7887 35.4622H90.6611H91.5336C91.5336 32.5633 92.0873 30.0777 93.1641 27.9794L92.3879 27.581ZM90.6611 35.4622H89.7887C89.7887 38.5852 90.3862 41.3665 91.6096 43.7819L92.3879 43.3877L93.1662 42.9935C92.0872 40.8632 91.5336 38.3608 91.5336 35.4622H90.6611ZM92.3879 43.3877L91.6159 43.7941C92.8677 46.1726 94.6145 48.0485 96.8507 49.4029L97.3026 48.6566L97.7546 47.9104C95.7993 46.7262 94.2695 45.0895 93.16 42.9814L92.3879 43.3877ZM97.3026 48.6566L96.8584 49.4075C99.1066 50.7374 101.699 51.3887 104.608 51.3887V50.5162V49.6438C101.968 49.6438 99.6901 49.0553 97.7468 47.9057L97.3026 48.6566ZM104.608 50.5162V51.3887C106.401 51.3887 108.073 51.1413 109.617 50.6371L109.346 49.8078L109.075 48.9785C107.726 49.4189 106.24 49.6438 104.608 49.6438V50.5162ZM109.346 49.8078L109.612 50.6387C111.182 50.1363 112.553 49.4069 113.712 48.4413L113.154 47.7711L112.595 47.1009C111.628 47.9063 110.462 48.5347 109.08 48.9769L109.346 49.8078ZM113.154 47.7711H114.026V36.2592H113.154H112.281V47.7711H113.154ZM113.154 36.2592V35.3868H104.962V36.2592V37.1317H113.154V36.2592ZM125.021 19.9655V19.0931H124.149V19.9655H125.021ZM128.032 19.9655H128.904V19.0931H128.032V19.9655ZM128.032 50.0735H127.159V50.9459H128.032V50.0735ZM130.688 49.8078L130.815 50.6711L130.818 50.6705L130.688 49.8078ZM138.038 48.7009H138.911V47.6872L137.908 47.8382L138.038 48.7009ZM138.038 50.959V51.8314H138.911V50.959H138.038ZM125.021 50.959H124.149V51.8314H125.021V50.959ZM125.021 19.9655V20.8379H128.032V19.9655V19.0931H125.021V19.9655ZM128.032 19.9655H127.159V50.0735H128.032H128.904V19.9655H128.032ZM128.032 50.0735V50.9459C128.661 50.9459 129.6 50.8489 130.815 50.671L130.688 49.8078L130.562 48.9446C129.357 49.1209 128.525 49.201 128.032 49.201V50.0735ZM130.688 49.8078L130.818 50.6705L138.168 49.5636L138.038 48.7009L137.908 47.8382L130.558 48.9451L130.688 49.8078ZM138.038 48.7009H137.166V50.959H138.038H138.911V48.7009H138.038ZM138.038 50.959V50.0865H125.021V50.959V51.8314H138.038V50.959ZM125.021 50.959H125.893V19.9655H125.021H124.149V50.959H125.021ZM144.101 50.959H143.229V51.8314H144.101V50.959ZM144.101 19.9655V19.0931H143.229V19.9655H144.101ZM147.112 19.9655H147.985V19.0931H147.112V19.9655ZM147.112 50.959V51.8314H147.985V50.959H147.112ZM144.101 50.959H144.974V19.9655H144.101H143.229V50.959H144.101ZM144.101 19.9655V20.8379H147.112V19.9655V19.0931H144.101V19.9655ZM147.112 19.9655H146.24V50.959H147.112H147.985V19.9655H147.112ZM147.112 50.959V50.0865H144.101V50.959V51.8314H147.112V50.959ZM186.479 19.9655H187.352V19.0931H186.479V19.9655ZM186.479 50.959V51.8314H187.352V50.959H186.479ZM183.469 50.959H182.596V51.8314H183.469V50.959ZM183.469 22.5335H184.341V21.6611H183.469V22.5335ZM183.203 22.5335V21.6611H182.674L182.429 22.1301L183.203 22.5335ZM172.488 43.0778V43.9502H173.017L173.262 43.4812L172.488 43.0778ZM171.116 43.0778L170.392 43.5646L170.651 43.9502H171.116V43.0778ZM158.939 24.9687L159.664 24.4819L159.404 24.0963H158.939V24.9687ZM158.674 24.9687V24.0963H157.768L157.802 25.0014L158.674 24.9687ZM159.648 50.959V51.8314H160.554L160.52 50.9263L159.648 50.959ZM156.637 50.959L155.765 50.9285L155.734 51.8314H156.637V50.959ZM157.744 19.3456V18.4732H156.902L156.872 19.3151L157.744 19.3456ZM158.63 19.3456L159.353 18.8585L159.094 18.4732H158.63V19.3456ZM172.577 40.067L171.853 40.5541L172.112 40.9394H172.577V40.067ZM172.842 40.067V40.9394H173.372L173.616 40.4694L172.842 40.067ZM183.292 19.9655V19.0931H182.762L182.517 19.5631L183.292 19.9655ZM186.479 19.9655H185.607V50.959H186.479H187.352V19.9655H186.479ZM186.479 50.959V50.0865H183.469V50.959V51.8314H186.479V50.959ZM183.469 50.959H184.341V22.5335H183.469H182.596V50.959H183.469ZM183.469 22.5335V21.6611H183.203V22.5335V23.406H183.469V22.5335ZM183.203 22.5335L182.429 22.1301L171.715 42.6743L172.488 43.0778L173.262 43.4812L183.977 22.937L183.203 22.5335ZM172.488 43.0778V42.2053H171.116V43.0778V43.9502H172.488V43.0778ZM171.116 43.0778L171.84 42.591L159.664 24.4819L158.939 24.9687L158.215 25.4555L170.392 43.5646L171.116 43.0778ZM158.939 24.9687V24.0963H158.674V24.9687V25.8412H158.939V24.9687ZM158.674 24.9687L157.802 25.0014L158.776 50.9917L159.648 50.959L160.52 50.9263L159.546 24.9361L158.674 24.9687ZM159.648 50.959V50.0865H156.637V50.959V51.8314H159.648V50.959ZM156.637 50.959L157.509 50.9895L158.616 19.3762L157.744 19.3456L156.872 19.3151L155.765 50.9285L156.637 50.959ZM157.744 19.3456V20.2181H158.63V19.3456V18.4732H157.744V19.3456ZM158.63 19.3456L157.906 19.8328L171.853 40.5541L172.577 40.067L173.3 39.5798L159.353 18.8585L158.63 19.3456ZM172.577 40.067V40.9394H172.842V40.067V39.1945H172.577V40.067ZM172.842 40.067L173.616 40.4694L184.066 20.3679L183.292 19.9655L182.517 19.5631L172.068 39.6646L172.842 40.067ZM183.292 19.9655V20.8379H186.479V19.9655V19.0931H183.292V19.9655ZM225.839 19.9655H226.711V19.0931H225.839V19.9655ZM225.839 50.959V51.8314H226.711V50.959H225.839ZM222.828 50.959H221.955V51.8314H222.828V50.959ZM222.828 22.5335H223.7V21.6611H222.828V22.5335ZM222.562 22.5335V21.6611H222.033L221.789 22.1301L222.562 22.5335ZM211.847 43.0778V43.9502H212.376L212.621 43.4812L211.847 43.0778ZM210.475 43.0778L209.751 43.5646L210.01 43.9502H210.475V43.0778ZM198.299 24.9687L199.023 24.4819L198.763 24.0963H198.299V24.9687ZM198.033 24.9687V24.0963H197.127L197.161 25.0014L198.033 24.9687ZM199.007 50.959V51.8314H199.913L199.879 50.9263L199.007 50.959ZM195.996 50.959L195.125 50.9285L195.093 51.8314H195.996V50.959ZM197.103 19.3456V18.4732H196.261L196.231 19.3151L197.103 19.3456ZM197.989 19.3456L198.713 18.8585L198.453 18.4732H197.989V19.3456ZM211.936 40.067L211.212 40.5541L211.471 40.9394H211.936V40.067ZM212.202 40.067V40.9394H212.731L212.976 40.4694L212.202 40.067ZM222.651 19.9655V19.0931H222.121L221.877 19.5631L222.651 19.9655ZM225.839 19.9655H224.966V50.959H225.839H226.711V19.9655H225.839ZM225.839 50.959V50.0865H222.828V50.959V51.8314H225.839V50.959ZM222.828 50.959H223.7V22.5335H222.828H221.955V50.959H222.828ZM222.828 22.5335V21.6611H222.562V22.5335V23.406H222.828V22.5335ZM222.562 22.5335L221.789 22.1301L211.074 42.6743L211.847 43.0778L212.621 43.4812L223.336 22.937L222.562 22.5335ZM211.847 43.0778V42.2053H210.475V43.0778V43.9502H211.847V43.0778ZM210.475 43.0778L211.199 42.591L199.023 24.4819L198.299 24.9687L197.575 25.4555L209.751 43.5646L210.475 43.0778ZM198.299 24.9687V24.0963H198.033V24.9687V25.8412H198.299V24.9687ZM198.033 24.9687L197.161 25.0014L198.135 50.9917L199.007 50.959L199.879 50.9263L198.905 24.9361L198.033 24.9687ZM199.007 50.959V50.0865H195.996V50.959V51.8314H199.007V50.959ZM195.996 50.959L196.868 50.9895L197.975 19.3762L197.103 19.3456L196.231 19.3151L195.125 50.9285L195.996 50.959ZM197.103 19.3456V20.2181H197.989V19.3456V18.4732H197.103V19.3456ZM197.989 19.3456L197.265 19.8328L211.212 40.5541L211.936 40.067L212.66 39.5798L198.713 18.8585L197.989 19.3456ZM211.936 40.067V40.9394H212.202V40.067V39.1945H211.936V40.067ZM212.202 40.067L212.976 40.4694L223.425 20.3679L222.651 19.9655L221.877 19.5631L211.427 39.6646L212.202 40.067ZM222.651 19.9655V20.8379H225.839V19.9655V19.0931H222.651V19.9655ZM236.02 50.959H235.147V51.8314H236.02V50.959ZM236.02 19.9655V19.0931H235.147V19.9655H236.02ZM249.524 19.9655H250.397V19.0931H249.524V19.9655ZM249.524 22.1351L249.41 23.0001L250.397 23.1297V22.1351H249.524ZM241.776 21.1167L241.889 20.2517L241.889 20.2516L241.776 21.1167ZM239.031 20.851V19.9786H238.158V20.851H239.031ZM239.031 34.3553H238.158V35.2278H239.031V34.3553ZM241.776 34.2225L241.723 33.3517L241.722 33.3517L241.776 34.2225ZM249.037 33.7797H249.91V32.8525L248.984 32.9089L249.037 33.7797ZM249.037 35.8165L248.984 36.6873L249.91 36.7437V35.8165H249.037ZM241.776 35.3737L241.722 36.2445L241.723 36.2445L241.776 35.3737ZM239.031 35.2409V34.3684H238.158V35.2409H239.031ZM239.031 50.0735H238.158V50.9459H239.031V50.0735ZM241.82 49.8078L241.708 48.9426L241.705 48.943L241.82 49.8078ZM249.657 48.7894H250.529V47.7963L249.545 47.9243L249.657 48.7894ZM249.657 50.959V51.8314H250.529V50.959H249.657ZM236.02 50.959H236.892V19.9655H236.02H235.147V50.959H236.02ZM236.02 19.9655V20.8379H249.524V19.9655V19.0931H236.02V19.9655ZM249.524 19.9655H248.652V22.1351H249.524H250.397V19.9655H249.524ZM249.524 22.1351L249.638 21.27L241.889 20.2517L241.776 21.1167L241.662 21.9817L249.41 23.0001L249.524 22.1351ZM241.776 21.1167L241.889 20.2516C240.539 20.0755 239.569 19.9786 239.031 19.9786V20.851V21.7235C239.437 21.7235 240.297 21.8037 241.663 21.9818L241.776 21.1167ZM239.031 20.851H238.158V34.3553H239.031H239.903V20.851H239.031ZM239.031 34.3553V35.2278C239.447 35.2278 240.392 35.1813 241.829 35.0933L241.776 34.2225L241.722 33.3517C240.267 33.4408 239.382 33.4829 239.031 33.4829V34.3553ZM241.776 34.2225L241.829 35.0933L249.09 34.6506L249.037 33.7797L248.984 32.9089L241.723 33.3517L241.776 34.2225ZM249.037 33.7797H248.165V35.8165H249.037H249.91V33.7797H249.037ZM249.037 35.8165L249.09 34.9456L241.829 34.5029L241.776 35.3737L241.723 36.2445L248.984 36.6873L249.037 35.8165ZM241.776 35.3737L241.829 34.5029C240.392 34.4149 239.447 34.3684 239.031 34.3684V35.2409V36.1133C239.382 36.1133 240.267 36.1554 241.722 36.2445L241.776 35.3737ZM239.031 35.2409H238.158V50.0735H239.031H239.903V35.2409H239.031ZM239.031 50.0735V50.9459C239.627 50.9459 240.609 50.8494 241.935 50.6726L241.82 49.8078L241.705 48.943C240.374 49.1204 239.497 49.201 239.031 49.201V50.0735ZM241.82 49.8078L241.932 50.673L249.769 49.6546L249.657 48.7894L249.545 47.9243L241.708 48.9426L241.82 49.8078ZM249.657 48.7894H248.785V50.959H249.657H250.529V48.7894H249.657ZM249.657 50.959V50.0865H236.02V50.959V51.8314H249.657V50.959ZM257.608 19.9655V19.0931H256.736V19.9655H257.608ZM270.802 21.9579L270.268 22.6472L270.274 22.6523L270.281 22.6573L270.802 21.9579ZM271.777 32.0087L271.129 31.4241L271.121 31.433L271.777 32.0087ZM267.127 34.4439L266.954 33.5889L266.255 33.7307V34.4439H267.127ZM267.127 34.7095H266.255V35.4269L266.959 35.5655L267.127 34.7095ZM271.909 37.4547L271.247 38.0225L271.909 37.4547ZM274.699 42.8121L275.537 42.5708L275.536 42.5678L274.699 42.8121ZM276.337 47.3726L275.552 47.7543L275.559 47.7671L275.565 47.7798L276.337 47.3726ZM278.152 49.675L277.639 50.3805L277.647 50.3859L277.654 50.3912L278.152 49.675ZM280.543 50.6933H281.416V49.9959L280.735 49.8423L280.543 50.6933ZM280.543 50.959V51.8314H281.416V50.959H280.543ZM275.496 50.2506L275.063 51.0081L275.074 51.0145L275.496 50.2506ZM273.37 47.8596L272.598 48.266L273.37 47.8596ZM271.688 43.2106L272.531 42.9842L272.528 42.9742L271.688 43.2106ZM268.279 36.7463L267.697 37.3961L268.279 36.7463ZM262.833 34.8424H261.96V35.7148H262.833V34.8424ZM262.833 34.0454V33.173H261.96V34.0454H262.833ZM260.619 21.0281V20.1557H259.746V21.0281H260.619ZM260.619 50.959V51.8314H261.491V50.959H260.619ZM257.608 50.959H256.736V51.8314H257.608V50.959ZM257.608 19.9655V20.8379H263.541V19.9655V19.0931H257.608V19.9655ZM263.541 19.9655V20.8379C266.56 20.8379 268.763 21.4802 270.268 22.6472L270.802 21.9579L271.337 21.2686C269.417 19.7791 266.78 19.0931 263.541 19.0931V19.9655ZM270.802 21.9579L270.281 22.6573C271.78 23.7755 272.542 25.3345 272.542 27.4482H273.415H274.287C274.287 24.8391 273.308 22.7379 271.324 21.2586L270.802 21.9579ZM273.415 27.4482H272.542C272.542 29.0909 272.058 30.3942 271.129 31.4242L271.777 32.0087L272.424 32.5932C273.679 31.2027 274.287 29.4658 274.287 27.4482H273.415ZM271.777 32.0087L271.121 31.433C270.217 32.4631 268.858 33.2025 266.954 33.5889L267.127 34.4439L267.301 35.2989C269.47 34.8588 271.211 33.9747 272.432 32.5843L271.777 32.0087ZM267.127 34.4439H266.255V34.7095H267.127H268V34.4439H267.127ZM267.127 34.7095L266.959 35.5655C268.724 35.9131 270.14 36.7316 271.247 38.0225L271.909 37.4547L272.572 36.8869C271.199 35.2851 269.428 34.2734 267.296 33.8536L267.127 34.7095ZM271.909 37.4547L271.247 38.0225C272.394 39.3606 273.27 41.031 273.861 43.0564L274.699 42.8121L275.536 42.5678C274.887 40.3427 273.904 38.4415 272.572 36.8869L271.909 37.4547ZM274.699 42.8121L273.86 43.0535C274.427 45.0225 274.989 46.5971 275.552 47.7543L276.337 47.3726L277.122 46.9909C276.622 45.9638 276.092 44.4981 275.537 42.5708L274.699 42.8121ZM276.337 47.3726L275.565 47.7798C276.16 48.9068 276.842 49.8007 277.639 50.3805L278.152 49.675L278.665 48.9694C278.164 48.6047 277.635 47.9637 277.109 46.9654L276.337 47.3726ZM278.152 49.675L277.654 50.3912C278.437 50.9358 279.341 51.3162 280.351 51.5443L280.543 50.6933L280.735 49.8423C279.915 49.6572 279.225 49.3587 278.651 48.9588L278.152 49.675ZM280.543 50.6933H279.671V50.959H280.543H281.416V50.6933H280.543ZM280.543 50.959V50.0865H278.728V50.959V51.8314H280.543V50.959ZM278.728 50.959V50.0865C277.53 50.0865 276.609 49.8682 275.917 49.4867L275.496 50.2506L275.074 51.0145C276.095 51.5775 277.328 51.8314 278.728 51.8314V50.959ZM275.496 50.2506L275.929 49.4931C275.287 49.1263 274.681 48.4756 274.143 47.4533L273.37 47.8596L272.598 48.266C273.241 49.487 274.052 50.4303 275.063 51.0081L275.496 50.2506ZM273.37 47.8596L274.143 47.4533C273.595 46.4128 273.054 44.9326 272.531 42.9843L271.688 43.2106L270.845 43.437C271.385 45.4439 271.965 47.0631 272.598 48.266L273.37 47.8596ZM271.688 43.2106L272.528 42.9742C271.653 39.8687 270.458 37.5272 268.861 36.0964L268.279 36.7463L267.697 37.3961C268.933 38.5038 270.01 40.4719 270.848 43.4471L271.688 43.2106ZM268.279 36.7463L268.861 36.0964C267.272 34.6732 265.333 33.9699 263.098 33.9699V34.8424V35.7148C264.937 35.7148 266.452 36.2808 267.697 37.3961L268.279 36.7463ZM263.098 34.8424V33.9699H262.833V34.8424V35.7148H263.098V34.8424ZM262.833 34.8424H263.705V34.0454H262.833H261.96V34.8424H262.833ZM262.833 34.0454V34.9178H263.098V34.0454V33.173H262.833V34.0454ZM263.098 34.0454V34.9178C265.592 34.9178 267.624 34.3464 269.035 33.0495C270.46 31.7398 271.099 29.831 271.099 27.4925H270.227H269.354C269.354 29.5226 268.806 30.8903 267.854 31.7649C266.889 32.6523 265.357 33.173 263.098 33.173V34.0454ZM270.227 27.4925H271.099C271.099 25.1956 270.504 23.3145 269.162 22.017C267.825 20.7248 265.897 20.1557 263.541 20.1557V21.0281V21.9006C265.642 21.9006 267.057 22.4089 267.949 23.2714C268.836 24.1287 269.354 25.4798 269.354 27.4925H270.227ZM263.541 21.0281V20.1557H260.619V21.0281V21.9006H263.541V21.0281ZM260.619 21.0281H259.746V50.959H260.619H261.491V21.0281H260.619ZM260.619 50.959V50.0865H257.608V50.959V51.8314H260.619V50.959ZM257.608 50.959H258.48V19.9655H257.608H256.736V50.959H257.608Z" fill="white" mask="url(#path-1-outside-1_2_2176)"/>
<path d="M156.039 69.85C155.554 69.85 155.179 69.756 154.912 69.5682C154.654 69.3803 154.526 69.1282 154.526 68.8118C154.526 68.5349 154.62 68.3223 154.808 68.174C155.005 68.0257 155.233 67.9515 155.49 67.9515C155.747 67.9515 155.974 68.0109 156.172 68.1295C156.37 68.2383 156.553 68.4311 156.721 68.7079L156.988 69.1677C157.037 69.2369 157.097 69.2715 157.166 69.2715C157.245 69.2715 157.299 69.2271 157.329 69.1381C157.388 68.9403 157.428 68.6536 157.448 68.2778C157.477 67.8922 157.492 67.4275 157.492 66.8837C157.492 66.2608 157.477 65.4599 157.448 64.481C157.418 63.5021 157.388 62.2958 157.359 60.8621C157.359 60.4369 157.201 60.1699 156.884 60.0612L156.543 59.9425V59.7942H160.429V59.9425L160.103 60.0612C159.925 60.1304 159.801 60.2243 159.732 60.343C159.672 60.4517 159.643 60.6099 159.643 60.8176V63.7542C159.643 64.7232 159.598 65.5241 159.509 66.1569C159.42 66.7897 159.277 67.3385 159.079 67.8032C158.832 68.4657 158.427 68.9749 157.863 69.3309C157.309 69.6769 156.701 69.85 156.039 69.85ZM165.566 62.2266C166.209 62.2266 166.758 62.3601 167.213 62.627C167.667 62.8841 168.014 63.2401 168.251 63.6949C168.498 64.1398 168.622 64.6491 168.622 65.2225C168.622 65.3313 168.617 65.445 168.607 65.5637C168.597 65.6724 168.577 65.7713 168.548 65.8603H164.128C164.138 66.9282 164.325 67.6994 164.691 68.174C165.067 68.6387 165.621 68.8711 166.352 68.8711C166.847 68.8711 167.247 68.792 167.554 68.6338C167.86 68.4756 168.147 68.2432 168.414 67.9367L168.562 68.0702C168.256 68.614 167.845 69.0392 167.331 69.3457C166.827 69.6522 166.219 69.8055 165.507 69.8055C164.805 69.8055 164.182 69.6572 163.638 69.3605C163.094 69.054 162.669 68.619 162.363 68.0554C162.056 67.4918 161.903 66.8194 161.903 66.0383C161.903 65.2275 162.081 64.5403 162.437 63.9767C162.793 63.4032 163.248 62.9682 163.801 62.6715C164.365 62.3749 164.953 62.2266 165.566 62.2266ZM165.522 62.5232C165.235 62.5232 164.988 62.6122 164.78 62.7902C164.583 62.9583 164.424 63.2648 164.306 63.7097C164.197 64.1448 164.138 64.7628 164.128 65.5637H166.664C166.763 64.4859 166.723 63.7097 166.545 63.2351C166.367 62.7605 166.026 62.5232 165.522 62.5232ZM173.53 69.6275L171.246 63.3538C171.137 63.0374 170.919 62.8149 170.593 62.6864L170.341 62.5974V62.4491H173.975V62.5974L173.752 62.6567C173.367 62.7753 173.238 63.0127 173.367 63.3686L174.746 67.5659L175.977 64.303L175.695 63.4576C175.626 63.2401 175.552 63.0769 175.473 62.9682C175.404 62.8495 175.31 62.7655 175.191 62.716L174.939 62.5974V62.4491H178.009V62.5974L177.801 62.6864C177.653 62.7457 177.564 62.8248 177.534 62.9237C177.505 63.0225 177.524 63.1709 177.594 63.3686L178.958 67.4918L180.367 63.3983C180.506 63.0225 180.431 62.7852 180.145 62.6864L179.818 62.5974V62.4491H181.598V62.5974L181.242 62.7012C181.074 62.7506 180.951 62.8297 180.871 62.9385C180.802 63.0374 180.738 63.1758 180.679 63.3538L178.543 69.6275H177.786L176.14 64.7776L174.39 69.6275H173.53ZM186.595 62.2266C187.237 62.2266 187.786 62.3601 188.241 62.627C188.696 62.8841 189.042 63.2401 189.279 63.6949C189.526 64.1398 189.65 64.6491 189.65 65.2225C189.65 65.3313 189.645 65.445 189.635 65.5637C189.625 65.6724 189.605 65.7713 189.576 65.8603H185.156C185.166 66.9282 185.354 67.6994 185.72 68.174C186.095 68.6387 186.649 68.8711 187.381 68.8711C187.875 68.8711 188.276 68.792 188.582 68.6338C188.889 68.4756 189.175 68.2432 189.442 67.9367L189.591 68.0702C189.284 68.614 188.874 69.0392 188.36 69.3457C187.855 69.6522 187.247 69.8055 186.535 69.8055C185.833 69.8055 185.21 69.6572 184.667 69.3605C184.123 69.054 183.698 68.619 183.391 68.0554C183.085 67.4918 182.931 66.8194 182.931 66.0383C182.931 65.2275 183.109 64.5403 183.465 63.9767C183.821 63.4032 184.276 62.9682 184.83 62.6715C185.393 62.3749 185.982 62.2266 186.595 62.2266ZM186.55 62.5232C186.263 62.5232 186.016 62.6122 185.809 62.7902C185.611 62.9583 185.453 63.2648 185.334 63.7097C185.225 64.1448 185.166 64.7628 185.156 65.5637H187.692C187.791 64.4859 187.752 63.7097 187.574 63.2351C187.396 62.7605 187.054 62.5232 186.55 62.5232ZM191.388 69.583V69.4347L191.566 69.3754C191.922 69.2567 192.1 69.0095 192.1 68.6338V60.6989C192.1 60.5012 192.061 60.3529 191.982 60.254C191.903 60.1452 191.764 60.0661 191.566 60.0167L191.374 59.9722V59.8239L194.088 59.1861L194.266 59.3196L194.206 61.396V66.4684C194.206 66.8342 194.206 67.2001 194.206 67.5659C194.216 67.9219 194.221 68.2778 194.221 68.6338C194.221 68.8315 194.261 68.9947 194.34 69.1232C194.419 69.2419 194.552 69.3309 194.74 69.3902L194.933 69.4347V69.583H191.388ZM196.774 69.583V69.4347L196.997 69.3754C197.194 69.316 197.328 69.2271 197.397 69.1084C197.476 68.9897 197.516 68.8365 197.516 68.6486V64.0064C197.516 63.7888 197.476 63.6306 197.397 63.5318C197.328 63.423 197.194 63.3488 196.997 63.3093L196.774 63.25V63.1016L199.325 62.2414L199.473 62.3897L199.607 63.6652V63.7839C199.745 63.507 199.923 63.2549 200.141 63.0275C200.368 62.7902 200.616 62.5974 200.882 62.4491C201.159 62.3007 201.431 62.2266 201.698 62.2266C202.074 62.2266 202.361 62.3304 202.558 62.538C202.756 62.7457 202.855 63.0077 202.855 63.3241C202.855 63.6603 202.756 63.9223 202.558 64.1102C202.371 64.2882 202.143 64.3772 201.876 64.3772C201.461 64.3772 201.095 64.1695 200.779 63.7542L200.749 63.7246C200.65 63.5861 200.536 63.512 200.408 63.5021C200.279 63.4823 200.161 63.5416 200.052 63.6801C199.953 63.7691 199.869 63.8778 199.8 64.0064C199.74 64.125 199.681 64.2634 199.622 64.4216V68.5596C199.622 68.9551 199.795 69.2023 200.141 69.3012L200.616 69.4347V69.583H196.774ZM206.104 73.1426C205.708 73.1426 205.392 73.0437 205.154 72.8459C204.927 72.6482 204.813 72.396 204.813 72.0895C204.813 71.8127 204.912 71.5902 205.11 71.4221C205.308 71.254 205.53 71.17 205.777 71.17C206.025 71.17 206.232 71.2194 206.4 71.3183C206.568 71.4271 206.717 71.5803 206.845 71.7781L206.949 71.8967C207.167 72.1934 207.384 72.1884 207.602 71.8819C207.691 71.7336 207.789 71.5358 207.898 71.2886C208.017 71.0513 208.15 70.73 208.299 70.3246L205.421 63.4428C205.352 63.2549 205.278 63.1066 205.199 62.9978C205.12 62.8792 204.991 62.7803 204.813 62.7012L204.546 62.5974V62.4491H208.239V62.5825L207.943 62.7012C207.725 62.7704 207.612 62.8841 207.602 63.0423C207.602 63.1906 207.641 63.3785 207.72 63.6059L209.263 67.6104L210.731 63.5614C210.81 63.334 210.84 63.1461 210.82 62.9978C210.8 62.8396 210.677 62.7309 210.449 62.6715L210.138 62.5974V62.4491H212.199V62.5974L211.873 62.7012C211.646 62.7704 211.487 62.8693 211.398 62.9978C211.309 63.1264 211.225 63.3043 211.146 63.5318L208.758 70.0428C208.373 71.081 207.987 71.8572 207.602 72.3713C207.216 72.8855 206.717 73.1426 206.104 73.1426Z" fill="white"/>
<path d="M74.6455 30.0288L61.6678 12.4413C61.6678 12.4413 61.5953 12.3539 61.5832 12.3385L61.5349 12.2871L61.4624 12.2254L61.4021 12.1792L61.3296 12.1278L61.239 12.0764L61.1967 12.0558C61.1545 12.0353 61.1061 12.0147 61.0941 12.0096L61.0578 11.9941C61.0578 11.9941 60.9672 11.9633 60.937 11.953L60.8465 11.9325L60.7982 11.9222C60.7559 11.9171 60.7196 11.9068 60.6774 11.9068L60.5506 11.8965H32.3244C30.8871 12.395 30.0779 13.0477 29.474 14.2247H35.0963L25.8869 28.2608L16.6774 14.2247H22.2997C21.6958 13.0477 20.8866 12.395 19.4493 11.8965H14.2196L14.1109 11.9119L13.984 11.9325L13.9478 11.9427C13.7365 11.9993 13.5432 12.0969 13.3681 12.246C13.3379 12.2717 13.3016 12.3025 13.2413 12.3745L13.2111 12.4104L0.209156 30.0288C-0.104871 30.4554 -0.0626024 31.0053 0.317853 31.3959L36.3826 68.3082L36.4007 68.3287L36.443 68.3647C36.4913 68.4109 36.5456 68.4521 36.5819 68.4726L36.6483 68.5137L36.6966 68.5548L36.9201 68.6371C36.9684 68.6525 37.0167 68.6679 37.0288 68.6679L37.065 68.6782L37.1616 68.6988C37.2522 68.7142 37.3367 68.7245 37.4273 68.7245C37.5179 68.7245 37.6085 68.7142 37.6387 68.709L37.7051 68.6988L37.7836 68.6833C37.8501 68.6679 37.9104 68.6474 37.9527 68.6319L38.2184 68.5394L38.2788 68.4675C38.3271 68.4315 38.3755 68.3955 38.4238 68.3493L74.5428 31.3856C74.9233 30.995 74.9656 30.4503 74.6516 30.0185L74.6455 30.0288ZM58.1712 14.2247L48.9618 28.2608L39.7523 14.2247H58.1712ZM3.04143 30.553L14.2679 15.3451L24.6006 31.0927L34.4984 62.7523L3.04143 30.553ZM37.4213 63.035L27.3422 30.8049L37.4213 15.4479L47.5003 30.8049L37.4213 63.035ZM40.3442 62.7523L50.242 31.0927L60.5747 15.3451L71.8012 30.553L40.3442 62.7523Z" fill="#CE9461"/>
<path d="M25.8808 17.5365C27.463 11.3382 28.7433 10.2486 36.0263 8.90203C28.7433 7.55547 27.463 6.46588 25.8808 0.267578C24.2986 6.46588 23.0183 7.55547 15.7354 8.90203C23.0183 10.2486 24.2986 11.3382 25.8808 17.5365Z" fill="#CE9461"/>
<path d="M148.528 67.0905H86.9742C86.6428 67.0905 86.3716 66.7563 86.3716 66.348C86.3716 65.9396 86.6428 65.6055 86.9742 65.6055H148.528C148.86 65.6055 149.131 65.9396 149.131 66.348C149.131 66.7563 148.86 67.0905 148.528 67.0905Z" fill="#CE9461"/>
<path d="M280.323 67.0905H218.769C218.437 67.0905 218.166 66.7563 218.166 66.348C218.166 65.9396 218.437 65.6055 218.769 65.6055H280.323C280.655 65.6055 280.926 65.9396 280.926 66.348C280.926 66.7563 280.655 67.0905 280.323 67.0905Z" fill="#CE9461"/>
</svg>
