<svg width="199" height="53" viewBox="0 0 199 53" fill="none" xmlns="http://www.w3.org/2000/svg">
<mask id="path-1-outside-1_2_1712" maskUnits="userSpaceOnUse" x="60.1514" y="12.8451" width="139" height="25" fill="black">
<rect fill="white" x="60.1514" y="12.8451" width="139" height="25"/>
<path d="M74.1298 25.4634V24.7129H82.0412V33.2184C81.0822 34.1773 79.9044 34.9278 78.5076 35.4698C77.1317 36.0118 75.5891 36.2828 73.8796 36.2828C72.1285 36.2828 70.5129 36.0014 69.0328 35.4385C67.5526 34.8548 66.2601 34.0522 65.1552 33.0307C64.0504 31.9884 63.1852 30.7793 62.5598 29.4034C61.9553 28.0275 61.653 26.5265 61.653 24.9005C61.653 23.2744 61.9553 21.7735 62.5598 20.3976C63.1852 19.0217 64.0504 17.823 65.1552 16.8015C66.2601 15.7592 67.5526 14.9566 69.0328 14.3937C70.5129 13.81 72.1285 13.5181 73.8796 13.5181C74.6301 13.5181 75.4431 13.5703 76.3187 13.6745C77.2151 13.7787 78.0698 13.9246 78.8829 14.1123C79.6959 14.279 80.3838 14.4875 80.9467 14.7377L80.7903 16.4888H80.6027C79.7689 15.7592 78.7682 15.2067 77.6008 14.8315C76.4334 14.4562 75.193 14.2686 73.8796 14.2686C71.92 14.2686 70.2002 14.7168 68.72 15.6132C67.2399 16.4888 66.0829 17.7292 65.2491 19.3344C64.436 20.9188 64.0295 22.7741 64.0295 24.9005C64.0295 27.0269 64.436 28.8927 65.2491 30.4979C66.0829 32.0822 67.2399 33.3226 68.72 34.219C70.2002 35.0946 71.92 35.5324 73.8796 35.5324C75.0887 35.5324 76.2041 35.3656 77.2255 35.032C78.2679 34.6985 79.1643 34.219 79.9148 33.5936V25.4634H74.1298ZM88.2962 13.9559H90.4225V35.2197C90.8186 35.2197 91.444 35.1571 92.2988 35.032L97.4896 34.2503V35.8451H88.2962V13.9559ZM101.772 35.8451V13.9559H103.898V35.8451H101.772ZM131.701 13.9559V35.8451H129.575V15.7696H129.387L121.82 30.279H120.85L112.251 17.4895H112.063L112.751 35.8451H110.625L111.407 13.5181H112.032L121.882 28.1526H122.07L129.45 13.9559H131.701ZM159.499 13.9559V35.8451H157.372V15.7696H157.185L149.617 30.279H148.648L140.049 17.4895H139.861L140.549 35.8451H138.423L139.204 13.5181H139.83L149.68 28.1526H149.867L157.247 13.9559H159.499ZM166.689 35.8451V13.9559H176.227V15.4882L170.754 14.7689C169.795 14.6439 169.149 14.5813 168.815 14.5813V24.1187C169.086 24.1187 169.733 24.0875 170.754 24.0249L175.883 23.7122V25.1507L170.754 24.838C169.733 24.7754 169.086 24.7441 168.815 24.7441V35.2197C169.191 35.2197 169.847 35.1571 170.786 35.032L176.32 34.3128V35.8451H166.689ZM181.936 13.9559H186.126C188.336 13.9559 190.045 14.425 191.254 15.3631C192.484 16.2803 193.099 17.5728 193.099 19.2406C193.099 20.5331 192.714 21.6067 191.942 22.4614C191.192 23.3161 190.097 23.8894 188.659 24.1813V24.3689C190.035 24.6399 191.16 25.2862 192.036 26.3077C192.912 27.3291 193.568 28.5904 194.006 30.0913C194.402 31.4672 194.788 32.5408 195.163 33.3122C195.559 34.0627 195.987 34.6047 196.445 34.9382C196.925 35.2718 197.487 35.5115 198.134 35.6574V35.8451H196.852C195.934 35.8451 195.173 35.6783 194.569 35.3447C193.985 35.0112 193.485 34.4483 193.068 33.6561C192.651 32.864 192.255 31.7695 191.88 30.3728C191.275 28.2256 190.473 26.7037 189.472 25.8073C188.471 24.9109 187.252 24.4627 185.813 24.4627H185.626V23.8998H185.813C189.17 23.8998 190.848 22.3572 190.848 19.2719C190.848 16.2282 189.274 14.7064 186.126 14.7064H184.062V35.8451H181.936V13.9559Z"/>
</mask>
<path d="M74.1298 25.4634V24.7129H82.0412V33.2184C81.0822 34.1773 79.9044 34.9278 78.5076 35.4698C77.1317 36.0118 75.5891 36.2828 73.8796 36.2828C72.1285 36.2828 70.5129 36.0014 69.0328 35.4385C67.5526 34.8548 66.2601 34.0522 65.1552 33.0307C64.0504 31.9884 63.1852 30.7793 62.5598 29.4034C61.9553 28.0275 61.653 26.5265 61.653 24.9005C61.653 23.2744 61.9553 21.7735 62.5598 20.3976C63.1852 19.0217 64.0504 17.823 65.1552 16.8015C66.2601 15.7592 67.5526 14.9566 69.0328 14.3937C70.5129 13.81 72.1285 13.5181 73.8796 13.5181C74.6301 13.5181 75.4431 13.5703 76.3187 13.6745C77.2151 13.7787 78.0698 13.9246 78.8829 14.1123C79.6959 14.279 80.3838 14.4875 80.9467 14.7377L80.7903 16.4888H80.6027C79.7689 15.7592 78.7682 15.2067 77.6008 14.8315C76.4334 14.4562 75.193 14.2686 73.8796 14.2686C71.92 14.2686 70.2002 14.7168 68.72 15.6132C67.2399 16.4888 66.0829 17.7292 65.2491 19.3344C64.436 20.9188 64.0295 22.7741 64.0295 24.9005C64.0295 27.0269 64.436 28.8927 65.2491 30.4979C66.0829 32.0822 67.2399 33.3226 68.72 34.219C70.2002 35.0946 71.92 35.5324 73.8796 35.5324C75.0887 35.5324 76.2041 35.3656 77.2255 35.032C78.2679 34.6985 79.1643 34.219 79.9148 33.5936V25.4634H74.1298ZM88.2962 13.9559H90.4225V35.2197C90.8186 35.2197 91.444 35.1571 92.2988 35.032L97.4896 34.2503V35.8451H88.2962V13.9559ZM101.772 35.8451V13.9559H103.898V35.8451H101.772ZM131.701 13.9559V35.8451H129.575V15.7696H129.387L121.82 30.279H120.85L112.251 17.4895H112.063L112.751 35.8451H110.625L111.407 13.5181H112.032L121.882 28.1526H122.07L129.45 13.9559H131.701ZM159.499 13.9559V35.8451H157.372V15.7696H157.185L149.617 30.279H148.648L140.049 17.4895H139.861L140.549 35.8451H138.423L139.204 13.5181H139.83L149.68 28.1526H149.867L157.247 13.9559H159.499ZM166.689 35.8451V13.9559H176.227V15.4882L170.754 14.7689C169.795 14.6439 169.149 14.5813 168.815 14.5813V24.1187C169.086 24.1187 169.733 24.0875 170.754 24.0249L175.883 23.7122V25.1507L170.754 24.838C169.733 24.7754 169.086 24.7441 168.815 24.7441V35.2197C169.191 35.2197 169.847 35.1571 170.786 35.032L176.32 34.3128V35.8451H166.689ZM181.936 13.9559H186.126C188.336 13.9559 190.045 14.425 191.254 15.3631C192.484 16.2803 193.099 17.5728 193.099 19.2406C193.099 20.5331 192.714 21.6067 191.942 22.4614C191.192 23.3161 190.097 23.8894 188.659 24.1813V24.3689C190.035 24.6399 191.16 25.2862 192.036 26.3077C192.912 27.3291 193.568 28.5904 194.006 30.0913C194.402 31.4672 194.788 32.5408 195.163 33.3122C195.559 34.0627 195.987 34.6047 196.445 34.9382C196.925 35.2718 197.487 35.5115 198.134 35.6574V35.8451H196.852C195.934 35.8451 195.173 35.6783 194.569 35.3447C193.985 35.0112 193.485 34.4483 193.068 33.6561C192.651 32.864 192.255 31.7695 191.88 30.3728C191.275 28.2256 190.473 26.7037 189.472 25.8073C188.471 24.9109 187.252 24.4627 185.813 24.4627H185.626V23.8998H185.813C189.17 23.8998 190.848 22.3572 190.848 19.2719C190.848 16.2282 189.274 14.7064 186.126 14.7064H184.062V35.8451H181.936V13.9559Z" fill="#1E3231"/>
<path d="M74.1298 25.4634H73.5136V26.0795H74.1298V25.4634ZM74.1298 24.7129V24.0967H73.5136V24.7129H74.1298ZM82.0412 24.7129H82.6573V24.0967H82.0412V24.7129ZM82.0412 33.2184L82.4768 33.6541L82.6573 33.4736V33.2184H82.0412ZM78.5076 35.4698L78.2847 34.8954L78.2818 34.8965L78.5076 35.4698ZM69.0328 35.4385L68.8067 36.0118L68.8137 36.0145L69.0328 35.4385ZM65.1552 33.0307L64.7324 33.479L64.737 33.4832L65.1552 33.0307ZM62.5598 29.4034L61.9957 29.6513L61.9989 29.6584L62.5598 29.4034ZM62.5598 20.3976L61.9988 20.1426L61.9957 20.1497L62.5598 20.3976ZM65.1552 16.8015L65.5736 17.254L65.5781 17.2497L65.1552 16.8015ZM69.0328 14.3937L69.2518 14.9697L69.2588 14.9669L69.0328 14.3937ZM76.3187 13.6745L76.2459 14.2863L76.2475 14.2865L76.3187 13.6745ZM78.8829 14.1123L78.7443 14.7127L78.7517 14.7143L78.7591 14.7159L78.8829 14.1123ZM80.9467 14.7377L81.5604 14.7925L81.5996 14.3536L81.1969 14.1746L80.9467 14.7377ZM80.7903 16.4888V17.105H81.3539L81.4041 16.5436L80.7903 16.4888ZM80.6027 16.4888L80.197 16.9525L80.3712 17.105H80.6027V16.4888ZM68.72 15.6132L69.0338 16.1436L69.0392 16.1403L68.72 15.6132ZM65.2491 19.3344L64.7023 19.0503L64.7009 19.0531L65.2491 19.3344ZM65.2491 30.4979L64.6993 30.7763L64.7038 30.7848L65.2491 30.4979ZM68.72 34.219L68.4008 34.7461L68.4063 34.7493L68.72 34.219ZM77.2255 35.032L77.0377 34.4452L77.0343 34.4463L77.2255 35.032ZM79.9148 33.5936L80.3092 34.067L80.5309 33.8822V33.5936H79.9148ZM79.9148 25.4634H80.5309V24.8472H79.9148V25.4634ZM74.1298 25.4634H74.746V24.7129H74.1298H73.5136V25.4634H74.1298ZM74.1298 24.7129V25.329H82.0412V24.7129V24.0967H74.1298V24.7129ZM82.0412 24.7129H81.425V33.2184H82.0412H82.6573V24.7129H82.0412ZM82.0412 33.2184L81.6055 32.7827C80.7131 33.675 79.6101 34.3811 78.2847 34.8954L78.5076 35.4698L78.7305 36.0442C80.1987 35.4745 81.4513 34.6796 82.4768 33.6541L82.0412 33.2184ZM78.5076 35.4698L78.2818 34.8965C76.9881 35.4062 75.5237 35.6667 73.8796 35.6667V36.2828V36.899C75.6545 36.899 77.2754 36.6175 78.7335 36.0431L78.5076 35.4698ZM73.8796 36.2828V35.6667C72.1954 35.6667 70.6549 35.3962 69.2518 34.8626L69.0328 35.4385L68.8137 36.0145C70.3708 36.6066 72.0616 36.899 73.8796 36.899V36.2828ZM69.0328 35.4385L69.2588 34.8654C67.8456 34.308 66.6192 33.5451 65.5735 32.5783L65.1552 33.0307L64.737 33.4832C65.9011 34.5594 67.2597 35.4017 68.8067 36.0117L69.0328 35.4385ZM65.1552 33.0307L65.5781 32.5826C64.531 31.5948 63.7129 30.4512 63.1208 29.1484L62.5598 29.4034L61.9989 29.6584C62.6575 31.1074 63.5697 32.382 64.7324 33.4789L65.1552 33.0307ZM62.5598 29.4034L63.1239 29.1555C62.5564 27.864 62.2691 26.4483 62.2691 24.9005H61.653H61.0368C61.0368 26.6048 61.3541 28.191 61.9957 29.6513L62.5598 29.4034ZM61.653 24.9005H62.2691C62.2691 23.3527 62.5564 21.937 63.1239 20.6454L62.5598 20.3976L61.9957 20.1497C61.3541 21.61 61.0368 23.1962 61.0368 24.9005H61.653ZM62.5598 20.3976L63.1208 20.6526C63.7124 19.351 64.5291 18.2195 65.5735 17.2539L65.1552 16.8015L64.737 16.3491C63.5716 17.4265 62.6581 18.6924 61.9989 20.1426L62.5598 20.3976ZM65.1552 16.8015L65.5781 17.2497C66.6216 16.2653 67.844 15.505 69.2518 14.9696L69.0328 14.3937L68.8137 13.8178C67.2612 14.4082 65.8987 15.2531 64.7324 16.3533L65.1552 16.8015ZM69.0328 14.3937L69.2588 14.9669C70.66 14.4143 72.1981 14.1343 73.8796 14.1343V13.5181V12.902C72.0589 12.902 70.3657 13.2057 68.8067 13.8205L69.0328 14.3937ZM73.8796 13.5181V14.1343C74.602 14.1343 75.3904 14.1845 76.2459 14.2863L76.3187 13.6745L76.3915 13.0626C75.4959 12.956 74.6582 12.902 73.8796 12.902V13.5181ZM76.3187 13.6745L76.2475 14.2865C77.1231 14.3883 77.9552 14.5306 78.7443 14.7127L78.8829 14.1123L79.0214 13.5119C78.1845 13.3187 77.3071 13.1691 76.3899 13.0625L76.3187 13.6745ZM78.8829 14.1123L78.7591 14.7159C79.5425 14.8766 80.1854 15.0736 80.6965 15.3007L80.9467 14.7377L81.1969 14.1746C80.5823 13.9014 79.8492 13.6815 79.0067 13.5087L78.8829 14.1123ZM80.9467 14.7377L80.333 14.6829L80.1766 16.434L80.7903 16.4888L81.4041 16.5436L81.5604 14.7925L80.9467 14.7377ZM80.7903 16.4888V15.8726H80.6027V16.4888V17.105H80.7903V16.4888ZM80.6027 16.4888L81.0085 16.0251C80.1049 15.2345 79.0282 14.6431 77.7893 14.2449L77.6008 14.8315L77.4122 15.4181C78.5082 15.7704 79.4328 16.2839 80.197 16.9525L80.6027 16.4888ZM77.6008 14.8315L77.7893 14.2449C76.5568 13.8487 75.2524 13.6525 73.8796 13.6525V14.2686V14.8848C75.1335 14.8848 76.3099 15.0638 77.4122 15.4181L77.6008 14.8315ZM73.8796 14.2686V13.6525C71.8227 13.6525 69.9895 14.1241 68.4009 15.0862L68.72 15.6132L69.0392 16.1403C70.4108 15.3096 72.0173 14.8848 73.8796 14.8848V14.2686ZM68.72 15.6132L68.4063 15.0829C66.8218 16.0203 65.5864 17.3484 64.7023 19.0504L65.2491 19.3344L65.7958 19.6184C66.5795 18.11 67.6581 16.9573 69.0338 16.1436L68.72 15.6132ZM65.2491 19.3344L64.7009 19.0531C63.8353 20.7398 63.4134 22.6951 63.4134 24.9005H64.0295H64.6457C64.6457 22.8531 65.0368 21.0977 65.7973 19.6157L65.2491 19.3344ZM64.0295 24.9005H63.4134C63.4134 27.1061 63.8354 29.0704 64.6994 30.7763L65.2491 30.4979L65.7987 30.2194C65.0367 28.7149 64.6457 26.9476 64.6457 24.9005H64.0295ZM65.2491 30.4979L64.7038 30.7848C65.5879 32.4647 66.8215 33.7896 68.4009 34.7461L68.72 34.219L69.0392 33.692C67.6583 32.8556 66.5779 31.6998 65.7943 30.2109L65.2491 30.4979ZM68.72 34.219L68.4063 34.7493C69.9941 35.6886 71.8254 36.1485 73.8796 36.1485V35.5324V34.9162C72.0147 34.9162 70.4062 34.5006 69.0338 33.6887L68.72 34.219ZM73.8796 35.5324V36.1485C75.1457 36.1485 76.3264 35.9738 77.4168 35.6178L77.2255 35.032L77.0343 34.4463C76.0817 34.7573 75.0318 34.9162 73.8796 34.9162V35.5324ZM77.2255 35.032L77.4133 35.6189C78.5222 35.2641 79.4909 34.7489 80.3092 34.067L79.9148 33.5936L79.5203 33.1203C78.8377 33.6891 78.0136 34.1329 77.0378 34.4452L77.2255 35.032ZM79.9148 33.5936H80.5309V25.4634H79.9148H79.2986V33.5936H79.9148ZM79.9148 25.4634V24.8472H74.1298V25.4634V26.0795H79.9148V25.4634ZM88.2962 13.9559V13.3398H87.68V13.9559H88.2962ZM90.4225 13.9559H91.0387V13.3398H90.4225V13.9559ZM90.4225 35.2197H89.8064V35.8358H90.4225V35.2197ZM92.2988 35.032L92.388 35.6417L92.3905 35.6413L92.2988 35.032ZM97.4896 34.2503H98.1058V33.5344L97.3979 33.641L97.4896 34.2503ZM97.4896 35.8451V36.4612H98.1058V35.8451H97.4896ZM88.2962 35.8451H87.68V36.4612H88.2962V35.8451ZM88.2962 13.9559V14.5721H90.4225V13.9559V13.3398H88.2962V13.9559ZM90.4225 13.9559H89.8064V35.2197H90.4225H91.0387V13.9559H90.4225ZM90.4225 35.2197V35.8358C90.8666 35.8358 91.5298 35.7673 92.388 35.6417L92.2988 35.032L92.2095 34.4224C91.3583 34.5469 90.7707 34.6035 90.4225 34.6035V35.2197ZM92.2988 35.032L92.3905 35.6413L97.5814 34.8596L97.4896 34.2503L97.3979 33.641L92.207 34.4227L92.2988 35.032ZM97.4896 34.2503H96.8734V35.8451H97.4896H98.1058V34.2503H97.4896ZM97.4896 35.8451V35.2289H88.2962V35.8451V36.4612H97.4896V35.8451ZM88.2962 35.8451H88.9123V13.9559H88.2962H87.68V35.8451H88.2962ZM101.772 35.8451H101.156V36.4612H101.772V35.8451ZM101.772 13.9559V13.3398H101.156V13.9559H101.772ZM103.898 13.9559H104.514V13.3398H103.898V13.9559ZM103.898 35.8451V36.4612H104.514V35.8451H103.898ZM101.772 35.8451H102.388V13.9559H101.772H101.156V35.8451H101.772ZM101.772 13.9559V14.5721H103.898V13.9559V13.3398H101.772V13.9559ZM103.898 13.9559H103.282V35.8451H103.898H104.514V13.9559H103.898ZM103.898 35.8451V35.2289H101.772V35.8451V36.4612H103.898V35.8451ZM131.701 13.9559H132.317V13.3398H131.701V13.9559ZM131.701 35.8451V36.4612H132.317V35.8451H131.701ZM129.575 35.8451H128.959V36.4612H129.575V35.8451ZM129.575 15.7696H130.191V15.1534H129.575V15.7696ZM129.387 15.7696V15.1534H129.014L128.841 15.4847L129.387 15.7696ZM121.82 30.279V30.8951H122.193L122.366 30.5639L121.82 30.279ZM120.85 30.279L120.339 30.6228L120.522 30.8951H120.85V30.279ZM112.251 17.4895L112.762 17.1457L112.579 16.8733H112.251V17.4895ZM112.063 17.4895V16.8733H111.424L111.448 17.5125L112.063 17.4895ZM112.751 35.8451V36.4612H113.391L113.367 35.822L112.751 35.8451ZM110.625 35.8451L110.009 35.8235L109.987 36.4612H110.625V35.8451ZM111.407 13.5181V12.902H110.812L110.791 13.4966L111.407 13.5181ZM112.032 13.5181L112.543 13.1741L112.36 12.902H112.032V13.5181ZM121.882 28.1526L121.371 28.4966L121.554 28.7688H121.882V28.1526ZM122.07 28.1526V28.7688H122.444L122.617 28.4368L122.07 28.1526ZM129.45 13.9559V13.3398H129.076L128.903 13.6717L129.45 13.9559ZM131.701 13.9559H131.085V35.8451H131.701H132.317V13.9559H131.701ZM131.701 35.8451V35.2289H129.575V35.8451V36.4612H131.701V35.8451ZM129.575 35.8451H130.191V15.7696H129.575H128.959V35.8451H129.575ZM129.575 15.7696V15.1534H129.387V15.7696V16.3858H129.575V15.7696ZM129.387 15.7696L128.841 15.4847L121.273 29.994L121.82 30.279L122.366 30.5639L129.933 16.0545L129.387 15.7696ZM121.82 30.279V29.6628H120.85V30.279V30.8951H121.82V30.279ZM120.85 30.279L121.362 29.9352L112.762 17.1457L112.251 17.4895L111.74 17.8333L120.339 30.6228L120.85 30.279ZM112.251 17.4895V16.8733H112.063V17.4895V18.1056H112.251V17.4895ZM112.063 17.4895L111.448 17.5125L112.136 35.8681L112.751 35.8451L113.367 35.822L112.679 17.4664L112.063 17.4895ZM112.751 35.8451V35.2289H110.625V35.8451V36.4612H112.751V35.8451ZM110.625 35.8451L111.241 35.8666L112.023 13.5397L111.407 13.5181L110.791 13.4966L110.009 35.8235L110.625 35.8451ZM111.407 13.5181V14.1343H112.032V13.5181V12.902H111.407V13.5181ZM112.032 13.5181L111.521 13.8622L121.371 28.4966L121.882 28.1526L122.393 27.8085L112.543 13.1741L112.032 13.5181ZM121.882 28.1526V28.7688H122.07V28.1526V27.5364H121.882V28.1526ZM122.07 28.1526L122.617 28.4368L129.996 14.2401L129.45 13.9559L128.903 13.6717L121.523 27.8684L122.07 28.1526ZM129.45 13.9559V14.5721H131.701V13.9559V13.3398H129.45V13.9559ZM159.499 13.9559H160.115V13.3398H159.499V13.9559ZM159.499 35.8451V36.4612H160.115V35.8451H159.499ZM157.372 35.8451H156.756V36.4612H157.372V35.8451ZM157.372 15.7696H157.988V15.1534H157.372V15.7696ZM157.185 15.7696V15.1534H156.811L156.638 15.4847L157.185 15.7696ZM149.617 30.279V30.8951H149.991L150.164 30.5639L149.617 30.279ZM148.648 30.279L148.137 30.6228L148.32 30.8951H148.648V30.279ZM140.049 17.4895L140.56 17.1457L140.377 16.8733H140.049V17.4895ZM139.861 17.4895V16.8733H139.221L139.245 17.5125L139.861 17.4895ZM140.549 35.8451V36.4612H141.189L141.165 35.822L140.549 35.8451ZM138.423 35.8451L137.807 35.8235L137.784 36.4612H138.423V35.8451ZM139.204 13.5181V12.902H138.609L138.589 13.4966L139.204 13.5181ZM139.83 13.5181L140.341 13.1741L140.158 12.902H139.83V13.5181ZM149.68 28.1526L149.169 28.4966L149.352 28.7688H149.68V28.1526ZM149.867 28.1526V28.7688H150.242L150.414 28.4368L149.867 28.1526ZM157.247 13.9559V13.3398H156.873L156.701 13.6717L157.247 13.9559ZM159.499 13.9559H158.883V35.8451H159.499H160.115V13.9559H159.499ZM159.499 35.8451V35.2289H157.372V35.8451V36.4612H159.499V35.8451ZM157.372 35.8451H157.988V15.7696H157.372H156.756V35.8451H157.372ZM157.372 15.7696V15.1534H157.185V15.7696V16.3858H157.372V15.7696ZM157.185 15.7696L156.638 15.4847L149.071 29.994L149.617 30.279L150.164 30.5639L157.731 16.0545L157.185 15.7696ZM149.617 30.279V29.6628H148.648V30.279V30.8951H149.617V30.279ZM148.648 30.279L149.159 29.9352L140.56 17.1457L140.049 17.4895L139.537 17.8333L148.137 30.6228L148.648 30.279ZM140.049 17.4895V16.8733H139.861V17.4895V18.1056H140.049V17.4895ZM139.861 17.4895L139.245 17.5125L139.933 35.8681L140.549 35.8451L141.165 35.822L140.477 17.4664L139.861 17.4895ZM140.549 35.8451V35.2289H138.423V35.8451V36.4612H140.549V35.8451ZM138.423 35.8451L139.038 35.8666L139.82 13.5397L139.204 13.5181L138.589 13.4966L137.807 35.8235L138.423 35.8451ZM139.204 13.5181V14.1343H139.83V13.5181V12.902H139.204V13.5181ZM139.83 13.5181L139.319 13.8622L149.169 28.4966L149.68 28.1526L150.191 27.8085L140.341 13.1741L139.83 13.5181ZM149.68 28.1526V28.7688H149.867V28.1526V27.5364H149.68V28.1526ZM149.867 28.1526L150.414 28.4368L157.794 14.2401L157.247 13.9559L156.701 13.6717L149.321 27.8684L149.867 28.1526ZM157.247 13.9559V14.5721H159.499V13.9559V13.3398H157.247V13.9559ZM166.689 35.8451H166.073V36.4612H166.689V35.8451ZM166.689 13.9559V13.3398H166.073V13.9559H166.689ZM176.227 13.9559H176.843V13.3398H176.227V13.9559ZM176.227 15.4882L176.146 16.0991L176.843 16.1906V15.4882H176.227ZM170.754 14.7689L170.835 14.158L170.834 14.158L170.754 14.7689ZM168.815 14.5813V13.9652H168.199V14.5813H168.815ZM168.815 24.1187H168.199V24.7349H168.815V24.1187ZM170.754 24.0249L170.717 23.4099L170.717 23.4099L170.754 24.0249ZM175.883 23.7122H176.499V23.0573L175.845 23.0972L175.883 23.7122ZM175.883 25.1507L175.845 25.7657L176.499 25.8055V25.1507H175.883ZM170.754 24.838L170.717 25.453L170.717 25.453L170.754 24.838ZM168.815 24.7441V24.128H168.199V24.7441H168.815ZM168.815 35.2197H168.199V35.8358H168.815V35.2197ZM170.785 35.032L170.706 34.421L170.704 34.4213L170.785 35.032ZM176.32 34.3128H176.936V33.6114L176.241 33.7018L176.32 34.3128ZM176.32 35.8451V36.4612H176.936V35.8451H176.32ZM166.689 35.8451H167.305V13.9559H166.689H166.073V35.8451H166.689ZM166.689 13.9559V14.5721H176.227V13.9559V13.3398H166.689V13.9559ZM176.227 13.9559H175.61V15.4882H176.227H176.843V13.9559H176.227ZM176.227 15.4882L176.307 14.8773L170.835 14.158L170.754 14.7689L170.674 15.3799L176.146 16.0991L176.227 15.4882ZM170.754 14.7689L170.834 14.158C169.881 14.0336 169.195 13.9652 168.815 13.9652V14.5813V15.1975C169.103 15.1975 169.71 15.2541 170.675 15.3799L170.754 14.7689ZM168.815 14.5813H168.199V24.1187H168.815H169.432V14.5813H168.815ZM168.815 24.1187V24.7349C169.109 24.7349 169.777 24.7021 170.792 24.6399L170.754 24.0249L170.717 23.4099C169.689 23.4728 169.064 23.5026 168.815 23.5026V24.1187ZM170.754 24.0249L170.792 24.6399L175.92 24.3272L175.883 23.7122L175.845 23.0972L170.717 23.4099L170.754 24.0249ZM175.883 23.7122H175.266V25.1507H175.883H176.499V23.7122H175.883ZM175.883 25.1507L175.92 24.5356L170.792 24.2229L170.754 24.838L170.717 25.453L175.845 25.7657L175.883 25.1507ZM170.754 24.838L170.792 24.2229C169.777 24.1608 169.109 24.128 168.815 24.128V24.7441V25.3603C169.064 25.3603 169.689 25.39 170.717 25.453L170.754 24.838ZM168.815 24.7441H168.199V35.2197H168.815H169.432V24.7441H168.815ZM168.815 35.2197V35.8358C169.236 35.8358 169.93 35.7677 170.867 35.6428L170.785 35.032L170.704 34.4213C169.765 34.5466 169.145 34.6035 168.815 34.6035V35.2197ZM170.785 35.032L170.865 35.6431L176.4 34.9238L176.32 34.3128L176.241 33.7018L170.706 34.421L170.785 35.032ZM176.32 34.3128H175.704V35.8451H176.32H176.936V34.3128H176.32ZM176.32 35.8451V35.2289H166.689V35.8451V36.4612H176.32V35.8451ZM181.936 13.9559V13.3398H181.32V13.9559H181.936ZM191.254 15.3631L190.877 15.85L190.886 15.857L191.254 15.3631ZM191.942 22.4614L191.485 22.0486L191.479 22.0549L191.942 22.4614ZM188.659 24.1813L188.536 23.5774L188.043 23.6776V24.1813H188.659ZM188.659 24.3689H188.043V24.8755L188.54 24.9734L188.659 24.3689ZM192.036 26.3077L191.568 26.7086L192.036 26.3077ZM194.006 30.0913L194.598 29.9209L194.598 29.9188L194.006 30.0913ZM195.163 33.3122L194.609 33.5817L194.613 33.5908L194.618 33.5998L195.163 33.3122ZM196.445 34.9382L196.083 35.4366L196.093 35.444L196.445 34.9382ZM198.134 35.6574H198.75V35.1649L198.269 35.0564L198.134 35.6574ZM198.134 35.8451V36.4612H198.75V35.8451H198.134ZM194.569 35.3447L194.263 35.8798L194.271 35.8842L194.569 35.3447ZM193.068 33.6561L192.523 33.9431L193.068 33.6561ZM191.88 30.3728L192.475 30.2129L192.473 30.2058L191.88 30.3728ZM189.472 25.8073L189.061 26.2663L189.472 25.8073ZM185.626 24.4627H185.009V25.0789H185.626V24.4627ZM185.626 23.8998V23.2837H185.009V23.8998H185.626ZM184.062 14.7064V14.0902H183.446V14.7064H184.062ZM184.062 35.8451V36.4612H184.678V35.8451H184.062ZM181.936 35.8451H181.32V36.4612H181.936V35.8451ZM181.936 13.9559V14.5721H186.126V13.9559V13.3398H181.936V13.9559ZM186.126 13.9559V14.5721C188.258 14.5721 189.814 15.0257 190.877 15.8499L191.254 15.3631L191.632 14.8763C190.276 13.8243 188.414 13.3398 186.126 13.3398V13.9559ZM191.254 15.3631L190.886 15.857C191.945 16.6467 192.483 17.7478 192.483 19.2406H193.099H193.715C193.715 17.3979 193.024 15.9139 191.623 14.8691L191.254 15.3631ZM193.099 19.2406H192.483C192.483 20.4007 192.141 21.3212 191.485 22.0486L191.942 22.4614L192.4 22.8742C193.286 21.8922 193.715 20.6655 193.715 19.2406H193.099ZM191.942 22.4614L191.479 22.0549C190.84 22.7823 189.881 23.3045 188.536 23.5774L188.659 24.1813L188.781 24.7851C190.313 24.4743 191.543 23.8499 192.405 22.868L191.942 22.4614ZM188.659 24.1813H188.043V24.3689H188.659H189.275V24.1813H188.659ZM188.659 24.3689L188.54 24.9734C189.786 25.2189 190.787 25.7969 191.568 26.7086L192.036 26.3077L192.504 25.9067C191.534 24.7754 190.283 24.0609 188.778 23.7644L188.659 24.3689ZM192.036 26.3077L191.568 26.7086C192.378 27.6537 192.997 28.8334 193.415 30.2639L194.006 30.0913L194.598 29.9188C194.139 28.3473 193.445 27.0046 192.504 25.9067L192.036 26.3077ZM194.006 30.0913L193.414 30.2618C193.814 31.6524 194.211 32.7645 194.609 33.5817L195.163 33.3122L195.717 33.0426C195.364 32.3172 194.99 31.282 194.598 29.9209L194.006 30.0913ZM195.163 33.3122L194.618 33.5998C195.038 34.3957 195.52 35.027 196.083 35.4365L196.445 34.9382L196.808 34.4399C196.453 34.1823 196.08 33.7296 195.708 33.0246L195.163 33.3122ZM196.445 34.9382L196.093 35.444C196.646 35.8287 197.285 36.0974 197.998 36.2585L198.134 35.6574L198.269 35.0564C197.69 34.9257 197.203 34.7149 196.797 34.4324L196.445 34.9382ZM198.134 35.6574H197.518V35.8451H198.134H198.75V35.6574H198.134ZM198.134 35.8451V35.2289H196.852V35.8451V36.4612H198.134V35.8451ZM196.852 35.8451V35.2289C196.006 35.2289 195.355 35.0747 194.867 34.8052L194.569 35.3447L194.271 35.8842C194.992 36.2819 195.863 36.4612 196.852 36.4612V35.8451ZM194.569 35.3447L194.875 34.8098C194.421 34.5507 193.993 34.0912 193.613 33.3692L193.068 33.6561L192.523 33.9431C192.977 34.8055 193.549 35.4717 194.263 35.8797L194.569 35.3447ZM193.068 33.6561L193.613 33.3692C193.226 32.6343 192.844 31.589 192.475 30.2129L191.88 30.3728L191.285 30.5326C191.665 31.9501 192.076 33.0936 192.523 33.9431L193.068 33.6561ZM191.88 30.3728L192.473 30.2058C191.855 28.0126 191.011 26.3589 189.883 25.3484L189.472 25.8073L189.061 26.2663C189.934 27.0486 190.695 28.4385 191.287 30.5398L191.88 30.3728ZM189.472 25.8073L189.883 25.3484C188.761 24.3432 187.392 23.8465 185.813 23.8465V24.4627V25.0789C187.112 25.0789 188.182 25.4786 189.061 26.2663L189.472 25.8073ZM185.813 24.4627V23.8465H185.626V24.4627V25.0789H185.813V24.4627ZM185.626 24.4627H186.242V23.8998H185.626H185.009V24.4627H185.626ZM185.626 23.8998V24.516H185.813V23.8998V23.2837H185.626V23.8998ZM185.813 23.8998V24.516C187.574 24.516 189.01 24.1124 190.006 23.1965C191.012 22.2715 191.464 20.9235 191.464 19.2719H190.848H190.232C190.232 20.7056 189.844 21.6715 189.172 22.2892C188.49 22.9159 187.409 23.2837 185.813 23.2837V23.8998ZM190.848 19.2719H191.464C191.464 17.6497 191.043 16.3212 190.096 15.4048C189.152 14.4922 187.79 14.0902 186.126 14.0902V14.7064V15.3226C187.61 15.3226 188.609 15.6815 189.239 16.2907C189.865 16.8962 190.232 17.8504 190.232 19.2719H190.848ZM186.126 14.7064V14.0902H184.062V14.7064V15.3226H186.126V14.7064ZM184.062 14.7064H183.446V35.8451H184.062H184.678V14.7064H184.062ZM184.062 35.8451V35.2289H181.936V35.8451V36.4612H184.062V35.8451ZM181.936 35.8451H182.552V13.9559H181.936H181.32V35.8451H181.936Z" fill="#1E3231" mask="url(#path-1-outside-1_2_1712)"/>
<path d="M110.202 49.5487C109.86 49.5487 109.595 49.4824 109.406 49.3497C109.225 49.217 109.134 49.039 109.134 48.8155C109.134 48.62 109.2 48.4698 109.333 48.3651C109.473 48.2604 109.633 48.208 109.815 48.208C109.996 48.208 110.157 48.2499 110.297 48.3337C110.436 48.4105 110.565 48.5467 110.684 48.7422L110.873 49.0669C110.908 49.1158 110.949 49.1402 110.998 49.1402C111.054 49.1402 111.093 49.1088 111.114 49.046C111.155 48.9063 111.183 48.7038 111.197 48.4384C111.218 48.1661 111.229 47.8379 111.229 47.4538C111.229 47.0139 111.218 46.4482 111.197 45.7569C111.176 45.0656 111.155 44.2136 111.135 43.201C111.135 42.9008 111.023 42.7122 110.799 42.6354L110.558 42.5516V42.4469H113.303V42.5516L113.072 42.6354C112.947 42.6843 112.859 42.7506 112.811 42.8344C112.769 42.9112 112.748 43.023 112.748 43.1696V45.2436C112.748 45.928 112.716 46.4936 112.653 46.9405C112.591 47.3875 112.489 47.775 112.35 48.1032C112.175 48.5711 111.889 48.9307 111.491 49.1821C111.1 49.4265 110.67 49.5487 110.202 49.5487ZM116.931 44.1647C117.385 44.1647 117.773 44.259 118.094 44.4475C118.415 44.6291 118.66 44.8805 118.827 45.2017C119.002 45.516 119.089 45.8756 119.089 46.2806C119.089 46.3574 119.085 46.4377 119.078 46.5215C119.072 46.5984 119.058 46.6682 119.037 46.731H115.915C115.922 47.4852 116.055 48.0299 116.313 48.3651C116.579 48.6933 116.97 48.8574 117.486 48.8574C117.835 48.8574 118.118 48.8015 118.335 48.6898C118.551 48.5781 118.754 48.414 118.942 48.1975L119.047 48.2918C118.831 48.6758 118.541 48.9761 118.178 49.1926C117.822 49.4091 117.392 49.5173 116.889 49.5173C116.393 49.5173 115.954 49.4126 115.569 49.2031C115.185 48.9866 114.885 48.6793 114.669 48.2813C114.452 47.8833 114.344 47.4084 114.344 46.8567C114.344 46.2841 114.47 45.7988 114.721 45.4007C114.972 44.9957 115.294 44.6885 115.685 44.479C116.083 44.2695 116.498 44.1647 116.931 44.1647ZM116.9 44.3742C116.697 44.3742 116.523 44.4371 116.376 44.5628C116.236 44.6815 116.125 44.898 116.041 45.2122C115.964 45.5195 115.922 45.9559 115.915 46.5215H117.706C117.776 45.7604 117.748 45.2122 117.623 44.877C117.497 44.5418 117.256 44.3742 116.9 44.3742ZM122.555 49.3916L120.942 44.9608C120.865 44.7373 120.712 44.5802 120.481 44.4894L120.303 44.4266V44.3218H122.87V44.4266L122.712 44.4685C122.44 44.5523 122.349 44.7199 122.44 44.9713L123.414 47.9356L124.284 45.6312L124.085 45.0341C124.036 44.8805 123.983 44.7653 123.928 44.6885C123.879 44.6047 123.812 44.5453 123.729 44.5104L123.55 44.4266V44.3218H125.719V44.4266L125.572 44.4894C125.467 44.5313 125.405 44.5872 125.384 44.657C125.363 44.7269 125.377 44.8316 125.425 44.9713L126.389 47.8833L127.384 44.9922C127.482 44.7269 127.43 44.5593 127.227 44.4894L126.997 44.4266V44.3218H128.254V44.4266L128.002 44.4999C127.884 44.5348 127.796 44.5907 127.74 44.6675C127.691 44.7373 127.646 44.8351 127.604 44.9608L126.096 49.3916H125.562L124.399 45.9664L123.163 49.3916H122.555ZM131.782 44.1647C132.236 44.1647 132.624 44.259 132.945 44.4475C133.266 44.6291 133.511 44.8805 133.678 45.2017C133.853 45.516 133.94 45.8756 133.94 46.2806C133.94 46.3574 133.937 46.4377 133.93 46.5215C133.923 46.5984 133.909 46.6682 133.888 46.731H130.766C130.773 47.4852 130.906 48.0299 131.164 48.3651C131.43 48.6933 131.821 48.8574 132.338 48.8574C132.687 48.8574 132.97 48.8015 133.186 48.6898C133.402 48.5781 133.605 48.414 133.794 48.1975L133.898 48.2918C133.682 48.6758 133.392 48.9761 133.029 49.1926C132.673 49.4091 132.243 49.5173 131.741 49.5173C131.245 49.5173 130.805 49.4126 130.421 49.2031C130.037 48.9866 129.736 48.6793 129.52 48.2813C129.303 47.8833 129.195 47.4084 129.195 46.8567C129.195 46.2841 129.321 45.7988 129.572 45.4007C129.824 44.9957 130.145 44.6885 130.536 44.479C130.934 44.2695 131.349 44.1647 131.782 44.1647ZM131.751 44.3742C131.548 44.3742 131.374 44.4371 131.227 44.5628C131.088 44.6815 130.976 44.898 130.892 45.2122C130.815 45.5195 130.773 45.9559 130.766 46.5215H132.558C132.627 45.7604 132.599 45.2122 132.474 44.877C132.348 44.5418 132.107 44.3742 131.751 44.3742ZM135.168 49.3602V49.2555L135.294 49.2136C135.545 49.1298 135.671 48.9552 135.671 48.6898V43.0858C135.671 42.9462 135.643 42.8414 135.587 42.7716C135.531 42.6948 135.433 42.6389 135.294 42.604L135.157 42.5726V42.4678L137.074 42.0174L137.2 42.1117L137.158 43.5781V47.1605C137.158 47.4189 137.158 47.6773 137.158 47.9356C137.165 48.187 137.169 48.4384 137.169 48.6898C137.169 48.8295 137.197 48.9447 137.252 49.0355C137.308 49.1193 137.403 49.1821 137.535 49.224L137.671 49.2555V49.3602H135.168ZM138.972 49.3602V49.2555L139.129 49.2136C139.268 49.1717 139.363 49.1088 139.412 49.025C139.467 48.9412 139.495 48.833 139.495 48.7003V45.4217C139.495 45.2681 139.467 45.1563 139.412 45.0865C139.363 45.0097 139.268 44.9573 139.129 44.9294L138.972 44.8875V44.7827L140.773 44.1752L140.878 44.2799L140.972 45.1808V45.2646C141.07 45.069 141.196 44.891 141.349 44.7304C141.51 44.5628 141.685 44.4266 141.873 44.3218C142.069 44.2171 142.261 44.1647 142.449 44.1647C142.715 44.1647 142.917 44.238 143.057 44.3847C143.196 44.5313 143.266 44.7164 143.266 44.9399C143.266 45.1773 143.196 45.3623 143.057 45.495C142.924 45.6207 142.764 45.6836 142.575 45.6836C142.282 45.6836 142.023 45.5369 141.8 45.2436L141.779 45.2227C141.709 45.1249 141.629 45.0725 141.538 45.0656C141.447 45.0516 141.363 45.0935 141.287 45.1912C141.217 45.2541 141.157 45.3309 141.109 45.4217C141.067 45.5055 141.025 45.6033 140.983 45.715V48.6374C140.983 48.9168 141.105 49.0913 141.349 49.1612L141.685 49.2555V49.3602H138.972ZM145.561 51.8741C145.281 51.8741 145.058 51.8043 144.89 51.6646C144.73 51.525 144.649 51.3469 144.649 51.1304C144.649 50.9349 144.719 50.7778 144.859 50.6591C144.998 50.5404 145.156 50.481 145.33 50.481C145.505 50.481 145.651 50.5159 145.77 50.5857C145.889 50.6626 145.994 50.7708 146.084 50.9105L146.158 50.9943C146.311 51.2038 146.465 51.2003 146.619 50.9838C146.681 50.879 146.751 50.7394 146.828 50.5648C146.912 50.3972 147.006 50.1702 147.111 49.8839L145.079 45.0237C145.03 44.891 144.978 44.7862 144.922 44.7094C144.866 44.6256 144.775 44.5558 144.649 44.4999L144.461 44.4266V44.3218H147.069V44.4161L146.859 44.4999C146.706 44.5488 146.626 44.6291 146.619 44.7408C146.619 44.8456 146.647 44.9783 146.702 45.1389L147.792 47.9671L148.829 45.1075C148.885 44.9468 148.906 44.8142 148.892 44.7094C148.878 44.5977 148.79 44.5209 148.63 44.479L148.41 44.4266V44.3218H149.866V44.4266L149.635 44.4999C149.475 44.5488 149.363 44.6186 149.3 44.7094C149.237 44.8002 149.178 44.9259 149.122 45.0865L147.436 49.6849C147.163 50.4181 146.891 50.9663 146.619 51.3295C146.346 51.6926 145.994 51.8741 145.561 51.8741Z" fill="#1E3231"/>
<path d="M52.7184 21.0202L43.5529 8.59901C43.5529 8.59901 43.5017 8.53731 43.4931 8.52642L43.459 8.49012L43.4078 8.44656L43.3652 8.41389L43.314 8.37759L43.25 8.34129L43.2202 8.32677C43.1903 8.31225 43.1562 8.29773 43.1477 8.2941L43.1221 8.28322C43.1221 8.28322 43.0581 8.26144 43.0368 8.25418L42.9728 8.23966L42.9387 8.2324C42.9088 8.22877 42.8832 8.22152 42.8534 8.22152L42.7638 8.21425H22.8291C21.814 8.56634 21.2425 9.02732 20.816 9.85855H24.7867L18.2826 19.7716L11.7784 9.85855H15.7492C15.3227 9.02732 14.7512 8.56634 13.7361 8.21425H10.0426L9.96579 8.22514L9.87623 8.23966L9.85064 8.24692C9.70137 8.28684 9.56488 8.35582 9.4412 8.46108C9.41987 8.47923 9.39429 8.50101 9.35164 8.55183L9.33031 8.57723L0.147716 21.0202C-0.0740649 21.3215 -0.0442129 21.7099 0.224484 21.9857L25.6952 48.055L25.708 48.0695L25.7379 48.0949C25.772 48.1276 25.8104 48.1566 25.8359 48.1711L25.8829 48.2002L25.917 48.2292L26.0748 48.2873C26.1089 48.2982 26.143 48.3091 26.1516 48.3091L26.1772 48.3163L26.2454 48.3309C26.3094 48.3417 26.3691 48.349 26.433 48.349C26.497 48.349 26.561 48.3418 26.5823 48.3381L26.6292 48.3309L26.6847 48.32C26.7316 48.3091 26.7743 48.2946 26.8041 48.2837L26.9918 48.2183L27.0344 48.1675C27.0685 48.1421 27.1027 48.1167 27.1368 48.084L52.6459 21.9785C52.9146 21.7026 52.9444 21.3178 52.7227 21.0129L52.7184 21.0202ZM41.0834 9.85855L34.5792 19.7716L28.0751 9.85855H41.0834ZM2.14801 21.3904L10.0767 10.6499L17.3741 21.7716L24.3645 44.1312L2.14801 21.3904ZM26.4288 44.3308L19.3105 21.5683L26.4288 10.7224L33.5471 21.5683L26.4288 44.3308ZM28.4931 44.1312L35.4834 21.7716L42.7809 10.6499L50.7096 21.3904L28.4931 44.1312Z" fill="#CE9461"/>
<path d="M18.2783 12.1962C19.3957 7.81861 20.2999 7.04909 25.4435 6.09808C20.2999 5.14707 19.3957 4.37755 18.2783 0C17.1608 4.37755 16.2567 5.14707 11.113 6.09808C16.2567 7.04909 17.1608 7.81861 18.2783 12.1962Z" fill="#CE9461"/>
<path d="M104.898 47.1954H61.4256C61.1915 47.1954 61 46.9594 61 46.671C61 46.3826 61.1915 46.1466 61.4256 46.1466H104.898C105.132 46.1466 105.324 46.3826 105.324 46.671C105.324 46.9594 105.132 47.1954 104.898 47.1954Z" fill="#CE9461"/>
<path d="M197.978 47.1954H154.506C154.272 47.1954 154.08 46.9594 154.08 46.671C154.08 46.3826 154.272 46.1466 154.506 46.1466H197.978C198.212 46.1466 198.404 46.3826 198.404 46.671C198.404 46.9594 198.212 47.1954 197.978 47.1954Z" fill="#CE9461"/>
</svg>
