<svg width="316" height="42" viewBox="0 0 316 42" fill="none" xmlns="http://www.w3.org/2000/svg">
<line x1="274" y1="22.3711" x2="234" y2="22.3711" stroke="#95663D" stroke-width="2"/>
<line opacity="0.3" x1="226" y1="22.3711" x2="186" y2="22.3711" stroke="#95663D" stroke-width="2"/>
<line opacity="0.3" x1="178" y1="22.3711" x2="138" y2="22.3711" stroke="#95663D" stroke-width="2"/>
<line opacity="0.3" x1="130" y1="22.3711" x2="90" y2="22.3711" stroke="#95663D" stroke-width="2"/>
<line opacity="0.3" x1="82" y1="22.3711" x2="42" y2="22.3711" stroke="#95663D" stroke-width="2"/>
<path d="M297.297 28.5898C296.255 28.5898 295.354 28.2721 294.594 27.6367C293.844 27.0013 293.26 26.1159 292.844 24.9805C292.438 23.8451 292.234 22.5273 292.234 21.0273C292.234 19.5586 292.453 18.2565 292.891 17.1211C293.328 15.9753 293.932 15.0742 294.703 14.418C295.474 13.7617 296.354 13.4336 297.344 13.4336C298.312 13.4336 299.156 13.7513 299.875 14.3867C300.594 15.0221 301.151 15.9023 301.547 17.0273C301.943 18.1523 302.141 19.4596 302.141 20.9492C302.141 22.3763 301.932 23.668 301.516 24.8242C301.099 25.9805 300.526 26.8971 299.797 27.5742C299.068 28.2513 298.234 28.5898 297.297 28.5898ZM297.375 27.6523C298.302 27.6523 299.036 27.0794 299.578 25.9336C300.13 24.7878 300.406 23.319 300.406 21.5273C300.406 19.319 300.125 17.5846 299.562 16.3242C299 15.0638 298.214 14.4336 297.203 14.4336C296.151 14.4336 295.359 14.9857 294.828 16.0898C294.297 17.194 294.031 18.7253 294.031 20.6836C294.031 22.7773 294.328 24.4648 294.922 25.7461C295.516 27.0169 296.333 27.6523 297.375 27.6523ZM310.453 23.7461C310.453 25.0586 310.464 25.9596 310.484 26.4492C310.505 26.9284 310.526 27.2096 310.547 27.293L312.5 27.6211L312.453 28.3711H307.172L307.109 27.6211L309.016 27.293C309.036 27.1471 309.057 26.7721 309.078 26.168C309.109 25.5638 309.125 24.7565 309.125 23.7461V17.918C309.125 17.5534 309.115 17.1732 309.094 16.7773C309.073 16.3711 309.042 15.944 309 15.4961L307.016 15.9648L306.938 15.1055L310.5 13.4336C310.479 13.819 310.464 14.319 310.453 14.9336C310.453 15.5482 310.453 16.4284 310.453 17.5742V23.7461Z" fill="#252525"/>
<path d="M7.29688 28.5898C6.25521 28.5898 5.35417 28.2721 4.59375 27.6367C3.84375 27.0013 3.26042 26.1159 2.84375 24.9805C2.4375 23.8451 2.23438 22.5273 2.23438 21.0273C2.23438 19.5586 2.45312 18.2565 2.89062 17.1211C3.32812 15.9753 3.93229 15.0742 4.70312 14.418C5.47396 13.7617 6.35417 13.4336 7.34375 13.4336C8.3125 13.4336 9.15625 13.7513 9.875 14.3867C10.5938 15.0221 11.151 15.9023 11.5469 17.0273C11.9427 18.1523 12.1406 19.4596 12.1406 20.9492C12.1406 22.3763 11.9323 23.668 11.5156 24.8242C11.099 25.9805 10.526 26.8971 9.79688 27.5742C9.06771 28.2513 8.23438 28.5898 7.29688 28.5898ZM7.375 27.6523C8.30208 27.6523 9.03646 27.0794 9.57812 25.9336C10.1302 24.7878 10.4062 23.319 10.4062 21.5273C10.4062 19.319 10.125 17.5846 9.5625 16.3242C9 15.0638 8.21354 14.4336 7.20312 14.4336C6.15104 14.4336 5.35938 14.9857 4.82812 16.0898C4.29688 17.194 4.03125 18.7253 4.03125 20.6836C4.03125 22.7773 4.32812 24.4648 4.92188 25.7461C5.51562 27.0169 6.33333 27.6523 7.375 27.6523ZM18.5625 28.5898C17.5938 28.5898 16.8073 28.4336 16.2031 28.1211C15.599 27.8086 15.2969 27.4023 15.2969 26.9023C15.2969 26.694 15.3698 26.5117 15.5156 26.3555C15.6719 26.1992 15.8698 26.1211 16.1094 26.1211C16.3698 26.1211 16.5781 26.1628 16.7344 26.2461C16.901 26.3294 17.1354 26.4961 17.4375 26.7461L18.9688 27.9492L17.5781 27.6211C19.026 27.8398 20.224 27.6471 21.1719 27.043C22.1198 26.4284 22.5938 25.569 22.5938 24.4648C22.5938 23.7357 22.4271 23.1367 22.0938 22.668C21.7708 22.1992 21.1667 21.8086 20.2812 21.4961C19.4062 21.1836 18.1406 20.9023 16.4844 20.6523L17.3281 13.6523H23.5L23.3281 15.2617H18.2656L17.7031 20.3867L17.0625 19.3555C19.6354 19.6784 21.4583 20.2201 22.5312 20.9805C23.6146 21.7305 24.1562 22.7565 24.1562 24.0586C24.1562 24.9336 23.8854 25.7148 23.3438 26.4023C22.8021 27.0794 22.1042 27.6159 21.25 28.0117C20.4062 28.3971 19.5104 28.5898 18.5625 28.5898Z" fill="#252525"/>
</svg>
