<svg width="16" height="17" viewBox="0 0 16 17" fill="none" xmlns="http://www.w3.org/2000/svg">
<path d="M8 0.0867023C3.58873 0.0867023 0 3.67543 0 8.0867C0 12.498 3.589 16.0867 8 16.0867C12.411 16.0867 16 12.498 16 8.0867C16 3.67543 12.4113 0.0867023 8 0.0867023Z" fill="#008C56"/>
<path d="M11.5351 4.788C11.7057 4.99764 11.8801 5.22064 12.0553 5.45351C12.0922 5.92834 12.102 6.36338 12.1394 6.83901C12.1341 7.04251 12.0716 7.31251 12.0123 7.33814C12.0123 7.33814 11.9218 7.39022 11.8612 7.33254C11.8171 7.31491 11.6411 7.03904 11.6411 7.03904C11.5511 6.95652 11.491 6.98002 11.4269 7.03904C11.2501 7.20969 11.1703 7.52936 11.0501 7.74941C11.0191 7.79855 10.9318 7.84048 10.8348 7.74567C10.633 7.47007 10.6933 7.09913 10.7048 7.04171L10.7021 7.05319C10.4829 7.30049 10.5798 7.70989 10.6295 7.79802C10.7019 7.94276 10.7603 8.03543 10.9011 8.10674C11.0293 8.20101 11.1291 8.14226 11.1842 8.07603C11.3131 7.9425 11.3148 7.60066 11.3754 7.53283C11.4178 7.40865 11.5241 7.43001 11.5762 7.48503C11.6264 7.5574 11.686 7.6044 11.7599 7.64366C11.8801 7.74968 12.0238 7.76918 12.1653 7.67223C12.262 7.61802 12.3248 7.54752 12.3814 7.40838C12.442 7.24601 12.4121 6.39436 12.3985 5.9206C12.4893 6.04852 12.579 6.17938 12.6682 6.31157C12.7075 6.72738 12.7251 7.13705 12.7123 7.52962C12.7029 7.6076 12.9847 7.29648 12.9828 7.14907C12.9815 7.02008 12.9831 6.9031 12.9828 6.79441C13.1198 7.01248 13.2511 7.23403 13.3767 7.45885C13.4542 7.41773 13.4277 6.97922 13.3786 6.91859C13.2477 6.69907 13.08 6.46166 12.9502 6.27792C12.9246 6.04611 12.8896 5.77265 12.8738 5.68906C12.849 5.55847 12.8242 5.36218 12.7868 5.20728C12.7766 5.14666 12.7454 4.95331 12.7553 4.93489C12.7705 4.89162 12.8282 4.93622 12.8567 4.88601C12.8992 4.83954 12.7093 4.34762 12.6129 4.20715C12.5782 4.14412 12.5154 4.16602 12.438 4.26831C12.3662 4.33561 12.3923 4.48943 12.4198 4.63551C12.4911 5.00806 12.555 5.38728 12.6054 5.7657C12.512 5.62683 12.3982 5.45912 12.286 5.29728L12.2716 5.22357C12.2716 5.2169 12.2561 4.91886 12.243 4.84782C12.2406 4.81898 12.234 4.8107 12.2641 4.81444C12.2962 4.84141 12.3005 4.84275 12.3205 4.85183C12.3528 4.85771 12.3811 4.80296 12.3616 4.75248L12.0614 4.1978C12.0494 4.18605 12.0358 4.1735 12.0203 4.1711C12.0048 4.16869 11.9877 4.17644 11.9688 4.20448C11.9453 4.22494 11.9264 4.25022 11.9136 4.27861C11.9007 4.307 11.8941 4.33782 11.8943 4.36899C11.9031 4.50011 11.9266 4.63444 11.9354 4.76584L11.945 4.81845C11.9344 4.80489 11.9233 4.79179 11.9116 4.77919C11.6558 4.51053 12.0291 4.73539 11.8628 4.52762C11.722 4.37326 11.6809 4.32412 11.5607 4.23119C11.5004 4.1922 11.4638 4.11769 11.444 4.24454C11.4363 4.35617 11.428 4.48516 11.4355 4.57916C11.4341 4.63177 11.4883 4.73005 11.5351 4.788ZM5.2349 6.7621C5.23196 6.8107 5.36896 6.86972 5.37724 6.98189C5.39674 7.02809 5.34787 7.17657 5.38873 7.19019C5.42611 7.20568 5.47819 7.08764 5.49769 6.97788C5.50863 6.91779 5.45068 6.70762 5.35241 6.66996C5.33707 6.66657 5.32135 6.66531 5.30567 6.66622C5.25813 6.6697 5.21567 6.69507 5.2349 6.7621Z" fill="#F0F0F0"/>
<path d="M11.9493 5.94768C11.9458 5.94712 11.9421 5.94749 11.9387 5.94875C11.9387 5.94875 11.3554 6.36349 11.341 6.37818C11.283 6.42945 11.3121 6.61025 11.341 6.58942C11.3829 6.60544 11.9699 6.20753 11.9587 6.16106C11.9843 6.16239 11.9969 5.95622 11.9493 5.94768ZM13.0216 5.00202C13.0421 5.06505 12.9903 5.26828 13.0331 5.28697C13.0723 5.30807 13.1273 5.1465 13.1479 4.99722C13.1591 4.9155 13.0988 4.62868 12.9959 4.5774C12.9878 4.57522 12.9795 4.57397 12.9711 4.57366C12.9124 4.57153 12.8483 4.61612 12.8736 4.70372C12.8587 4.75152 12.9989 4.91336 13.0216 5.00202ZM11.6211 5.95248C11.6233 5.83418 11.6348 5.67661 11.6412 5.5786C11.6438 5.54175 11.6526 5.50089 11.6879 5.49154C11.7234 5.4822 11.7848 5.52706 11.7854 5.4886C11.779 5.41329 11.7637 5.3022 11.7213 5.24959C11.7106 5.23421 11.6966 5.22153 11.6801 5.21258C11.6637 5.20363 11.6454 5.19865 11.6267 5.19805C11.565 5.19511 11.4991 5.23517 11.4823 5.31956C11.4825 5.36923 11.5047 5.39674 11.5004 5.44187C11.494 5.46777 11.4673 5.4846 11.4037 5.45442C11.4136 5.44534 11.3626 5.37324 11.3626 5.37324C11.3132 5.34306 11.247 5.37484 11.204 5.40288C11.1885 5.43223 11.1793 5.46445 11.1768 5.49752C11.1743 5.5306 11.1787 5.56383 11.1896 5.59516C11.2609 5.72629 11.5047 5.95035 11.6211 5.95248ZM9.14096 6.72508L9.14203 6.72402L9.1431 6.72295L9.14416 6.72188V6.72001C9.1444 6.71677 9.14404 6.71351 9.1431 6.7104L9.08755 6.67781L7.99475 6.67301C7.98417 6.66941 7.97419 6.66428 7.9651 6.65779L7.96323 6.65592L7.96243 6.65485L7.96136 6.65378L7.96056 6.65191L7.95949 6.65084V6.64977L7.95843 6.64871V6.64016L7.95949 6.63909L7.96056 6.63722C7.9659 6.63001 7.97872 6.62334 7.99501 6.61719C8.25593 6.58167 8.71954 6.50556 8.75025 6.05984C8.74545 5.8275 8.65091 5.67554 8.36596 5.63335C8.15658 5.64964 8.0073 5.85207 8.03133 6.07506C8.02145 6.13515 8.05163 6.25293 7.99021 6.26628C7.58855 6.30287 7.15004 6.5547 7.13535 6.7347H7.13428L7.13322 6.73577L7.13135 6.73683H7.12948L7.12654 6.7379H7.12093C7.11967 6.73758 7.11843 6.73723 7.11719 6.73683C7.09102 6.72962 7.05737 6.68636 7.06271 6.62601C7.04749 6.31462 6.94601 5.96237 6.78738 5.69103C6.73076 5.63442 6.70592 5.61145 6.6899 5.60878H6.68215C6.68055 5.60931 6.67895 5.61065 6.67735 5.61172L6.67441 5.61359C6.66212 5.62294 6.6477 5.64403 6.61512 5.667C6.56038 5.72922 6.5505 5.77275 6.55397 5.89747C6.55717 5.91056 6.65785 6.19097 6.74331 6.38806C6.801 6.59289 6.85414 6.82737 6.81515 7.04876C6.68028 7.34145 6.40922 7.60397 6.14777 7.74685C6.01451 7.78958 5.89941 7.77489 5.86869 7.74578L5.86763 7.74471C5.84236 7.7272 5.82221 7.70328 5.80925 7.6754C5.7963 7.64751 5.79101 7.61669 5.79392 7.58608V7.58501L5.79499 7.58394C6.01558 7.43012 6.26795 7.30567 6.4653 6.89066C6.52352 6.73203 6.54141 6.63669 6.48346 6.39153C6.46076 6.30019 6.43299 6.22488 6.37076 6.16026L6.37183 6.15919C6.40949 6.1413 6.50696 6.21313 6.52192 6.16773C6.49895 6.05076 6.41964 5.89346 6.32964 5.81308C6.25112 5.74178 6.1654 5.7335 6.09356 5.79866C6.01237 5.84379 5.99528 6.0059 6.03427 6.1477C6.07753 6.25453 6.19477 6.27322 6.2781 6.4882V6.48927C6.27996 6.50263 6.30667 6.64977 6.26474 6.70906C6.23056 6.81535 5.79285 7.16066 5.76187 7.18149C5.76093 7.18217 5.75995 7.1828 5.75893 7.18336L5.75787 7.18443L5.7568 7.18549L5.75573 7.18656H5.75359L5.75279 7.18549V7.18443L5.75172 7.18256C5.75039 7.17401 5.75279 7.15211 5.75172 7.11659C5.74879 7.05196 5.77549 6.90562 5.77362 6.88051V6.87944L5.77282 6.87838V6.87731H5.77175C5.62701 6.97078 5.5792 7.25733 5.55277 7.34199C5.18636 7.59516 4.77028 7.78344 4.53073 8.04008C4.40602 8.23503 5.39066 7.81628 5.50496 7.76554L5.5079 7.76848C5.52953 7.79252 5.5314 7.87584 5.59683 7.95115C5.69911 8.08975 5.91677 8.17521 6.12854 8.12233C6.48346 7.99415 6.68803 7.75192 6.89634 7.48353C6.92598 7.44027 6.97271 7.40608 7.01598 7.43947C7.15912 7.75994 7.57173 7.98774 8.10504 8.01124C8.22842 7.86115 8.1694 7.78744 8.11946 7.75593C8.10397 7.74578 7.85427 7.6483 7.81528 7.55136C7.79098 7.4611 7.85027 7.38098 7.96911 7.32089C8.31148 7.2795 8.64824 7.23356 8.97405 7.12861C8.97725 7.01912 9.04188 6.85541 9.08488 6.78437C9.11452 6.73684 9.13375 6.73203 9.14096 6.72508ZM8.23964 6.03874C8.24049 6.0354 8.24174 6.03217 8.24338 6.02913C8.24391 6.02806 8.24445 6.02619 8.24525 6.02539L8.24605 6.02432C8.24751 6.02259 8.24912 6.02098 8.25085 6.01952C8.25898 6.01357 8.26859 6.00996 8.27863 6.0091C8.30868 6.0081 8.33835 6.0161 8.36382 6.03207C8.40735 6.05717 8.43406 6.09536 8.43085 6.12287V6.12581L8.42898 6.12874L8.42791 6.13168L8.42685 6.13355L8.42578 6.13542C8.4242 6.13788 8.42232 6.14012 8.42017 6.1421C8.39934 6.16159 8.351 6.15892 8.30534 6.13248C8.26207 6.10765 8.23563 6.06919 8.2383 6.04168C8.23884 6.04088 8.23964 6.03955 8.23964 6.03874ZM7.80273 7.13342C7.68549 7.17348 7.57279 7.20499 7.57226 7.3743C7.58775 7.45816 7.58428 7.50222 7.57146 7.52252L7.56772 7.52733L7.56665 7.5284L7.56558 7.52946L7.56478 7.53053L7.56371 7.5316L7.56184 7.53267C7.55997 7.53381 7.55801 7.53479 7.55597 7.53561L7.55036 7.53668C7.52259 7.54068 7.48199 7.51424 7.45182 7.49849C7.37944 7.44668 7.17675 7.32089 7.14764 7.0509C7.14363 6.99001 7.18903 6.9374 7.26247 6.93232H7.27476C7.39654 6.96544 7.576 6.96891 7.73169 6.98493C7.85881 6.99214 7.92157 7.09176 7.80273 7.13342Z" fill="#F0F0F0"/>
<path d="M7.4355 6.07686C7.56128 6.13695 7.86119 6.10143 7.78828 5.90755C7.78705 5.87597 7.78482 5.84444 7.78161 5.81301C7.76879 5.7831 7.74502 5.77188 7.72232 5.77562C7.69962 5.77963 7.67772 5.79832 7.66971 5.82903C7.66464 5.84933 7.67932 5.88298 7.66116 5.89313C7.65075 5.90381 7.60989 5.89767 7.61149 5.84158C7.61149 5.82369 7.59841 5.8042 7.59039 5.79271C7.58238 5.78737 7.57811 5.78604 7.56369 5.78604C7.54606 5.78684 7.54553 5.79138 7.53591 5.80607C7.53191 5.82102 7.5263 5.83598 7.5263 5.8528C7.52416 5.87283 7.51722 5.87951 7.50253 5.88244C7.48624 5.88244 7.48998 5.88431 7.47663 5.87577C7.46862 5.86722 7.45847 5.86375 7.45847 5.84906C7.45865 5.83219 7.45603 5.8154 7.45072 5.79939C7.44378 5.79031 7.43176 5.7863 7.41921 5.7831C7.35058 5.78337 7.3463 5.86135 7.35031 5.89126C7.34523 5.89687 7.34176 6.03787 7.4355 6.07686ZM11.9758 11.308C11.9007 11.3192 11.6897 11.3406 11.6897 11.3406C11.4459 11.3115 11.267 11.3085 10.9927 11.2984C11.0181 11.2663 11.0627 11.136 11.0079 11.089C10.9938 11.0773 10.9724 11.0706 10.943 11.0727H10.9401L10.939 11.0717L10.9361 11.0706C10.9343 11.0692 10.9327 11.0676 10.9313 11.0658L10.9294 11.0639C10.9155 11.0436 10.9081 10.9942 10.8987 10.9817L10.8976 10.9806L10.8968 10.9795L10.895 10.9785H10.8928L10.892 10.9793C10.7107 11.0257 10.7163 11.214 10.8327 11.2968C8.91767 11.2968 5.97843 11.2642 5.34817 11.2642C4.99565 11.2642 3.87989 11.222 3.85852 11.222C4.0978 11.5719 4.44445 11.6432 4.89791 11.6504C5.74849 11.6504 9.69001 11.64 10.8117 11.64C10.7318 11.7815 10.8189 12.0093 10.8814 12.0512L10.8862 12.0542C10.8886 12.0552 10.8915 12.0566 10.8939 12.0571H10.8968C10.9711 12.0747 11.0037 12.0208 11.0288 11.9815C11.1492 11.9922 11.8273 12.0018 11.8892 11.9805L11.8903 11.9794C11.9322 12.0411 11.9739 12.0996 12.0537 12.0894C12.1934 12.0595 12.3037 12.0443 12.3072 11.7604C12.3074 11.7612 12.293 11.2778 11.9758 11.308ZM11.839 11.8264L11.8342 11.8282H11.8267L11.5925 11.8216C11.5926 11.817 11.592 11.8125 11.5907 11.8082C11.569 11.7444 11.4131 11.7486 11.3765 11.7986L11.3746 11.8015L11.3727 11.8053L11.3709 11.8101L11.3698 11.8167C11.3695 11.8192 11.3687 11.8221 11.3687 11.8245C11.2462 11.8392 11.1356 11.8205 11.013 11.8159C10.977 11.7711 10.9812 11.6902 11.0234 11.6707H11.0242C11.3036 11.6843 11.5661 11.6733 11.8457 11.687C11.89 11.7243 11.8679 11.8106 11.839 11.8264ZM8.55848 7.9444C8.55848 7.94921 8.60762 7.9914 8.66557 7.95775C8.78762 7.91129 8.86373 7.86589 9.03465 7.82876C9.07951 7.82796 9.07684 7.70779 9.00607 7.70352C8.9134 7.70806 8.82794 7.71286 8.73554 7.78577C8.67866 7.79885 8.66878 7.76414 8.65622 7.73316C8.6418 7.65598 8.6888 7.60177 8.67919 7.54381C8.68186 7.54648 8.65035 7.51818 8.61029 7.51604C8.59572 7.51512 8.58116 7.51807 8.56809 7.52459C8.56516 7.52459 8.43937 7.60978 8.39878 7.66906C8.37394 7.68776 8.37688 7.70432 8.38436 7.7369C8.40359 7.78123 8.4375 7.76734 8.47623 7.74651C8.5275 7.73957 8.55207 7.77295 8.54807 7.83437C8.5243 7.91129 8.55848 7.93959 8.55848 7.9444ZM12.7809 7.91396C12.7572 7.88672 12.7032 7.90301 12.6672 7.89873C12.6501 7.89873 12.5935 7.89046 12.6204 7.84052C12.6429 7.80954 12.6511 7.79084 12.6664 7.75265C12.6835 7.71527 12.6685 7.6899 12.6071 7.6696C12.5822 7.66455 12.5569 7.66231 12.5315 7.66292C12.5088 7.66372 12.4848 7.66666 12.4503 7.6696C12.4129 7.67761 12.3998 7.6939 12.3929 7.7393C12.3956 7.8082 12.4378 7.80473 12.4808 7.83197C12.5059 7.86375 12.5219 7.89259 12.4789 7.94467C12.438 7.98206 12.4089 8.00289 12.3681 8.04028C12.3488 8.07312 12.3368 8.12386 12.3958 8.13962C12.5048 8.17033 12.7572 8.00636 12.7572 8.00289C12.798 7.97218 12.7844 7.91396 12.7809 7.91396ZM10.8314 7.58815C10.919 7.58868 11.0205 7.38758 11.0638 7.18836C11.0875 6.91409 11.048 6.74718 11.0408 6.58588C11.0336 6.42457 10.8584 5.11679 10.8229 4.99474C10.7799 4.764 10.9935 4.9643 10.97 4.83023C10.8963 4.66119 10.712 4.41496 10.6546 4.26808C10.633 4.22882 10.6303 4.19223 10.6124 4.19544C10.6017 4.19731 10.586 4.2136 10.5569 4.25179C10.485 4.48706 10.4597 4.67935 10.4872 4.82543C10.6722 5.79084 10.8616 6.66973 10.8314 7.58815Z" fill="#F0F0F0"/>
<path d="M13.5648 5.0341C13.5566 4.97322 13.5296 4.83328 13.54 4.81512C13.5568 4.77239 13.641 4.81939 13.6711 4.77025C13.7152 4.72539 13.4532 4.38969 13.3613 4.24628C13.3429 4.21023 13.3317 4.18059 13.3154 4.18219C13.3029 4.18352 13.2874 4.20382 13.2639 4.25376C13.207 4.3467 13.1875 4.51307 13.2102 4.66022C13.3469 5.58425 13.4484 6.47916 13.4692 7.29823C13.4575 7.37594 13.454 7.41733 13.4177 7.51534C13.337 7.6187 13.2481 7.74822 13.1643 7.81071C13.0804 7.8732 12.9023 7.93276 12.8438 7.97896C12.659 8.08578 12.6579 8.20889 12.8075 8.21317C13.0652 8.18326 13.3699 8.16216 13.5801 7.84516C13.6362 7.75623 13.7024 7.51534 13.7053 7.36793C13.7251 6.50373 13.6944 5.65875 13.5648 5.0341ZM11.8615 7.0739C11.9008 7.09499 12.0039 6.96814 12.0002 6.80897C12.0116 6.72726 11.971 6.42601 11.8682 6.37474C11.856 6.37148 11.8434 6.37049 11.8308 6.3718C11.7772 6.37848 11.7261 6.42922 11.7497 6.5104C11.735 6.55821 11.8226 6.72485 11.8453 6.81352C11.8658 6.87681 11.8191 7.05494 11.8615 7.0739ZM3.74671 4.51494C3.8725 4.57503 4.10858 4.54966 4.0987 4.3467C4.09772 4.31513 4.09576 4.2836 4.09282 4.25216C4.08 4.22225 4.0565 4.21103 4.0338 4.21504C4.0111 4.21904 3.9892 4.23774 3.98119 4.26845C3.97612 4.28874 3.99 4.32239 3.97158 4.33254C3.96116 4.34323 3.9211 4.33601 3.9227 4.27993C3.9227 4.26204 3.90962 4.24335 3.90161 4.23213C3.8936 4.22705 3.88825 4.22545 3.87383 4.22545C3.85621 4.22625 3.85674 4.23079 3.84713 4.24548C3.84285 4.26044 3.83725 4.27513 3.83725 4.29222C3.83511 4.31225 3.8271 4.31892 3.81241 4.32186C3.79612 4.32186 3.79986 4.32373 3.7865 4.31518C3.77876 4.30664 3.76941 4.30317 3.76941 4.28848C3.76922 4.27157 3.76634 4.2548 3.76087 4.2388C3.75392 4.22972 3.74297 4.22492 3.73015 4.22171C3.66152 4.22198 3.65645 4.30103 3.66045 4.33067C3.65565 4.33601 3.65297 4.47595 3.74671 4.51494ZM5.6479 5.17191C5.62672 5.17159 5.60598 5.17794 5.58861 5.19007C5.47725 5.25016 5.43425 5.42882 5.50342 5.53324C5.56805 5.62537 5.6706 5.59146 5.68422 5.59146C5.79318 5.60508 5.85834 5.38689 5.85834 5.38689C5.85834 5.38689 5.86155 5.32547 5.73202 5.44137C5.67754 5.45152 5.67007 5.43202 5.65645 5.40131C5.64348 5.3439 5.64948 5.28384 5.67354 5.23013C5.68582 5.19621 5.67381 5.17458 5.6479 5.17191ZM10.1743 7.39196C9.97184 7.60321 9.68021 7.86386 9.36242 7.98377C9.32823 8.02222 9.44734 8.18566 9.60143 8.18539C9.85914 8.15548 10.0856 8.01074 10.2955 7.62991C10.3516 7.54098 10.4504 7.35084 10.4533 7.20342C10.4731 6.33922 10.4098 5.6673 10.2803 5.04265C10.272 4.98176 10.2776 4.90992 10.288 4.8915C10.3046 4.87147 10.3612 4.89203 10.3914 4.84262C10.4355 4.79776 10.2739 4.42494 10.182 4.28127C10.1636 4.24521 10.1524 4.21664 10.1361 4.21824C10.1235 4.21958 10.108 4.23907 10.0845 4.28901C10.0279 4.38195 9.9892 4.54379 9.99374 4.69548C10.1166 5.54659 10.1542 6.29115 10.2346 7.14226C10.241 7.22479 10.229 7.34416 10.1743 7.39196ZM3.1672 6.11596C2.86489 6.12157 2.42264 6.51201 2.41089 6.72886C2.72975 6.57583 3.04301 6.42842 3.36696 6.26978C3.31461 6.1918 3.36375 6.12157 3.1672 6.11596ZM2.58127 7.71938C2.50169 7.88068 2.46884 7.77039 2.46163 7.68012C2.44934 7.5092 2.4659 7.35164 2.4846 7.22692C2.49448 7.16309 2.49421 7.14066 2.48646 7.14093C2.47899 7.1412 2.4635 7.1639 2.44347 7.1898C2.26374 7.47609 2.24771 7.90365 2.34679 8.0313C2.3994 8.09166 2.48646 8.1181 2.55056 8.09913C2.66352 8.05026 2.7132 7.82139 2.68622 7.7378C2.64857 7.67852 2.61893 7.66917 2.58127 7.71938Z" fill="#F0F0F0"/>
<path d="M2.61666 5.85497C2.98386 5.89022 2.78117 5.23406 2.91416 5.11495C2.93927 5.0562 2.98573 5.05513 2.98974 5.12937V5.68672C2.98627 5.86806 3.10564 5.92174 3.19831 5.95912C3.29472 5.95165 3.35855 5.95432 3.3962 6.04805C3.41116 6.36932 3.42691 6.6914 3.44214 7.01294C3.44214 7.01294 3.66486 7.07703 3.67554 6.47081C3.68623 6.11482 3.60477 5.81625 3.65258 5.74708C3.65418 5.67898 3.74151 5.67577 3.8016 5.70889C3.89747 5.77672 3.9402 5.86004 4.08949 5.82639C4.31648 5.7639 4.45322 5.65361 4.45669 5.47922C4.44334 5.31364 4.42411 5.1478 4.35254 4.98196C4.36269 4.95178 4.30901 4.87353 4.31916 4.84335C4.36002 4.90718 4.42171 4.90184 4.43586 4.84335C4.39714 4.71597 4.33705 4.59392 4.23984 4.54131C4.15945 4.47054 4.04195 4.4855 3.99895 4.63318C3.97892 4.80329 4.06064 5.00492 4.18456 5.1697C4.211 5.23406 4.24758 5.34115 4.23129 5.43729C4.16533 5.47495 4.10017 5.45919 4.04489 5.40097C4.04489 5.40097 3.86409 5.26557 3.86409 5.23566C3.91216 4.92855 3.8745 4.89356 3.8478 4.80837C3.8291 4.69086 3.77355 4.65348 3.72815 4.57309C3.68302 4.52529 3.6216 4.52529 3.59249 4.57309C3.51264 4.71169 3.55003 5.00893 3.60771 5.14192C3.64937 5.2645 3.71347 5.34088 3.68329 5.34088C3.65845 5.41005 3.60691 5.39403 3.56952 5.31418C3.51638 5.14914 3.50543 4.90317 3.50543 4.79208C3.4894 4.65454 3.47151 4.36078 3.38125 4.28627C3.35721 4.25342 3.32864 4.24194 3.30086 4.24514C3.26534 4.24942 3.23196 4.27826 3.21567 4.31698C3.20785 4.4499 3.21071 4.58324 3.22422 4.7157C3.28617 4.93629 3.30594 5.13044 3.33611 5.35637C3.34439 5.65895 3.16146 5.48723 3.16974 5.33714C3.21193 5.14219 3.20071 4.83561 3.16306 4.75763C3.13315 4.67991 3.0987 4.66069 3.02633 4.6735C2.96891 4.67003 2.82016 4.83187 2.77876 5.1C2.77876 5.1 2.74405 5.23753 2.72909 5.36011C2.70879 5.49845 2.61693 5.59646 2.5531 5.34088C2.49782 5.15501 2.4639 4.69727 2.3715 4.80436C2.34453 5.16142 2.31301 5.79034 2.61666 5.85497Z" fill="#F0F0F0"/>
<path d="M2.73392 4.50826C2.75315 4.55633 2.71469 4.71096 2.75502 4.72538C2.79187 4.7414 2.84288 4.61829 2.86211 4.50452C2.87279 4.4423 2.86478 4.22892 2.71977 4.18512C2.71221 4.18345 2.70453 4.18247 2.6968 4.18218C2.64125 4.18058 2.58009 4.21503 2.60413 4.28153C2.59024 4.31811 2.71256 4.44069 2.73392 4.50826ZM4.83113 7.29021C4.96199 6.85437 4.82846 6.52562 4.87226 6.48502L4.87413 6.48396L4.876 6.48289L4.87786 6.48182L4.88347 6.48075C5.04504 6.65487 5.27178 6.50292 5.32145 6.44256C5.34281 6.41238 5.39596 6.39289 5.43335 6.43215C5.5594 6.52268 5.78025 6.47995 5.82646 6.32025C5.85316 6.16402 5.87559 6.00325 5.88093 5.83634C5.79895 5.86171 5.73272 5.88094 5.70601 5.90898C5.69978 5.91533 5.69544 5.92328 5.69346 5.93195L5.67236 6.07055C5.67168 6.0742 5.67042 6.07772 5.66862 6.08097C5.66471 6.08687 5.65951 6.0918 5.6534 6.09539C5.62429 6.11114 5.57382 6.10206 5.57115 6.06014C5.53216 5.88254 5.37139 5.85957 5.27364 6.13464C5.20795 6.18779 5.08831 6.1982 5.07575 6.11835C5.09178 5.93382 5.01727 5.90898 4.86825 5.99604C4.82045 5.63044 4.77291 5.28113 4.72484 4.91552C4.78706 4.91365 4.84395 4.95879 4.90083 4.88775C4.83941 4.69654 4.70935 4.30743 4.63591 4.27111L4.63404 4.27004C4.63091 4.26625 4.62742 4.26276 4.62362 4.25963L4.61882 4.25589L4.61401 4.25295C4.61095 4.25136 4.60773 4.25011 4.6044 4.24921C4.59772 4.24734 4.59131 4.24654 4.58437 4.24734C4.56621 4.24975 4.54591 4.26016 4.52214 4.2655C4.44416 4.29034 4.37099 4.35791 4.39395 4.4893C4.48636 5.05012 4.54644 5.47822 4.63858 6.0393C4.65273 6.105 4.59772 6.19153 4.52668 6.18271C4.40597 6.10099 4.37606 5.93569 4.17016 5.94263C4.02114 5.9445 3.85102 6.1066 3.82966 6.26283C3.80482 6.38701 3.79601 6.52161 3.82966 6.63004C3.93435 6.75609 4.06013 6.74274 4.17016 6.71416C4.26069 6.67704 4.3352 6.58758 4.36698 6.60894H4.36805V6.61001C4.38781 6.64446 4.36618 6.93635 3.94156 7.16175C3.68064 7.27899 3.47287 7.30703 3.36124 7.09392C3.29207 6.96066 3.36631 6.45378 3.19593 6.57102C2.69173 7.87026 4.37686 8.05186 4.56514 6.62443C4.57742 6.5841 4.61455 6.54378 4.64072 6.55366C4.6522 6.55847 4.66262 6.57422 4.66662 6.60333C4.62763 7.89563 3.36311 7.98429 3.14813 7.57756C3.09498 7.48169 3.07896 7.26857 3.07362 7.14065C3.064 7.06321 3.04451 7.01861 3.02208 7.00098C2.9708 6.96252 2.9019 7.06294 2.88721 7.23706C2.86585 7.37727 2.87199 7.41572 2.87199 7.55059C2.93929 8.57182 4.56647 8.13331 4.83113 7.29021ZM4.20247 6.40704V6.40811C4.20221 6.40865 4.20194 6.40971 4.20141 6.40998C4.18885 6.42627 4.14426 6.4196 4.11248 6.4196C4.07402 6.41799 4.05532 6.41158 4.03209 6.38034C4.02114 6.34562 4.05452 6.31144 4.06948 6.2858L4.07028 6.28473C4.07227 6.28196 4.07451 6.27936 4.07696 6.27699C4.09515 6.26152 4.11824 6.253 4.14212 6.25295C4.17176 6.25322 4.20301 6.26791 4.21957 6.3093C4.22564 6.32564 4.22726 6.34331 4.22426 6.36049C4.22126 6.37766 4.21374 6.39373 4.20247 6.40704ZM9.58317 5.43228C9.70895 5.49237 9.9461 5.46593 9.93595 5.26297C9.93471 5.23139 9.93248 5.19986 9.92927 5.16843C9.91645 5.13852 9.89268 5.1273 9.86999 5.13104C9.84729 5.13505 9.82539 5.15454 9.81737 5.18552C9.8123 5.20582 9.82699 5.2384 9.80883 5.24854C9.79841 5.25923 9.75755 5.25308 9.75916 5.197C9.75916 5.17911 9.74607 5.15961 9.73806 5.14813C9.73005 5.14306 9.72471 5.14145 9.71028 5.14145C9.69266 5.14225 9.69319 5.1468 9.68358 5.16148C9.67957 5.17644 9.67396 5.19139 9.67396 5.20822C9.67183 5.22825 9.66488 5.23492 9.6502 5.23786C9.63391 5.23786 9.63684 5.23973 9.62349 5.23119C9.61548 5.22264 9.6064 5.21917 9.6064 5.20448C9.60621 5.18757 9.60332 5.17081 9.59785 5.15481C9.59091 5.14573 9.57996 5.14172 9.56714 5.13852C9.49851 5.13878 9.4945 5.21676 9.49824 5.24668C9.4929 5.25255 9.48943 5.39356 9.58317 5.43228ZM9.66809 4.64553C9.71295 4.77131 9.63391 4.89122 9.68064 4.90858C9.72364 4.92807 9.78346 4.77879 9.80589 4.64099C9.8318 4.52936 9.75221 4.30102 9.63951 4.25375C9.63074 4.25182 9.62179 4.25084 9.61281 4.25081C9.54845 4.24895 9.47688 4.28954 9.50465 4.37046C9.48836 4.41425 9.64325 4.56354 9.66809 4.64553Z" fill="#F0F0F0"/>
<path d="M4.9815 5.25065H4.98257L4.98363 5.25172H4.9847L4.98577 5.25279C5.00954 5.26881 5.30411 5.26854 5.33669 5.25386L5.33749 5.25279H5.33856V5.25172C5.43977 5.21433 5.91994 4.66553 5.91994 4.66553C5.8951 4.64416 5.87214 4.62841 5.8473 4.60731C5.8206 4.58434 5.82327 4.56164 5.8473 4.53841C5.96614 4.46924 5.92849 4.31702 5.86653 4.24785C5.8217 4.22698 5.77252 4.21718 5.72312 4.21927C5.68303 4.22145 5.64387 4.2322 5.60828 4.25079C5.52496 4.33064 5.5052 4.45882 5.5709 4.53868C5.63472 4.56885 5.69855 4.63321 5.65609 4.66873C5.47529 4.86182 5.00473 5.18442 4.98096 5.24344L4.98016 5.24531V5.24825L4.98096 5.25012L4.9815 5.25065ZM5.69348 4.39019L5.69908 4.38912C5.72846 4.38618 5.76398 4.41316 5.78134 4.45135C5.79977 4.49194 5.79068 4.53093 5.76024 4.53841C5.73006 4.54589 5.69081 4.51891 5.67238 4.47805C5.65395 4.43746 5.6633 4.39767 5.69348 4.39019ZM8.50186 4.69384C8.71278 4.97619 8.91617 5.2641 9.11182 5.55724C9.14253 5.77622 9.16523 5.9904 9.17966 6.20352C9.21143 6.67114 9.22105 7.25332 9.19221 7.74578C9.2798 7.74925 9.42027 7.60424 9.46941 7.39193C9.50146 7.09816 9.45793 6.49915 9.45499 6.32583C9.45222 6.24326 9.44839 6.16073 9.44351 6.07827C9.68262 6.46891 9.90493 6.8696 10.1098 7.27923C10.1889 7.24157 10.1715 6.79585 10.125 6.73336C9.95119 6.35921 9.7111 5.98987 9.63446 5.84806C9.60695 5.79679 9.51268 5.65364 9.40105 5.4886C9.38048 5.25306 9.35805 5.05356 9.34363 4.99321C9.30784 4.74431 9.44591 5.02125 9.42695 4.8765C9.38208 4.62787 9.24482 4.45882 9.08271 4.23102C9.03037 4.15705 9.03144 4.14183 8.95079 4.24918C8.90245 4.35868 8.90325 4.44974 8.9174 4.53494C8.89085 4.49601 8.86242 4.4584 8.83221 4.42224C8.69227 4.30206 8.68373 4.29565 8.56729 4.19764C8.5307 4.17174 8.461 4.13168 8.40759 4.13649C8.37554 4.13942 8.35017 4.15812 8.34056 4.20539C8.32774 4.31648 8.33442 4.37684 8.35311 4.46924C8.3678 4.53093 8.45753 4.63401 8.50186 4.69384ZM8.94838 4.67701C8.95372 4.70105 8.95906 4.72508 8.9628 4.74965C8.97482 4.80253 8.98524 4.85514 8.99619 4.90748C8.96393 4.86178 8.93018 4.81716 8.89497 4.77369C8.79002 4.64897 8.89711 4.6917 8.94838 4.67701Z" fill="#F0F0F0"/>
<path d="M6.35676 5.57153C6.50364 5.63242 6.59684 5.35281 6.65693 5.04649C6.69806 4.9605 6.72957 4.95062 6.75067 4.99495C6.74533 5.40195 6.77978 5.49301 6.88446 5.6164C7.11787 5.79666 7.31096 5.63909 7.32618 5.62414L7.50778 5.44254C7.54837 5.40008 7.60178 5.39741 7.65893 5.4348C7.71448 5.48527 7.70727 5.57233 7.82638 5.63268C7.92653 5.67274 8.14017 5.6423 8.18985 5.55631C8.25661 5.44201 8.27263 5.40275 8.30361 5.35922C8.35115 5.29592 8.4326 5.32397 8.4326 5.344C8.42512 5.37925 8.37705 5.41423 8.40963 5.47779C8.46625 5.52025 8.47934 5.49301 8.51299 5.4834C8.63156 5.42678 8.72049 5.16987 8.72049 5.16987C8.72583 5.074 8.67109 5.08121 8.63637 5.10097C8.59097 5.12875 8.58803 5.13809 8.54263 5.16587C8.48468 5.17441 8.37251 5.2126 8.31696 5.12661C8.26035 5.02326 8.25981 4.87905 8.21655 4.77463C8.21655 4.76715 8.14071 4.61065 8.21094 4.6005C8.24619 4.60718 8.32231 4.62668 8.33432 4.56312C8.37145 4.50116 8.25421 4.3257 8.17462 4.23704C8.10546 4.16119 8.00985 4.15185 7.91745 4.22929C7.85255 4.28885 7.86216 4.35535 7.84961 4.41864C7.83306 4.49101 7.83626 4.58101 7.90997 4.67688C7.9746 4.80427 8.0921 4.96798 8.05338 5.19898C8.05338 5.19898 7.98501 5.30901 7.8651 5.29459C7.81516 5.28364 7.73344 5.26201 7.69018 4.94181C7.65733 4.69932 7.69846 4.35988 7.59564 4.20072C7.57241 4.14063 7.55238 4.08241 7.51926 4.08695C7.49923 4.08962 7.47493 4.11526 7.44075 4.17695C7.41644 4.24131 7.31149 4.33905 7.38734 4.54042C7.44929 4.66807 7.47466 4.87531 7.44662 5.10658C7.40363 5.17228 7.39401 5.19498 7.33766 5.26041C7.25861 5.34533 7.17289 5.3237 7.10719 5.29192C7.04577 5.25053 6.99743 5.22916 6.96939 5.09777C6.97446 4.88813 6.98675 4.54522 6.94829 4.47232C6.89194 4.35962 6.79874 4.39994 6.75895 4.43413C6.56773 4.60878 6.47346 4.90388 6.41578 5.13889C6.3629 5.31008 6.30628 5.26041 6.26676 5.1915C6.17008 5.10097 6.16341 4.39353 6.0467 4.50971C5.85949 5.04382 6.15326 5.62841 6.35676 5.57153Z" fill="#F0F0F0"/>
<path d="M7.18392 4.56226C7.2563 4.36704 7.25656 4.28372 7.26137 4.20093C7.25015 4.13791 7.22265 4.10746 7.19167 4.11013C7.16069 4.1128 7.12597 4.14912 7.09793 4.21909C7.0739 4.27224 7.04425 4.55078 7.04933 4.55078C7.02983 4.63357 7.13559 4.66882 7.18392 4.56226ZM6.42842 4.51659C6.44623 4.50554 6.46155 4.4909 6.47341 4.47362C6.48527 4.45634 6.49341 4.43678 6.49732 4.41618C6.51441 4.33099 6.40758 4.45651 6.39396 4.3617C6.3702 4.27357 6.4383 4.23752 6.50292 4.15233C6.50426 4.11227 6.50506 4.07942 6.47916 4.07862C6.46741 4.07835 6.44951 4.08476 6.42468 4.09972C6.36886 4.13711 6.25777 4.25274 6.25456 4.38547C6.25109 4.46051 6.23693 4.46025 6.28607 4.50778C6.32159 4.55906 6.35684 4.55398 6.42842 4.51659Z" fill="#F0F0F0"/>
</svg>
