<svg width="16" height="12" viewBox="0 0 16 12" fill="none" xmlns="http://www.w3.org/2000/svg">
<path d="M13.3184 11.7769H2.45257C1.80229 11.7761 1.17889 11.5173 0.719115 11.0575C0.259339 10.5976 0.00072575 9.97417 0 9.32389V2.45257C0.000725985 1.80233 0.259354 1.17893 0.719143 0.719144C1.17893 0.259354 1.80233 0.000725985 2.45257 0H13.3184C13.9687 0.00072575 14.5921 0.25934 15.052 0.719116C15.5119 1.17889 15.7706 1.80229 15.7714 2.45257V9.32389C15.7707 9.97425 15.512 10.5978 15.0522 11.0576C14.5923 11.5175 13.9688 11.7762 13.3184 11.7769ZM2.45257 1.14286C2.10532 1.14322 1.7724 1.28132 1.52686 1.52686C1.28132 1.77241 1.14322 2.10533 1.14286 2.45257V9.32389C1.1431 9.67121 1.28115 10.0042 1.5267 10.2499C1.77226 10.4955 2.10525 10.6337 2.45257 10.6341H13.3184C13.6658 10.6337 13.9988 10.4955 14.2444 10.2499C14.4901 10.0043 14.6282 9.67125 14.6286 9.32389V2.45257C14.6281 2.10528 14.4899 1.77236 14.2443 1.52684C13.9987 1.28131 13.6657 1.14322 13.3184 1.14286H2.45257Z" fill="#1E3231"/>
<path d="M7.87856 7.42586C7.39911 7.43058 6.93207 7.27355 6.55285 6.98014L0.441765 2.1102C0.323251 2.01569 0.247134 1.87797 0.230159 1.72735C0.213185 1.57672 0.256742 1.42551 0.35125 1.307C0.445758 1.18849 0.583475 1.11237 0.734104 1.09539C0.884734 1.07842 1.03594 1.12198 1.15445 1.21648L7.26371 6.08643C7.44418 6.21443 7.6601 6.28293 7.88136 6.28235C8.10262 6.28178 8.31819 6.21217 8.49799 6.08323L14.5318 1.21877C14.6497 1.12366 14.8006 1.07928 14.9512 1.09539C15.1018 1.11151 15.2399 1.18681 15.335 1.30471C15.4301 1.42262 15.4745 1.57348 15.4584 1.72411C15.4423 1.87474 15.367 2.0128 15.2491 2.10791L9.21708 6.97237C8.83524 7.27095 8.36325 7.43086 7.87856 7.42586Z" fill="#1E3231"/>
</svg>
