<svg width="119" height="32" viewBox="0 0 119 32" fill="none" xmlns="http://www.w3.org/2000/svg">
<mask id="path-1-outside-1_2_4561" maskUnits="userSpaceOnUse" x="36.0208" y="7.05264" width="82" height="15" fill="black">
<rect fill="white" x="36.0208" y="7.05264" width="82" height="15"/>
<path d="M43.8888 14.9061V14.4618H48.5727V19.4975C48.005 20.0652 47.3076 20.5096 46.4807 20.8305C45.6661 21.1514 44.7527 21.3118 43.7407 21.3118C42.7039 21.3118 41.7474 21.1452 40.8711 20.812C39.9947 20.4664 39.2295 19.9912 38.5754 19.3864C37.9212 18.7693 37.409 18.0534 37.0387 17.2388C36.6808 16.4242 36.5018 15.5356 36.5018 14.5729C36.5018 13.6102 36.6808 12.7215 37.0387 11.9069C37.409 11.0923 37.9212 10.3826 38.5754 9.77785C39.2295 9.16073 39.9947 8.68555 40.8711 8.3523C41.7474 8.00672 42.7039 7.83392 43.7407 7.83392C44.185 7.83392 44.6663 7.86478 45.1847 7.92649C45.7154 7.9882 46.2215 8.0746 46.7028 8.18568C47.1842 8.28442 47.5915 8.40784 47.9247 8.55595L47.8322 9.59271H47.7211C47.2274 9.16073 46.635 8.83366 45.9438 8.61149C45.2526 8.38933 44.5182 8.27825 43.7407 8.27825C42.5805 8.27825 41.5622 8.54361 40.6859 9.07433C39.8096 9.59271 39.1246 10.3271 38.6309 11.2775C38.1496 12.2155 37.9089 13.314 37.9089 14.5729C37.9089 15.8318 38.1496 16.9364 38.6309 17.8868C39.1246 18.8248 39.8096 19.5592 40.6859 20.0899C41.5622 20.6083 42.5805 20.8675 43.7407 20.8675C44.4565 20.8675 45.1168 20.7688 45.7216 20.5713C46.3387 20.3738 46.8695 20.0899 47.3138 19.7197V14.9061H43.8888ZM52.276 8.09311H53.5349V20.6824C53.7694 20.6824 54.1397 20.6453 54.6458 20.5713L57.719 20.1084V21.0526H52.276V8.09311ZM60.2542 21.0526V8.09311H61.5131V21.0526H60.2542ZM77.9741 8.09311V21.0526H76.7151V9.1669H76.6041L72.1238 17.7572H71.5498L66.4586 10.1852H66.3475L66.7548 21.0526H65.4959L65.9587 7.83392H66.329L72.1608 16.4983H72.2719L76.6411 8.09311H77.9741ZM94.4316 8.09311V21.0526H93.1727V9.1669H93.0616L88.5813 17.7572H88.0074L82.9162 10.1852H82.8051L83.2124 21.0526H81.9535L82.4163 7.83392H82.7866L88.6184 16.4983H88.7295L93.0987 8.09311H94.4316ZM98.6888 21.0526V8.09311H104.335V9.00028L101.096 8.57447C100.528 8.50041 100.145 8.46338 99.9477 8.46338V14.11C100.108 14.11 100.491 14.0915 101.096 14.0545L104.132 13.8694V14.721L101.096 14.5358C100.491 14.4988 100.108 14.4803 99.9477 14.4803V20.6824C100.17 20.6824 100.559 20.6453 101.114 20.5713L104.391 20.1455V21.0526H98.6888ZM107.716 8.09311H110.196C111.505 8.09311 112.517 8.37082 113.233 8.92622C113.961 9.46929 114.325 10.2345 114.325 11.2219C114.325 11.9871 114.097 12.6228 113.64 13.1288C113.196 13.6349 112.548 13.9743 111.696 14.1471V14.2581C112.511 14.4186 113.177 14.8012 113.695 15.406C114.214 16.0108 114.603 16.7575 114.862 17.6461C115.096 18.4607 115.325 19.0964 115.547 19.553C115.781 19.9974 116.034 20.3183 116.306 20.5157C116.59 20.7132 116.923 20.8552 117.306 20.9416V21.0526H116.547C116.004 21.0526 115.553 20.9539 115.195 20.7564C114.85 20.5589 114.553 20.2257 114.306 19.7567C114.06 19.2877 113.825 18.6397 113.603 17.8128C113.245 16.5415 112.77 15.6405 112.177 15.1098C111.585 14.579 110.863 14.3137 110.011 14.3137H109.9V13.9804H110.011C111.998 13.9804 112.992 13.0671 112.992 11.2404C112.992 9.43843 112.06 8.53744 110.196 8.53744H108.975V21.0526H107.716V8.09311Z"/>
</mask>
<path d="M43.8888 14.9061V14.4618H48.5727V19.4975C48.005 20.0652 47.3076 20.5096 46.4807 20.8305C45.6661 21.1514 44.7527 21.3118 43.7407 21.3118C42.7039 21.3118 41.7474 21.1452 40.8711 20.812C39.9947 20.4664 39.2295 19.9912 38.5754 19.3864C37.9212 18.7693 37.409 18.0534 37.0387 17.2388C36.6808 16.4242 36.5018 15.5356 36.5018 14.5729C36.5018 13.6102 36.6808 12.7215 37.0387 11.9069C37.409 11.0923 37.9212 10.3826 38.5754 9.77785C39.2295 9.16073 39.9947 8.68555 40.8711 8.3523C41.7474 8.00672 42.7039 7.83392 43.7407 7.83392C44.185 7.83392 44.6663 7.86478 45.1847 7.92649C45.7154 7.9882 46.2215 8.0746 46.7028 8.18568C47.1842 8.28442 47.5915 8.40784 47.9247 8.55595L47.8322 9.59271H47.7211C47.2274 9.16073 46.635 8.83366 45.9438 8.61149C45.2526 8.38933 44.5182 8.27825 43.7407 8.27825C42.5805 8.27825 41.5622 8.54361 40.6859 9.07433C39.8096 9.59271 39.1246 10.3271 38.6309 11.2775C38.1496 12.2155 37.9089 13.314 37.9089 14.5729C37.9089 15.8318 38.1496 16.9364 38.6309 17.8868C39.1246 18.8248 39.8096 19.5592 40.6859 20.0899C41.5622 20.6083 42.5805 20.8675 43.7407 20.8675C44.4565 20.8675 45.1168 20.7688 45.7216 20.5713C46.3387 20.3738 46.8695 20.0899 47.3138 19.7197V14.9061H43.8888ZM52.276 8.09311H53.5349V20.6824C53.7694 20.6824 54.1397 20.6453 54.6458 20.5713L57.719 20.1084V21.0526H52.276V8.09311ZM60.2542 21.0526V8.09311H61.5131V21.0526H60.2542ZM77.9741 8.09311V21.0526H76.7151V9.1669H76.6041L72.1238 17.7572H71.5498L66.4586 10.1852H66.3475L66.7548 21.0526H65.4959L65.9587 7.83392H66.329L72.1608 16.4983H72.2719L76.6411 8.09311H77.9741ZM94.4316 8.09311V21.0526H93.1727V9.1669H93.0616L88.5813 17.7572H88.0074L82.9162 10.1852H82.8051L83.2124 21.0526H81.9535L82.4163 7.83392H82.7866L88.6184 16.4983H88.7295L93.0987 8.09311H94.4316ZM98.6888 21.0526V8.09311H104.335V9.00028L101.096 8.57447C100.528 8.50041 100.145 8.46338 99.9477 8.46338V14.11C100.108 14.11 100.491 14.0915 101.096 14.0545L104.132 13.8694V14.721L101.096 14.5358C100.491 14.4988 100.108 14.4803 99.9477 14.4803V20.6824C100.17 20.6824 100.559 20.6453 101.114 20.5713L104.391 20.1455V21.0526H98.6888ZM107.716 8.09311H110.196C111.505 8.09311 112.517 8.37082 113.233 8.92622C113.961 9.46929 114.325 10.2345 114.325 11.2219C114.325 11.9871 114.097 12.6228 113.64 13.1288C113.196 13.6349 112.548 13.9743 111.696 14.1471V14.2581C112.511 14.4186 113.177 14.8012 113.695 15.406C114.214 16.0108 114.603 16.7575 114.862 17.6461C115.096 18.4607 115.325 19.0964 115.547 19.553C115.781 19.9974 116.034 20.3183 116.306 20.5157C116.59 20.7132 116.923 20.8552 117.306 20.9416V21.0526H116.547C116.004 21.0526 115.553 20.9539 115.195 20.7564C114.85 20.5589 114.553 20.2257 114.306 19.7567C114.06 19.2877 113.825 18.6397 113.603 17.8128C113.245 16.5415 112.77 15.6405 112.177 15.1098C111.585 14.579 110.863 14.3137 110.011 14.3137H109.9V13.9804H110.011C111.998 13.9804 112.992 13.0671 112.992 11.2404C112.992 9.43843 112.06 8.53744 110.196 8.53744H108.975V21.0526H107.716V8.09311Z" fill="white"/>
<path d="M43.8888 14.9061H43.524V15.2709H43.8888V14.9061ZM43.8888 14.4618V14.097H43.524V14.4618H43.8888ZM48.5727 14.4618H48.9375V14.097H48.5727V14.4618ZM48.5727 19.4975L48.8307 19.7554L48.9375 19.6486V19.4975H48.5727ZM46.4807 20.8305L46.3487 20.4904L46.347 20.4911L46.4807 20.8305ZM40.8711 20.812L40.7372 21.1514L40.7414 21.1529L40.8711 20.812ZM38.5754 19.3864L38.325 19.6518L38.3277 19.6543L38.5754 19.3864ZM37.0387 17.2388L36.7047 17.3856L36.7066 17.3898L37.0387 17.2388ZM37.0387 11.9069L36.7066 11.7559L36.7048 11.7602L37.0387 11.9069ZM38.5754 9.77785L38.823 10.0457L38.8257 10.0432L38.5754 9.77785ZM40.8711 8.3523L41.0007 8.69331L41.0049 8.69167L40.8711 8.3523ZM45.1847 7.92649L45.1416 8.28873L45.1426 8.28885L45.1847 7.92649ZM46.7028 8.18568L46.6208 8.54124L46.6295 8.54304L46.7028 8.18568ZM47.9247 8.55595L48.2881 8.5884L48.3113 8.32855L48.0729 8.22259L47.9247 8.55595ZM47.8322 9.59271V9.95751H48.1658L48.1955 9.62516L47.8322 9.59271ZM47.7211 9.59271L47.4809 9.86725L47.584 9.95751H47.7211V9.59271ZM40.6859 9.07433L40.8717 9.38833L40.8749 9.38637L40.6859 9.07433ZM38.6309 11.2775L38.3072 11.1093L38.3063 11.1109L38.6309 11.2775ZM38.6309 17.8868L38.3054 18.0517L38.3081 18.0567L38.6309 17.8868ZM40.6859 20.0899L40.4969 20.402L40.5002 20.4039L40.6859 20.0899ZM45.7216 20.5713L45.6104 20.2238L45.6084 20.2245L45.7216 20.5713ZM47.3138 19.7197L47.5473 19.9999L47.6786 19.8905V19.7197H47.3138ZM47.3138 14.9061H47.6786V14.5413H47.3138V14.9061ZM43.8888 14.9061H44.2536V14.4618H43.8888H43.524V14.9061H43.8888ZM43.8888 14.4618V14.8266H48.5727V14.4618V14.097H43.8888V14.4618ZM48.5727 14.4618H48.2079V19.4975H48.5727H48.9375V14.4618H48.5727ZM48.5727 19.4975L48.3148 19.2395C47.7864 19.7679 47.1334 20.1859 46.3487 20.4904L46.4807 20.8305L46.6127 21.1706C47.4819 20.8333 48.2235 20.3626 48.8307 19.7554L48.5727 19.4975ZM46.4807 20.8305L46.347 20.4911C45.581 20.7928 44.714 20.947 43.7407 20.947V21.3118V21.6766C44.7915 21.6766 45.7511 21.51 46.6144 21.1699L46.4807 20.8305ZM43.7407 21.3118V20.947C42.7435 20.947 41.8315 20.7869 41.0007 20.471L40.8711 20.812L40.7414 21.1529C41.6633 21.5035 42.6643 21.6766 43.7407 21.6766V21.3118ZM40.8711 20.812L41.0049 20.4726C40.1682 20.1426 39.4421 19.6909 38.823 19.1186L38.5754 19.3864L38.3277 19.6543C39.0169 20.2915 39.8213 20.7901 40.7372 21.1513L40.8711 20.812ZM38.5754 19.3864L38.8257 19.1211C38.2058 18.5362 37.7214 17.8592 37.3708 17.0879L37.0387 17.2388L36.7066 17.3898C37.0966 18.2477 37.6366 19.0023 38.325 19.6518L38.5754 19.3864ZM37.0387 17.2388L37.3727 17.0921C37.0367 16.3274 36.8666 15.4893 36.8666 14.5729H36.5018H36.137C36.137 15.5819 36.3249 16.521 36.7048 17.3856L37.0387 17.2388ZM36.5018 14.5729H36.8666C36.8666 13.6565 37.0367 12.8183 37.3727 12.0537L37.0387 11.9069L36.7048 11.7602C36.3249 12.6247 36.137 13.5638 36.137 14.5729H36.5018ZM37.0387 11.9069L37.3708 12.0579C37.7211 11.2873 38.2047 10.6174 38.823 10.0457L38.5754 9.77785L38.3277 9.50999C37.6378 10.1479 37.0969 10.8974 36.7066 11.756L37.0387 11.9069ZM38.5754 9.77785L38.8257 10.0432C39.4435 9.46037 40.1673 9.01023 41.0007 8.69328L40.8711 8.3523L40.7414 8.01133C39.8222 8.36087 39.0155 8.86109 38.325 9.5125L38.5754 9.77785ZM40.8711 8.3523L41.0049 8.69167C41.8345 8.3645 42.7451 8.19872 43.7407 8.19872V7.83392V7.46912C42.6627 7.46912 41.6602 7.64893 40.7372 8.01294L40.8711 8.3523ZM43.7407 7.83392V8.19872C44.1683 8.19872 44.6351 8.22844 45.1416 8.28873L45.1847 7.92649L45.2278 7.56425C44.6976 7.50112 44.2016 7.46912 43.7407 7.46912V7.83392ZM45.1847 7.92649L45.1426 8.28885C45.661 8.34912 46.1536 8.43333 46.6208 8.54114L46.7028 8.18568L46.7849 7.83022C46.2893 7.71587 45.7699 7.62728 45.2269 7.56413L45.1847 7.92649ZM46.7028 8.18568L46.6295 8.54304C47.0934 8.63819 47.474 8.75483 47.7766 8.88931L47.9247 8.55595L48.0729 8.22259C47.709 8.06086 47.275 7.93065 46.7761 7.82832L46.7028 8.18568ZM47.9247 8.55595L47.5614 8.52351L47.4688 9.56027L47.8322 9.59271L48.1955 9.62516L48.2881 8.5884L47.9247 8.55595ZM47.8322 9.59271V9.22791H47.7211V9.59271V9.95751H47.8322V9.59271ZM47.7211 9.59271L47.9613 9.31817C47.4263 8.85008 46.7889 8.49995 46.0554 8.26419L45.9438 8.61149L45.8321 8.95879C46.481 9.16736 47.0284 9.47138 47.4809 9.86725L47.7211 9.59271ZM45.9438 8.61149L46.0554 8.26419C45.3257 8.02964 44.5534 7.91345 43.7407 7.91345V8.27825V8.64305C44.483 8.64305 45.1795 8.74902 45.8321 8.95879L45.9438 8.61149ZM43.7407 8.27825V7.91345C42.5229 7.91345 41.4375 8.19266 40.4969 8.7623L40.6859 9.07433L40.8749 9.38637C41.687 8.89456 42.6381 8.64305 43.7407 8.64305V8.27825ZM40.6859 9.07433L40.5002 8.76036C39.562 9.31532 38.8306 10.1017 38.3072 11.1093L38.6309 11.2775L38.9546 11.4456C39.4186 10.5525 40.0572 9.87011 40.8717 9.38831L40.6859 9.07433ZM38.6309 11.2775L38.3063 11.1109C37.7939 12.1096 37.5441 13.2672 37.5441 14.5729H37.9089H38.2737C38.2737 13.3607 38.5052 12.3214 38.9555 11.444L38.6309 11.2775ZM37.9089 14.5729H37.5441C37.5441 15.8787 37.7939 17.0417 38.3055 18.0516L38.6309 17.8868L38.9563 17.722C38.5052 16.8312 38.2737 15.7849 38.2737 14.5729H37.9089ZM38.6309 17.8868L38.3081 18.0567C38.8315 19.0513 39.5619 19.8357 40.4969 20.402L40.6859 20.0899L40.8749 19.7779C40.0573 19.2827 39.4177 18.5984 38.9537 17.7169L38.6309 17.8868ZM40.6859 20.0899L40.5002 20.4039C41.4402 20.96 42.5244 21.2323 43.7407 21.2323V20.8675V20.5027C42.6365 20.5027 41.6842 20.2566 40.8717 19.776L40.6859 20.0899ZM43.7407 20.8675V21.2323C44.4902 21.2323 45.1893 21.1289 45.8349 20.9181L45.7216 20.5713L45.6084 20.2245C45.0444 20.4087 44.4228 20.5027 43.7407 20.5027V20.8675ZM45.7216 20.5713L45.8328 20.9187C46.4893 20.7087 47.0628 20.4037 47.5473 19.9999L47.3138 19.7197L47.0802 19.4394C46.6761 19.7762 46.1882 20.039 45.6104 20.2238L45.7216 20.5713ZM47.3138 19.7197H47.6786V14.9061H47.3138H46.949V19.7197H47.3138ZM47.3138 14.9061V14.5413H43.8888V14.9061V15.2709H47.3138V14.9061ZM52.276 8.09311V7.72831H51.9112V8.09311H52.276ZM53.5349 8.09311H53.8997V7.72831H53.5349V8.09311ZM53.5349 20.6824H53.1701V21.0472H53.5349V20.6824ZM54.6458 20.5713L54.6986 20.9322L54.7001 20.932L54.6458 20.5713ZM57.719 20.1084H58.0838V19.6846L57.6647 19.7477L57.719 20.1084ZM57.719 21.0526V21.4174H58.0838V21.0526H57.719ZM52.276 21.0526H51.9112V21.4174H52.276V21.0526ZM52.276 8.09311V8.45791H53.5349V8.09311V7.72831H52.276V8.09311ZM53.5349 8.09311H53.1701V20.6824H53.5349H53.8997V8.09311H53.5349ZM53.5349 20.6824V21.0472C53.7978 21.0472 54.1905 21.0066 54.6986 20.9322L54.6458 20.5713L54.5929 20.2103C54.0889 20.2841 53.741 20.3176 53.5349 20.3176V20.6824ZM54.6458 20.5713L54.7001 20.932L57.7733 20.4692L57.719 20.1084L57.6647 19.7477L54.5914 20.2106L54.6458 20.5713ZM57.719 20.1084H57.3542V21.0526H57.719H58.0838V20.1084H57.719ZM57.719 21.0526V20.6878H52.276V21.0526V21.4174H57.719V21.0526ZM52.276 21.0526H52.6408V8.09311H52.276H51.9112V21.0526H52.276ZM60.2542 21.0526H59.8894V21.4174H60.2542V21.0526ZM60.2542 8.09311V7.72831H59.8894V8.09311H60.2542ZM61.5131 8.09311H61.8779V7.72831H61.5131V8.09311ZM61.5131 21.0526V21.4174H61.8779V21.0526H61.5131ZM60.2542 21.0526H60.619V8.09311H60.2542H59.8894V21.0526H60.2542ZM60.2542 8.09311V8.45791H61.5131V8.09311V7.72831H60.2542V8.09311ZM61.5131 8.09311H61.1483V21.0526H61.5131H61.8779V8.09311H61.5131ZM61.5131 21.0526V20.6878H60.2542V21.0526V21.4174H61.5131V21.0526ZM77.9741 8.09311H78.3389V7.72831H77.9741V8.09311ZM77.9741 21.0526V21.4174H78.3389V21.0526H77.9741ZM76.7151 21.0526H76.3503V21.4174H76.7151V21.0526ZM76.7151 9.1669H77.0799V8.8021H76.7151V9.1669ZM76.6041 9.1669V8.8021H76.3829L76.2806 8.99821L76.6041 9.1669ZM72.1238 17.7572V18.122H72.3449L72.4472 17.9259L72.1238 17.7572ZM71.5498 17.7572L71.2471 17.9608L71.3555 18.122H71.5498V17.7572ZM66.4586 10.1852L66.7613 9.9816L66.6529 9.82035H66.4586V10.1852ZM66.3475 10.1852V9.82035H65.9688L65.983 10.1988L66.3475 10.1852ZM66.7548 21.0526V21.4174H67.1335L67.1194 21.039L66.7548 21.0526ZM65.4959 21.0526L65.1313 21.0399L65.1181 21.4174H65.4959V21.0526ZM65.9587 7.83392V7.46912H65.6065L65.5942 7.82116L65.9587 7.83392ZM66.329 7.83392L66.6316 7.63023L66.5232 7.46912H66.329V7.83392ZM72.1608 16.4983L71.8582 16.702L71.9666 16.8631H72.1608V16.4983ZM72.2719 16.4983V16.8631H72.4934L72.5956 16.6665L72.2719 16.4983ZM76.6411 8.09311V7.72831H76.4196L76.3174 7.92486L76.6411 8.09311ZM77.9741 8.09311H77.6093V21.0526H77.9741H78.3389V8.09311H77.9741ZM77.9741 21.0526V20.6878H76.7151V21.0526V21.4174H77.9741V21.0526ZM76.7151 21.0526H77.0799V9.1669H76.7151H76.3503V21.0526H76.7151ZM76.7151 9.1669V8.8021H76.6041V9.1669V9.5317H76.7151V9.1669ZM76.6041 9.1669L76.2806 8.99821L71.8003 17.5885L72.1238 17.7572L72.4472 17.9259L76.9275 9.3356L76.6041 9.1669ZM72.1238 17.7572V17.3924H71.5498V17.7572V18.122H72.1238V17.7572ZM71.5498 17.7572L71.8526 17.5537L66.7613 9.9816L66.4586 10.1852L66.1559 10.3887L71.2471 17.9608L71.5498 17.7572ZM66.4586 10.1852V9.82035H66.3475V10.1852V10.55H66.4586V10.1852ZM66.3475 10.1852L65.983 10.1988L66.3903 21.0663L66.7548 21.0526L67.1194 21.039L66.7121 10.1715L66.3475 10.1852ZM66.7548 21.0526V20.6878H65.4959V21.0526V21.4174H66.7548V21.0526ZM65.4959 21.0526L65.8605 21.0654L66.3233 7.84669L65.9587 7.83392L65.5942 7.82116L65.1313 21.0399L65.4959 21.0526ZM65.9587 7.83392V8.19872H66.329V7.83392V7.46912H65.9587V7.83392ZM66.329 7.83392L66.0264 8.03762L71.8582 16.702L72.1608 16.4983L72.4634 16.2946L66.6316 7.63023L66.329 7.83392ZM72.1608 16.4983V16.8631H72.2719V16.4983V16.1335H72.1608V16.4983ZM72.2719 16.4983L72.5956 16.6665L76.9648 8.26137L76.6411 8.09311L76.3174 7.92486L71.9482 16.33L72.2719 16.4983ZM76.6411 8.09311V8.45791H77.9741V8.09311V7.72831H76.6411V8.09311ZM94.4316 8.09311H94.7964V7.72831H94.4316V8.09311ZM94.4316 21.0526V21.4174H94.7964V21.0526H94.4316ZM93.1727 21.0526H92.8079V21.4174H93.1727V21.0526ZM93.1727 9.1669H93.5375V8.8021H93.1727V9.1669ZM93.0616 9.1669V8.8021H92.8405L92.7382 8.99821L93.0616 9.1669ZM88.5813 17.7572V18.122H88.8025L88.9048 17.9259L88.5813 17.7572ZM88.0074 17.7572L87.7047 17.9608L87.8131 18.122H88.0074V17.7572ZM82.9162 10.1852L83.2189 9.9816L83.1105 9.82035H82.9162V10.1852ZM82.8051 10.1852V9.82035H82.4264L82.4406 10.1988L82.8051 10.1852ZM83.2124 21.0526V21.4174H83.5911L83.5769 21.039L83.2124 21.0526ZM81.9535 21.0526L81.5889 21.0399L81.5757 21.4174H81.9535V21.0526ZM82.4163 7.83392V7.46912H82.0641L82.0517 7.82116L82.4163 7.83392ZM82.7866 7.83392L83.0892 7.63023L82.9808 7.46912H82.7866V7.83392ZM88.6184 16.4983L88.3157 16.702L88.4242 16.8631H88.6184V16.4983ZM88.7295 16.4983V16.8631H88.951L89.0531 16.6665L88.7295 16.4983ZM93.0987 8.09311V7.72831H92.8772L92.775 7.92486L93.0987 8.09311ZM94.4316 8.09311H94.0668V21.0526H94.4316H94.7964V8.09311H94.4316ZM94.4316 21.0526V20.6878H93.1727V21.0526V21.4174H94.4316V21.0526ZM93.1727 21.0526H93.5375V9.1669H93.1727H92.8079V21.0526H93.1727ZM93.1727 9.1669V8.8021H93.0616V9.1669V9.5317H93.1727V9.1669ZM93.0616 9.1669L92.7382 8.99821L88.2579 17.5885L88.5813 17.7572L88.9048 17.9259L93.3851 9.3356L93.0616 9.1669ZM88.5813 17.7572V17.3924H88.0074V17.7572V18.122H88.5813V17.7572ZM88.0074 17.7572L88.3102 17.5537L83.2189 9.9816L82.9162 10.1852L82.6134 10.3887L87.7047 17.9608L88.0074 17.7572ZM82.9162 10.1852V9.82035H82.8051V10.1852V10.55H82.9162V10.1852ZM82.8051 10.1852L82.4406 10.1988L82.8479 21.0663L83.2124 21.0526L83.5769 21.039L83.1696 10.1715L82.8051 10.1852ZM83.2124 21.0526V20.6878H81.9535V21.0526V21.4174H83.2124V21.0526ZM81.9535 21.0526L82.3181 21.0654L82.7809 7.84669L82.4163 7.83392L82.0517 7.82116L81.5889 21.0399L81.9535 21.0526ZM82.4163 7.83392V8.19872H82.7866V7.83392V7.46912H82.4163V7.83392ZM82.7866 7.83392L82.484 8.03762L88.3157 16.702L88.6184 16.4983L88.921 16.2946L83.0892 7.63023L82.7866 7.83392ZM88.6184 16.4983V16.8631H88.7295V16.4983V16.1335H88.6184V16.4983ZM88.7295 16.4983L89.0531 16.6665L93.4223 8.26137L93.0987 8.09311L92.775 7.92486L88.4058 16.33L88.7295 16.4983ZM93.0987 8.09311V8.45791H94.4316V8.09311V7.72831H93.0987V8.09311ZM98.6888 21.0526H98.324V21.4174H98.6888V21.0526ZM98.6888 8.09311V7.72831H98.324V8.09311H98.6888ZM104.335 8.09311H104.7V7.72831H104.335V8.09311ZM104.335 9.00028L104.288 9.36197L104.7 9.41616V9.00028H104.335ZM101.096 8.57447L101.143 8.21278L101.143 8.21273L101.096 8.57447ZM99.9477 8.46338V8.09858H99.5829V8.46338H99.9477ZM99.9477 14.11H99.5829V14.4748H99.9477V14.11ZM101.096 14.0545L101.073 13.6904L101.073 13.6904L101.096 14.0545ZM104.132 13.8694H104.497V13.4816L104.11 13.5052L104.132 13.8694ZM104.132 14.721L104.11 15.0851L104.497 15.1087V14.721H104.132ZM101.096 14.5358L101.073 14.9L101.073 14.9L101.096 14.5358ZM99.9477 14.4803V14.1155H99.5829V14.4803H99.9477ZM99.9477 20.6824H99.5829V21.0472H99.9477V20.6824ZM101.114 20.5713L101.067 20.2095L101.066 20.2097L101.114 20.5713ZM104.391 20.1455H104.756V19.7302L104.344 19.7837L104.391 20.1455ZM104.391 21.0526V21.4174H104.756V21.0526H104.391ZM98.6888 21.0526H99.0536V8.09311H98.6888H98.324V21.0526H98.6888ZM98.6888 8.09311V8.45791H104.335V8.09311V7.72831H98.6888V8.09311ZM104.335 8.09311H103.971V9.00028H104.335H104.7V8.09311H104.335ZM104.335 9.00028L104.383 8.63859L101.143 8.21278L101.096 8.57447L101.048 8.93616L104.288 9.36197L104.335 9.00028ZM101.096 8.57447L101.143 8.21273C100.578 8.13911 100.173 8.09858 99.9477 8.09858V8.46338V8.82819C100.118 8.82819 100.477 8.86171 101.048 8.9362L101.096 8.57447ZM99.9477 8.46338H99.5829V14.11H99.9477H100.312V8.46338H99.9477ZM99.9477 14.11V14.4748C100.122 14.4748 100.517 14.4554 101.118 14.4186L101.096 14.0545L101.073 13.6904C100.465 13.7276 100.095 13.7452 99.9477 13.7452V14.11ZM101.096 14.0545L101.118 14.4186L104.154 14.2335L104.132 13.8694L104.11 13.5052L101.073 13.6904L101.096 14.0545ZM104.132 13.8694H103.767V14.721H104.132H104.497V13.8694H104.132ZM104.132 14.721L104.154 14.3569L101.118 14.1717L101.096 14.5358L101.073 14.9L104.11 15.0851L104.132 14.721ZM101.096 14.5358L101.118 14.1717C100.517 14.1349 100.122 14.1155 99.9477 14.1155V14.4803V14.8451C100.095 14.8451 100.465 14.8627 101.073 14.9L101.096 14.5358ZM99.9477 14.4803H99.5829V20.6824H99.9477H100.312V14.4803H99.9477ZM99.9477 20.6824V21.0472C100.197 21.0472 100.608 21.0068 101.162 20.9329L101.114 20.5713L101.066 20.2097C100.51 20.2839 100.143 20.3176 99.9477 20.3176V20.6824ZM101.114 20.5713L101.161 20.933L104.438 20.5072L104.391 20.1455L104.344 19.7837L101.067 20.2095L101.114 20.5713ZM104.391 20.1455H104.026V21.0526H104.391H104.756V20.1455H104.391ZM104.391 21.0526V20.6878H98.6888V21.0526V21.4174H104.391V21.0526ZM107.716 8.09311V7.72831H107.351V8.09311H107.716ZM113.233 8.92622L113.009 9.2145L113.015 9.21866L113.233 8.92622ZM113.64 13.1288L113.369 12.8844L113.366 12.8881L113.64 13.1288ZM111.696 14.1471L111.623 13.7895L111.331 13.8488V14.1471H111.696ZM111.696 14.2581H111.331V14.5581L111.626 14.6161L111.696 14.2581ZM113.695 15.406L113.419 15.6434L113.695 15.406ZM114.862 17.6461L115.212 17.5452L115.212 17.544L114.862 17.6461ZM115.547 19.553L115.219 19.7127L115.224 19.7233L115.547 19.553ZM116.306 20.5157L116.091 20.8108L116.098 20.8152L116.306 20.5157ZM117.306 20.9416H117.67V20.6499L117.386 20.5857L117.306 20.9416ZM117.306 21.0526V21.4174H117.67V21.0526H117.306ZM115.195 20.7564L115.014 21.0732L115.019 21.0758L115.195 20.7564ZM114.306 19.7567L113.984 19.9266L114.306 19.7567ZM113.603 17.8128L113.955 17.7181L113.954 17.7139L113.603 17.8128ZM112.177 15.1098L111.934 15.3815V15.3815L112.177 15.1098ZM109.9 14.3137H109.535V14.6785H109.9V14.3137ZM109.9 13.9804V13.6156H109.535V13.9804H109.9ZM108.975 8.53744V8.17264H108.61V8.53744H108.975ZM108.975 21.0526V21.4174H109.339V21.0526H108.975ZM107.716 21.0526H107.351V21.4174H107.716V21.0526ZM107.716 8.09311V8.45791H110.196V8.09311V7.72831H107.716V8.09311ZM110.196 8.09311V8.45791C111.459 8.45791 112.38 8.72647 113.009 9.21445L113.233 8.92622L113.456 8.638C112.654 8.01517 111.551 7.72831 110.196 7.72831V8.09311ZM113.233 8.92622L113.015 9.21866C113.642 9.68621 113.96 10.3381 113.96 11.2219H114.325H114.69C114.69 10.131 114.28 9.25237 113.451 8.63379L113.233 8.92622ZM114.325 11.2219H113.96C113.96 11.9088 113.758 12.4537 113.369 12.8844L113.64 13.1288L113.911 13.3732C114.435 12.7918 114.69 12.0655 114.69 11.2219H114.325ZM113.64 13.1288L113.366 12.8881C112.988 13.3188 112.42 13.628 111.623 13.7895L111.696 14.1471L111.769 14.5046C112.676 14.3206 113.404 13.9509 113.914 13.3695L113.64 13.1288ZM111.696 14.1471H111.331V14.2581H111.696H112.061V14.1471H111.696ZM111.696 14.2581L111.626 14.6161C112.363 14.7614 112.956 15.1036 113.419 15.6434L113.695 15.406L113.972 15.1686C113.398 14.4988 112.658 14.0758 111.767 13.9002L111.696 14.2581ZM113.695 15.406L113.419 15.6434C113.898 16.2029 114.265 16.9014 114.512 17.7483L114.862 17.6461L115.212 17.544C114.941 16.6136 114.53 15.8186 113.972 15.1686L113.695 15.406ZM114.862 17.6461L114.511 17.7471C114.748 18.5704 114.983 19.2288 115.219 19.7126L115.547 19.553L115.875 19.3934C115.666 18.964 115.444 18.3511 115.212 17.5452L114.862 17.6461ZM115.547 19.553L115.224 19.7233C115.473 20.1945 115.758 20.5683 116.091 20.8108L116.306 20.5157L116.52 20.2207C116.311 20.0682 116.09 19.8002 115.869 19.3828L115.547 19.553ZM116.306 20.5157L116.098 20.8152C116.425 21.0429 116.803 21.202 117.225 21.2974L117.306 20.9416L117.386 20.5857C117.043 20.5083 116.755 20.3835 116.514 20.2163L116.306 20.5157ZM117.306 20.9416H116.941V21.0526H117.306H117.67V20.9416H117.306ZM117.306 21.0526V20.6878H116.547V21.0526V21.4174H117.306V21.0526ZM116.547 21.0526V20.6878C116.046 20.6878 115.66 20.5965 115.371 20.437L115.195 20.7564L115.019 21.0758C115.446 21.3113 115.961 21.4174 116.547 21.4174V21.0526ZM115.195 20.7564L115.376 20.4397C115.108 20.2863 114.854 20.0142 114.629 19.5868L114.306 19.7567L113.984 19.9266C114.252 20.4372 114.591 20.8316 115.014 21.0732L115.195 20.7564ZM114.306 19.7567L114.629 19.5868C114.4 19.1517 114.174 18.5328 113.955 17.7181L113.603 17.8128L113.251 17.9074C113.476 18.7466 113.719 19.4236 113.984 19.9266L114.306 19.7567ZM113.603 17.8128L113.954 17.7139C113.588 16.4154 113.089 15.4363 112.421 14.8381L112.177 15.1098L111.934 15.3815C112.451 15.8447 112.902 16.6676 113.252 17.9116L113.603 17.8128ZM112.177 15.1098L112.421 14.8381C111.756 14.2429 110.946 13.9489 110.011 13.9489V14.3137V14.6785C110.78 14.6785 111.413 14.9152 111.934 15.3815L112.177 15.1098ZM110.011 14.3137V13.9489H109.9V14.3137V14.6785H110.011V14.3137ZM109.9 14.3137H110.265V13.9804H109.9H109.535V14.3137H109.9ZM109.9 13.9804V14.3452H110.011V13.9804V13.6156H109.9V13.9804ZM110.011 13.9804V14.3452C111.054 14.3452 111.904 14.1063 112.494 13.564C113.089 13.0164 113.357 12.2183 113.357 11.2404H112.992H112.627C112.627 12.0893 112.398 12.6612 112 13.0269C111.596 13.3979 110.956 13.6156 110.011 13.6156V13.9804ZM112.992 11.2404H113.357C113.357 10.28 113.108 9.49346 112.547 8.95093C111.988 8.41061 111.181 8.17264 110.196 8.17264V8.53744V8.90224C111.075 8.90224 111.666 9.11477 112.04 9.47544C112.41 9.83391 112.627 10.3988 112.627 11.2404H112.992ZM110.196 8.53744V8.17264H108.975V8.53744V8.90224H110.196V8.53744ZM108.975 8.53744H108.61V21.0526H108.975H109.339V8.53744H108.975ZM108.975 21.0526V20.6878H107.716V21.0526V21.4174H108.975V21.0526ZM107.716 21.0526H108.08V8.09311H107.716H107.351V21.0526H107.716Z" fill="white" mask="url(#path-1-outside-1_2_4561)"/>
<path d="M65.2456 29.8229C65.043 29.8229 64.8859 29.7836 64.7742 29.7051C64.6667 29.6265 64.613 29.5211 64.613 29.3888C64.613 29.273 64.6523 29.1841 64.7308 29.1221C64.8135 29.0601 64.9086 29.0291 65.0161 29.0291C65.1236 29.0291 65.2187 29.0539 65.3014 29.1035C65.3841 29.149 65.4605 29.2296 65.5308 29.3454L65.6425 29.5376C65.6631 29.5666 65.6879 29.581 65.7169 29.581C65.75 29.581 65.7727 29.5624 65.7851 29.5252C65.8099 29.4425 65.8264 29.3226 65.8347 29.1655C65.8471 29.0043 65.8533 28.81 65.8533 28.5826C65.8533 28.3221 65.8471 27.9872 65.8347 27.5779C65.8223 27.1686 65.8099 26.6642 65.7975 26.0647C65.7975 25.8869 65.7313 25.7753 65.599 25.7298L65.4564 25.6802V25.6182H67.0812V25.6802L66.9448 25.7298C66.8704 25.7588 66.8187 25.7981 66.7898 25.8477C66.7649 25.8931 66.7525 25.9593 66.7525 26.0461V27.274C66.7525 27.6792 66.7339 28.0141 66.6967 28.2787C66.6595 28.5433 66.5996 28.7728 66.5169 28.9671C66.4135 29.2441 66.244 29.457 66.0084 29.6058C65.7768 29.7505 65.5226 29.8229 65.2456 29.8229ZM69.2294 26.6353C69.4981 26.6353 69.7276 26.6911 69.9178 26.8027C70.108 26.9102 70.2527 27.059 70.3519 27.2492C70.4553 27.4353 70.5069 27.6482 70.5069 27.888C70.5069 27.9335 70.5049 27.981 70.5007 28.0306C70.4966 28.0761 70.4883 28.1174 70.4759 28.1547H68.6279C68.632 28.6012 68.7105 28.9237 68.8635 29.1221C69.0206 29.3164 69.2521 29.4136 69.5581 29.4136C69.7648 29.4136 69.9323 29.3805 70.0604 29.3144C70.1886 29.2482 70.3085 29.1511 70.4201 29.0229L70.4821 29.0787C70.354 29.3061 70.1824 29.4839 69.9674 29.612C69.7565 29.7402 69.5023 29.8043 69.2046 29.8043C68.9111 29.8043 68.6506 29.7423 68.4232 29.6182C68.1958 29.4901 68.018 29.3082 67.8899 29.0725C67.7617 28.8368 67.6976 28.5557 67.6976 28.2291C67.6976 27.8901 67.772 27.6027 67.9209 27.3671C68.0697 27.1273 68.2599 26.9453 68.4914 26.8213C68.7271 26.6973 68.9731 26.6353 69.2294 26.6353ZM69.2108 26.7593C69.0909 26.7593 68.9875 26.7965 68.9007 26.8709C68.818 26.9412 68.7519 27.0694 68.7023 27.2554C68.6568 27.4373 68.632 27.6957 68.6279 28.0306H69.6883C69.7297 27.58 69.7131 27.2554 69.6387 27.057C69.5643 26.8585 69.4217 26.7593 69.2108 26.7593ZM72.5592 29.7299L71.6042 27.1066C71.5587 26.9743 71.4677 26.8813 71.3313 26.8275L71.2259 26.7903V26.7283H72.7453V26.7903L72.6523 26.8151C72.491 26.8647 72.4373 26.964 72.491 27.1128L73.0678 28.8678L73.5825 27.5035L73.4647 27.15C73.4357 27.059 73.4047 26.9908 73.3716 26.9453C73.3427 26.8957 73.3034 26.8606 73.2538 26.8399L73.1484 26.7903V26.7283H74.4321V26.7903L74.3453 26.8275C74.2833 26.8523 74.2461 26.8854 74.2337 26.9267C74.2213 26.9681 74.2295 27.0301 74.2585 27.1128L74.829 28.8368L75.4182 27.1252C75.4761 26.9681 75.445 26.8689 75.3251 26.8275L75.1887 26.7903V26.7283H75.9329V26.7903L75.7841 26.8337C75.7138 26.8544 75.6621 26.8875 75.629 26.9329C75.6001 26.9743 75.5732 27.0322 75.5484 27.1066L74.6554 29.7299H74.3391L73.6507 27.7019L72.9189 29.7299H72.5592ZM78.0221 26.6353C78.2909 26.6353 78.5203 26.6911 78.7105 26.8027C78.9007 26.9102 79.0454 27.059 79.1446 27.2492C79.248 27.4353 79.2996 27.6482 79.2996 27.888C79.2996 27.9335 79.2976 27.981 79.2934 28.0306C79.2893 28.0761 79.281 28.1174 79.2686 28.1547H77.4206C77.4247 28.6012 77.5032 28.9237 77.6562 29.1221C77.8133 29.3164 78.0449 29.4136 78.3508 29.4136C78.5575 29.4136 78.725 29.3805 78.8531 29.3144C78.9813 29.2482 79.1012 29.1511 79.2128 29.0229L79.2748 29.0787C79.1467 29.3061 78.9751 29.4839 78.7601 29.612C78.5493 29.7402 78.295 29.8043 77.9973 29.8043C77.7038 29.8043 77.4433 29.7423 77.2159 29.6182C76.9885 29.4901 76.8107 29.3082 76.6826 29.0725C76.5544 28.8368 76.4903 28.5557 76.4903 28.2291C76.4903 27.8901 76.5647 27.6027 76.7136 27.3671C76.8624 27.1273 77.0526 26.9453 77.2841 26.8213C77.5198 26.6973 77.7658 26.6353 78.0221 26.6353ZM78.0035 26.7593C77.8836 26.7593 77.7803 26.7965 77.6934 26.8709C77.6107 26.9412 77.5446 27.0694 77.495 27.2554C77.4495 27.4373 77.4247 27.6957 77.4206 28.0306H78.481C78.5224 27.58 78.5058 27.2554 78.4314 27.057C78.357 26.8585 78.2144 26.7593 78.0035 26.7593ZM80.0265 29.7113V29.6492L80.101 29.6244C80.2498 29.5748 80.3242 29.4715 80.3242 29.3144V25.9965C80.3242 25.9138 80.3077 25.8518 80.2746 25.8105C80.2415 25.765 80.1836 25.7319 80.101 25.7112L80.0203 25.6926V25.6306L81.1552 25.3639L81.2297 25.4198L81.2048 26.288V28.4089C81.2048 28.5619 81.2048 28.7149 81.2048 28.8678C81.209 29.0167 81.211 29.1655 81.211 29.3144C81.211 29.397 81.2276 29.4653 81.2607 29.519C81.2937 29.5686 81.3495 29.6058 81.4281 29.6306L81.5087 29.6492V29.7113H80.0265ZM82.2785 29.7113V29.6492L82.3716 29.6244C82.4543 29.5996 82.5101 29.5624 82.539 29.5128C82.5721 29.4632 82.5886 29.3991 82.5886 29.3206V27.3795C82.5886 27.2885 82.5721 27.2224 82.539 27.181C82.5101 27.1355 82.4543 27.1045 82.3716 27.088L82.2785 27.0632V27.0012L83.3452 26.6415L83.4072 26.7035L83.4631 27.2368V27.2864C83.5209 27.1707 83.5954 27.0652 83.6863 26.9702C83.7814 26.8709 83.8848 26.7903 83.9964 26.7283C84.1122 26.6663 84.2258 26.6353 84.3375 26.6353C84.4946 26.6353 84.6145 26.6787 84.6972 26.7655C84.7799 26.8523 84.8212 26.9619 84.8212 27.0942C84.8212 27.2348 84.7799 27.3443 84.6972 27.4229C84.6186 27.4973 84.5235 27.5345 84.4119 27.5345C84.2383 27.5345 84.0853 27.4477 83.953 27.274L83.9406 27.2616C83.8992 27.2037 83.8517 27.1727 83.7979 27.1686C83.7442 27.1603 83.6946 27.1851 83.6491 27.243C83.6078 27.2802 83.5726 27.3257 83.5437 27.3795C83.5189 27.4291 83.4941 27.487 83.4693 27.5531V29.2834C83.4693 29.4487 83.5416 29.5521 83.6863 29.5934L83.8848 29.6492V29.7113H82.2785ZM86.1795 31.1996C86.0142 31.1996 85.8819 31.1583 85.7826 31.0756C85.6876 30.9929 85.64 30.8875 85.64 30.7593C85.64 30.6436 85.6814 30.5505 85.764 30.4803C85.8467 30.41 85.9398 30.3748 86.0431 30.3748C86.1465 30.3748 86.2333 30.3955 86.3036 30.4368C86.3739 30.4823 86.4359 30.5464 86.4896 30.6291L86.533 30.6787C86.624 30.8027 86.715 30.8007 86.8059 30.6725C86.8431 30.6105 86.8845 30.5278 86.9299 30.4244C86.9796 30.3252 87.0354 30.1909 87.0974 30.0213L85.8943 27.1438C85.8653 27.0652 85.8343 27.0032 85.8012 26.9578C85.7682 26.9081 85.7144 26.8668 85.64 26.8337L85.5284 26.7903V26.7283H87.0726V26.7841L86.9485 26.8337C86.8576 26.8627 86.81 26.9102 86.8059 26.9764C86.8059 27.0384 86.8224 27.1169 86.8555 27.212L87.5005 28.8864L88.1144 27.1934C88.1475 27.0983 88.1599 27.0198 88.1517 26.9578C88.1434 26.8916 88.0917 26.8461 87.9966 26.8213L87.8664 26.7903V26.7283H88.7284V26.7903L88.592 26.8337C88.4969 26.8627 88.4307 26.904 88.3935 26.9578C88.3563 27.0115 88.3212 27.0859 88.2881 27.181L87.2896 29.9035C87.1284 30.3376 86.9672 30.6622 86.8059 30.8772C86.6447 31.0922 86.4359 31.1996 86.1795 31.1996Z" fill="white"/>
<path d="M31.2121 12.4451L25.7856 5.09107C25.7856 5.09107 25.7553 5.05454 25.7502 5.04809L25.73 5.0266L25.6997 5.00081L25.6745 4.98147L25.6442 4.95998L25.6063 4.93849L25.5886 4.92989C25.571 4.92129 25.5508 4.9127 25.5457 4.91055L25.5306 4.9041C25.5306 4.9041 25.4927 4.89121 25.48 4.88691L25.4422 4.87831L25.422 4.87402C25.4043 4.87187 25.3891 4.86757 25.3715 4.86757L25.3184 4.86327H13.516C12.9151 5.07172 12.5767 5.34465 12.3242 5.83678H14.6751L10.8243 11.7058L6.97345 5.83678H9.32434C9.07183 5.34465 8.73346 5.07172 8.13248 4.86327H5.94573L5.90028 4.86971L5.84725 4.87831L5.8321 4.88261C5.74372 4.90625 5.66292 4.94709 5.58969 5.00941C5.57706 5.02015 5.56191 5.03305 5.53666 5.06313L5.52404 5.07817L0.0874558 12.4451C-0.0438504 12.6234 -0.0261764 12.8534 0.132906 13.0167L15.2129 28.4511L15.2205 28.4597L15.2382 28.4747C15.2584 28.4941 15.2811 28.5113 15.2962 28.5199L15.324 28.5371L15.3442 28.5542L15.4376 28.5886C15.4579 28.5951 15.4781 28.6015 15.4831 28.6015L15.4983 28.6058L15.5387 28.6144C15.5765 28.6209 15.6119 28.6252 15.6498 28.6252C15.6876 28.6252 15.7255 28.6209 15.7381 28.6187L15.7659 28.6144L15.7987 28.608C15.8265 28.6015 15.8518 28.5929 15.8694 28.5865L15.9805 28.5478L16.0058 28.5177C16.026 28.5027 16.0462 28.4876 16.0664 28.4683L31.1691 13.0124C31.3282 12.8491 31.3459 12.6213 31.2146 12.4408L31.2121 12.4451ZM24.3235 5.83678L20.4727 11.7058L16.6219 5.83678H24.3235ZM1.27173 12.6643L5.96593 6.30528L10.2864 12.8899L14.4251 26.128L1.27173 12.6643ZM15.6472 26.2462L11.4328 12.7696L15.6472 6.34825L19.8617 12.7696L15.6472 26.2462ZM16.8694 26.128L21.0081 12.8899L25.3285 6.30528L30.0227 12.6643L16.8694 26.128Z" fill="#CE9461"/>
<path d="M10.8217 7.22077C11.4833 4.62903 12.0186 4.17344 15.0639 3.61039C12.0186 3.04734 11.4833 2.59174 10.8217 0C10.1601 2.59174 9.62482 3.04734 6.57953 3.61039C9.62482 4.17344 10.1601 4.62903 10.8217 7.22077Z" fill="#CE9461"/>
<path d="M62.1053 27.9421H36.3672C36.2286 27.9421 36.1152 27.8024 36.1152 27.6317C36.1152 27.4609 36.2286 27.3212 36.3672 27.3212H62.1053C62.2439 27.3212 62.3573 27.4609 62.3573 27.6317C62.3573 27.8024 62.2439 27.9421 62.1053 27.9421Z" fill="#CE9461"/>
<path d="M117.214 27.9421H91.4756C91.337 27.9421 91.2236 27.8024 91.2236 27.6317C91.2236 27.4609 91.337 27.3212 91.4756 27.3212H117.214C117.352 27.3212 117.466 27.4609 117.466 27.6317C117.466 27.8024 117.352 27.9421 117.214 27.9421Z" fill="#CE9461"/>
</svg>
