<svg width="41" height="41" viewBox="0 0 41 41" fill="none" xmlns="http://www.w3.org/2000/svg">
<circle cx="20.2353" cy="20.3711" r="20" fill="#FFF5E0"/>
<circle cx="20.2353" cy="20.3711" r="20" stroke="#EEEEEE"/>
<path d="M24.6827 14.9224C24.4849 14.9224 24.2916 14.981 24.1271 15.0909C23.9627 15.2008 23.8345 15.357 23.7588 15.5397C23.6831 15.7224 23.6633 15.9235 23.7019 16.1175C23.7405 16.3115 23.8357 16.4897 23.9756 16.6295C24.1154 16.7694 24.2936 16.8646 24.4876 16.9032C24.6816 16.9418 24.8826 16.922 25.0654 16.8463C25.2481 16.7706 25.4043 16.6424 25.5142 16.478C25.624 16.3135 25.6827 16.1202 25.6827 15.9224C25.6827 15.6572 25.5773 15.4028 25.3898 15.2153C25.2023 15.0278 24.9479 14.9224 24.6827 14.9224ZM28.516 16.9391C28.4998 16.2476 28.3703 15.5636 28.1327 14.9141C27.9208 14.3583 27.591 13.8551 27.166 13.4391C26.7534 13.0119 26.249 12.6842 25.691 12.4807C25.0432 12.2359 24.3584 12.1034 23.666 12.0891C22.7827 12.0391 22.4994 12.0391 20.2327 12.0391C17.966 12.0391 17.6827 12.0391 16.7994 12.0891C16.107 12.1034 15.4221 12.2359 14.7744 12.4807C14.2174 12.6863 13.7135 13.0137 13.2994 13.4391C12.8722 13.8517 12.5445 14.3561 12.341 14.9141C12.0962 15.5618 11.9637 16.2467 11.9494 16.9391C11.8994 17.8224 11.8994 18.1057 11.8994 20.3724C11.8994 22.6391 11.8994 22.9224 11.9494 23.8057C11.9637 24.4981 12.0962 25.1829 12.341 25.8307C12.5445 26.3887 12.8722 26.8931 13.2994 27.3057C13.7135 27.7311 14.2174 28.0585 14.7744 28.2641C15.4221 28.5089 16.107 28.6414 16.7994 28.6557C17.6827 28.7057 17.966 28.7057 20.2327 28.7057C22.4994 28.7057 22.7827 28.7057 23.666 28.6557C24.3584 28.6414 25.0432 28.5089 25.691 28.2641C26.249 28.0606 26.7534 27.7329 27.166 27.3057C27.5929 26.8912 27.923 26.3876 28.1327 25.8307C28.3703 25.1812 28.4998 24.4971 28.516 23.8057C28.516 22.9224 28.566 22.6391 28.566 20.3724C28.566 18.1057 28.566 17.8224 28.516 16.9391ZM27.016 23.7057C27.01 24.2347 26.9141 24.7588 26.7327 25.2557C26.5996 25.6184 26.3859 25.9461 26.1077 26.2141C25.8374 26.4895 25.5104 26.7028 25.1494 26.8391C24.6524 27.0205 24.1283 27.1163 23.5994 27.1224C22.766 27.1641 22.4577 27.1724 20.266 27.1724C18.0744 27.1724 17.766 27.1724 16.9327 27.1224C16.3834 27.1327 15.8365 27.0481 15.316 26.8724C14.9708 26.7291 14.6588 26.5164 14.3994 26.2474C14.1228 25.9797 13.9117 25.6517 13.7827 25.2891C13.5792 24.785 13.4664 24.249 13.4494 23.7057C13.4494 22.8724 13.3994 22.5641 13.3994 20.3724C13.3994 18.1807 13.3994 17.8724 13.4494 17.0391C13.4531 16.4983 13.5518 15.9624 13.741 15.4557C13.8877 15.104 14.1129 14.7904 14.3994 14.5391C14.6525 14.2525 14.9654 14.025 15.316 13.8724C15.824 13.6891 16.3594 13.5933 16.8994 13.5891C17.7327 13.5891 18.041 13.5391 20.2327 13.5391C22.4244 13.5391 22.7327 13.5391 23.566 13.5891C24.095 13.5951 24.6191 13.6909 25.116 13.8724C25.4947 14.0129 25.8346 14.2414 26.1077 14.5391C26.3808 14.795 26.5942 15.108 26.7327 15.4557C26.9179 15.9632 27.0138 16.4989 27.016 17.0391C27.0577 17.8724 27.066 18.1807 27.066 20.3724C27.066 22.5641 27.0577 22.8724 27.016 23.7057ZM20.2327 16.0974C19.3875 16.099 18.5618 16.3512 17.8599 16.8219C17.158 17.2927 16.6113 17.9609 16.289 18.7422C15.9668 19.5235 15.8833 20.3828 16.0492 21.2115C16.2151 22.0402 16.6229 22.8012 17.2211 23.3982C17.8193 23.9952 18.581 24.4016 19.4101 24.5659C20.2391 24.7301 21.0982 24.645 21.8789 24.3212C22.6596 23.9974 23.3268 23.4494 23.7961 22.7466C24.2655 22.0438 24.516 21.2176 24.516 20.3724C24.5171 19.81 24.407 19.2529 24.1921 18.7332C23.9771 18.2135 23.6615 17.7414 23.2634 17.3441C22.8653 16.9468 22.3926 16.6321 21.8725 16.4182C21.3524 16.2042 20.7951 16.0952 20.2327 16.0974ZM20.2327 23.1474C19.6838 23.1474 19.1473 22.9846 18.691 22.6797C18.2346 22.3748 17.879 21.9414 17.6689 21.4343C17.4589 20.9273 17.4039 20.3693 17.511 19.831C17.6181 19.2927 17.8824 18.7983 18.2705 18.4102C18.6586 18.0221 19.153 17.7578 19.6913 17.6507C20.2296 17.5436 20.7876 17.5986 21.2946 17.8086C21.8017 18.0187 22.2351 18.3743 22.54 18.8307C22.8449 19.287 23.0077 19.8236 23.0077 20.3724C23.0077 20.7368 22.9359 21.0977 22.7965 21.4343C22.657 21.771 22.4526 22.0769 22.1949 22.3346C21.9372 22.5923 21.6313 22.7967 21.2946 22.9362C20.958 23.0756 20.5971 23.1474 20.2327 23.1474Z" fill="#1E3231"/>
</svg>
