<svg width="41" height="41" viewBox="0 0 41 41" fill="none" xmlns="http://www.w3.org/2000/svg">
<circle cx="20.8235" cy="20.3711" r="20" fill="#FFF5E0"/>
<circle cx="20.8235" cy="20.3711" r="20" stroke="#EEEEEE"/>
<g clip-path="url(#clip0_2_2219)">
<path d="M29.4717 23.9722C27.0653 23.5762 25.9808 21.1113 25.9369 21.0067L25.9268 20.9865C25.8042 20.7367 25.7749 20.5308 25.8424 20.3745C25.9741 20.0662 26.4781 19.9065 26.8111 19.8007C26.9078 19.7703 26.9989 19.7411 27.0743 19.7118C27.4028 19.5825 27.6368 19.4418 27.7921 19.2832C27.9766 19.0931 28.0126 18.9108 28.0103 18.7927C28.0047 18.5047 27.7842 18.2482 27.4321 18.1233C27.3075 18.0737 27.1746 18.0485 27.0406 18.0491C26.9151 18.0473 26.7908 18.0727 26.6761 18.1233C26.3948 18.255 26.1428 18.327 25.9257 18.3371C25.8402 18.3347 25.7559 18.3164 25.6771 18.2831L25.6984 17.9355L25.7018 17.8837C25.7794 16.6653 25.8751 15.15 25.4723 14.25C25.2132 13.6569 24.8388 13.1211 24.3709 12.6738C23.985 12.3107 23.5394 12.0169 23.0536 11.8053C22.4051 11.5224 21.7057 11.3747 20.9982 11.3711H20.9532L20.6438 11.3745C20.2444 11.3745 19.4446 11.4307 18.5862 11.8087C18.1018 12.0199 17.6576 12.3134 17.2733 12.6761C16.8078 13.1231 16.435 13.6575 16.1764 14.2488C15.7737 15.1477 15.8693 16.6631 15.9458 17.8803V17.8826L15.9706 18.282C15.8773 18.3208 15.7768 18.3396 15.6758 18.3371C15.4486 18.3371 15.1786 18.2651 14.8737 18.1222C14.7779 18.0792 14.6738 18.0577 14.5688 18.0592C14.379 18.0611 14.1932 18.1132 14.0299 18.21C13.8207 18.3326 13.6857 18.5047 13.6486 18.6971C13.6249 18.8231 13.6261 19.074 13.9051 19.3282C14.0592 19.4677 14.2842 19.5971 14.5756 19.7118C14.6521 19.7422 14.7432 19.7703 14.8388 19.8007C15.1718 19.9065 15.6769 20.0662 15.8086 20.3745C15.8749 20.5308 15.8457 20.7367 15.7231 20.9865L15.7141 21.0067C15.4791 21.5142 15.1739 21.9861 14.8073 22.4085C14.4911 22.7811 14.1228 23.1062 13.7138 23.3737C13.2486 23.6766 12.7258 23.88 12.1782 23.9711C12.0756 23.9876 11.9828 24.0417 11.9177 24.1227C11.8527 24.2038 11.82 24.3061 11.8261 24.4098C11.8294 24.4717 11.8441 24.5336 11.8699 24.5932V24.5943C11.9566 24.7957 12.1557 24.9656 12.4797 25.1152C12.8757 25.2986 13.4674 25.4527 14.2403 25.5731C14.2797 25.6473 14.3202 25.833 14.3483 25.9601C14.3776 26.0951 14.4079 26.2346 14.4518 26.382C14.4991 26.5417 14.6206 26.733 14.9344 26.733C15.0537 26.733 15.1898 26.706 15.3484 26.6756C15.5802 26.6306 15.8974 26.5687 16.2923 26.5687C16.5117 26.5687 16.7389 26.5878 16.9673 26.6261C17.4083 26.6992 17.7886 26.967 18.2284 27.2775C18.8719 27.732 19.6009 28.2461 20.7147 28.2461L20.8058 28.2427C20.8418 28.245 20.8879 28.2461 20.9352 28.2461C22.0489 28.2461 22.7779 27.732 23.4214 27.2786L23.4226 27.2775C23.8624 26.9681 24.2427 26.7003 24.6837 26.6272C24.9121 26.589 25.1393 26.5698 25.3587 26.5698C25.7367 26.5698 26.0359 26.6182 26.3026 26.67C26.4769 26.7037 26.6119 26.7206 26.7166 26.7206H26.7368C26.8419 26.7253 26.9454 26.6934 27.0297 26.6304C27.1139 26.5675 27.1738 26.4773 27.1992 26.3752C27.2387 26.237 27.2732 26.0974 27.3027 25.9567C27.3286 25.8375 27.3713 25.6462 27.4096 25.572C28.1824 25.4505 28.7742 25.2975 29.1702 25.1141C29.4931 24.9645 29.6922 24.7946 29.7788 24.5943C29.8048 24.5357 29.8201 24.4728 29.8238 24.4087C29.8296 24.3053 29.7967 24.2034 29.7317 24.1228C29.6666 24.0421 29.574 23.9885 29.4717 23.9722Z" fill="#1E3231"/>
</g>
<defs>
<clipPath id="clip0_2_2219">
<rect width="18" height="18" fill="white" transform="translate(11.8253 11.3711)"/>
</clipPath>
</defs>
</svg>
