<svg width="41" height="41" viewBox="0 0 41 41" fill="none" xmlns="http://www.w3.org/2000/svg">
<circle cx="20.647" cy="20.3711" r="20" fill="#FFF5E0"/>
<circle cx="20.647" cy="20.3711" r="20" stroke="#379777"/>
<path d="M28.9778 15.2046C28.3514 15.4763 27.689 15.656 27.0111 15.7379C27.7263 15.3107 28.2622 14.6386 28.5195 13.8463C27.8474 14.2463 27.1118 14.5282 26.3445 14.6796C25.8316 14.1234 25.1486 13.7532 24.4026 13.627C23.6567 13.5008 22.8899 13.6257 22.2226 13.9823C21.5553 14.3388 21.0252 14.9067 20.7155 15.597C20.4058 16.2872 20.3339 17.0608 20.5111 17.7963C19.1523 17.7275 17.8232 17.3737 16.61 16.7578C15.3969 16.1419 14.3268 15.2777 13.4695 14.2213C13.1687 14.7464 13.0107 15.3411 13.0111 15.9463C13.0101 16.5083 13.148 17.0618 13.4126 17.5576C13.6772 18.0534 14.0603 18.476 14.5278 18.7879C13.9844 18.7732 13.4527 18.6274 12.9778 18.3629V18.4046C12.9819 19.192 13.2578 19.9538 13.7589 20.5612C14.26 21.1686 14.9555 21.5843 15.7278 21.7379C15.4305 21.8284 15.1219 21.8761 14.8111 21.8796C14.596 21.8771 14.3815 21.8576 14.1695 21.8213C14.3894 22.4986 14.815 23.0906 15.387 23.5147C15.9591 23.9389 16.6491 24.1742 17.3611 24.1879C16.1588 25.134 14.6744 25.6503 13.1445 25.6546C12.8659 25.6555 12.5876 25.6388 12.3111 25.6046C13.8732 26.6132 15.6935 27.1485 17.5528 27.1463C18.8359 27.1596 20.1087 26.9171 21.2971 26.433C22.4854 25.9489 23.5653 25.2328 24.4738 24.3267C25.3823 23.4205 26.1011 22.3424 26.5883 21.1554C27.0754 19.9683 27.3212 18.696 27.3111 17.4129C27.3111 17.2713 27.3111 17.1213 27.3111 16.9713C27.965 16.4836 28.529 15.8858 28.9778 15.2046Z" fill="#1E3231"/>
</svg>
