<svg width="41" height="41" viewBox="0 0 41 41" fill="none" xmlns="http://www.w3.org/2000/svg">
<circle cx="20.4117" cy="20.3711" r="20" fill="#FFF5E0"/>
<circle cx="20.4117" cy="20.3711" r="20" stroke="#EEEEEE"/>
<g clip-path="url(#clip0_2_2213)">
<path d="M20.0021 10.7891H19.9971C14.4834 10.7891 9.99963 15.2741 9.99963 20.7891C9.99963 22.9766 10.7046 25.0041 11.9034 26.6503L10.6571 30.3653L14.5009 29.1366C16.0821 30.1841 17.9684 30.7891 20.0021 30.7891C25.5159 30.7891 29.9996 26.3028 29.9996 20.7891C29.9996 15.2753 25.5159 10.7891 20.0021 10.7891ZM25.8209 24.9103C25.5796 25.5916 24.6221 26.1566 23.8584 26.3216C23.3359 26.4328 22.6534 26.5216 20.3559 25.5691C17.4171 24.3516 15.5246 21.3653 15.3771 21.1716C15.2359 20.9778 14.1896 19.5903 14.1896 18.1553C14.1896 16.7203 14.9184 16.0216 15.2121 15.7216C15.4534 15.4753 15.8521 15.3628 16.2346 15.3628C16.3584 15.3628 16.4696 15.3691 16.5696 15.3741C16.8634 15.3866 17.0109 15.4041 17.2046 15.8678C17.4459 16.4491 18.0334 17.8841 18.1034 18.0316C18.1746 18.1791 18.2459 18.3791 18.1459 18.5728C18.0521 18.7728 17.9696 18.8616 17.8221 19.0316C17.6746 19.2016 17.5346 19.3316 17.3871 19.5141C17.2521 19.6728 17.0996 19.8428 17.2696 20.1366C17.4396 20.4241 18.0271 21.3828 18.8921 22.1528C20.0084 23.1466 20.9134 23.4641 21.2371 23.5991C21.4784 23.6991 21.7659 23.6753 21.9421 23.4878C22.1659 23.2466 22.4421 22.8466 22.7234 22.4528C22.9234 22.1703 23.1759 22.1353 23.4409 22.2353C23.7109 22.3291 25.1396 23.0353 25.4334 23.1816C25.7271 23.3291 25.9209 23.3991 25.9921 23.5228C26.0621 23.6466 26.0621 24.2278 25.8209 24.9103Z" fill="#1E3231"/>
</g>
<defs>
<clipPath id="clip0_2_2213">
<rect width="20" height="20" fill="white" transform="translate(9.99963 10.7891)"/>
</clipPath>
</defs>
</svg>
